<svg width="219" height="27" viewBox="0 0 219 27" fill="none" xmlns="http://www.w3.org/2000/svg">
<g clip-path="url(#clip0_306_47)">
<path d="M10.7842 0C7.8221 0.0854784 2.79366 4.04936 0.464032 7.19465C0.676234 7.04147 0.889495 6.91007 1.10308 6.8004C1.71972 6.48377 2.24169 6.3188 2.67011 6.3051C3.32916 6.28397 3.84633 6.46498 4.22147 6.84879C4.63057 7.26452 4.84362 7.7363 4.86052 8.26352C4.8751 8.7248 4.75603 9.10856 4.50186 9.41353C4.28179 9.75041 3.99445 10.0395 3.63935 10.2817C3.38102 10.4549 3.00792 10.6812 2.52208 10.9606C1.81195 11.4452 1.23689 12.0077 0.795654 12.6486C0.354417 13.2895 0.152064 14.1699 0.187917 15.2902C0.227267 16.5094 0.618904 17.4369 1.36496 18.0727C2.14389 18.7075 3.0434 19.0092 4.06491 18.9765C5.38294 18.9342 6.39225 18.4899 7.09079 17.6429C7.79036 16.8288 8.4616 15.6694 9.10615 14.1644L9.15308 14.0634C9.76775 12.6583 10.2775 11.5699 10.6817 10.7984C11.0858 10.0267 11.5573 9.30201 12.0964 8.62504C12.6684 7.94704 13.3604 7.39724 14.1715 6.97546C14.9837 6.58662 15.9335 6.37551 17.0209 6.34068C18.725 6.28603 20.2102 6.77622 21.4772 7.81092C19.0307 4.06955 14.3949 0.229546 10.7842 0H10.7842ZM10.7685 0.637626C12.5957 0.750942 15.5206 2.31173 17.2501 4.04352C17.9193 4.7135 18.8875 5.54775 19.3665 6.2624C18.4297 5.4947 17.3983 5.27584 16.7178 5.1551L14.0648 2.75688L12.0196 5.54365C11.0192 5.89846 10.9352 2.26412 10.7685 0.637626ZM36.0245 3.8528C35.0707 3.8528 34.2607 3.99592 33.595 4.28405C32.9392 4.57226 32.4484 4.96576 32.1205 5.46252C31.7926 5.94945 31.628 6.49456 31.628 7.10071C31.628 7.7962 31.8069 8.35287 32.1646 8.77021C32.5322 9.18754 32.9701 9.49094 33.4768 9.67968C33.9836 9.86849 34.6333 10.0573 35.4282 10.2461C35.9449 10.3654 36.3527 10.4741 36.6507 10.5735C36.9588 10.6728 37.2077 10.8074 37.3965 10.9763C37.5952 11.1353 37.694 11.3385 37.694 11.5869C37.694 11.9247 37.5308 12.198 37.203 12.4067C36.8751 12.6055 36.3671 12.7056 35.6815 12.7056C35.0654 12.7056 34.4501 12.6055 33.8341 12.4067C33.218 12.208 32.6857 11.9447 32.2386 11.6168L31.4188 13.4357C31.8858 13.7934 32.5025 14.0868 33.2676 14.3153C34.0426 14.5339 34.8425 14.6426 35.6673 14.6426C36.6211 14.6426 37.4311 14.4982 38.0968 14.21C38.7625 13.9218 39.2591 13.5354 39.5869 13.0486C39.9248 12.5517 40.0936 12.0051 40.0936 11.409C40.0936 10.7134 39.9104 10.161 39.5428 9.75369C39.1851 9.34627 38.753 9.04869 38.2462 8.85988C37.7395 8.67114 37.0884 8.48222 36.2935 8.29341C35.5284 8.1245 34.956 7.95564 34.5785 7.78673C34.2108 7.6079 34.0277 7.34023 34.0277 6.98258C34.0277 6.62485 34.1865 6.33584 34.5044 6.11723C34.8324 5.89861 35.3346 5.78988 36.0103 5.78988C36.9741 5.78988 37.9371 6.06322 38.9009 6.60968L39.6467 4.7765C39.1698 4.47839 38.6132 4.24949 37.9772 4.09049C37.3414 3.93155 36.6903 3.8528 36.0245 3.8528ZM134.586 3.8528C133.503 3.8528 132.524 4.08602 131.65 4.55305C130.786 5.02001 130.104 5.66537 129.608 6.49013C129.121 7.30483 128.877 8.22353 128.877 9.24701C128.877 10.2704 129.121 11.1948 129.608 12.0195C130.104 12.8342 130.786 13.4754 131.65 13.9424C132.524 14.4094 133.503 14.6426 134.586 14.6426C135.669 14.6426 136.642 14.4094 137.507 13.9424C138.371 13.4754 139.052 12.8342 139.549 12.0195C140.046 11.1948 140.295 10.2704 140.295 9.24701C140.295 8.22353 140.046 7.30483 139.549 6.49013C139.052 5.66537 138.371 5.02001 137.507 4.55305C136.642 4.08602 135.669 3.8528 134.586 3.8528ZM145.898 3.8528C144.945 3.8528 144.135 3.99592 143.469 4.28405C142.813 4.57226 142.321 4.96576 141.993 5.46252C141.665 5.94945 141.502 6.49456 141.502 7.10071C141.502 7.7962 141.681 8.35287 142.038 8.77021C142.406 9.18754 142.843 9.49094 143.349 9.67968C143.856 9.86849 144.507 10.0573 145.302 10.2461C145.819 10.3654 146.227 10.4741 146.525 10.5735C146.833 10.6728 147.08 10.8074 147.269 10.9763C147.468 11.1353 147.568 11.3385 147.568 11.5869C147.568 11.9247 147.403 12.198 147.075 12.4067C146.748 12.6055 146.241 12.7056 145.555 12.7056C144.939 12.7056 144.324 12.6055 143.708 12.4067C143.092 12.208 142.56 11.9447 142.112 11.6168L141.293 13.4357C141.76 13.7934 142.376 14.0868 143.141 14.3153C143.916 14.5339 144.716 14.6426 145.541 14.6426C146.495 14.6426 147.305 14.4982 147.971 14.21C148.636 13.9218 149.133 13.5354 149.461 13.0486C149.799 12.5517 149.967 12.0051 149.967 11.409C149.967 10.7134 149.783 10.161 149.415 9.75369C149.058 9.34627 148.625 9.04869 148.119 8.85988C147.612 8.67114 146.962 8.48222 146.167 8.29341C145.402 8.1245 144.83 7.95564 144.452 7.78673C144.085 7.6079 143.902 7.34023 143.902 6.98258C143.902 6.62485 144.06 6.33584 144.378 6.11723C144.706 5.89861 145.208 5.78988 145.884 5.78988C146.848 5.78988 147.811 6.06322 148.775 6.60968L149.521 4.7765C149.044 4.47839 148.487 4.24949 147.851 4.09049C147.215 3.93155 146.564 3.8528 145.898 3.8528ZM214.547 3.8528C213.593 3.8528 212.783 3.99592 212.118 4.28405C211.462 4.57226 210.969 4.96576 210.642 5.46252C210.314 5.94945 210.151 6.49456 210.151 7.10071C210.151 7.7962 210.329 8.35287 210.687 8.77021C211.055 9.18754 211.491 9.49094 211.998 9.67968C212.505 9.86849 213.156 10.0573 213.951 10.2461C214.467 10.3654 214.875 10.4741 215.173 10.5735C215.481 10.6728 215.729 10.8074 215.918 10.9763C216.116 11.1353 216.217 11.3385 216.217 11.5869C216.217 11.9247 216.052 12.198 215.724 12.4067C215.396 12.6055 214.89 12.7056 214.204 12.7056C213.588 12.7056 212.973 12.6055 212.357 12.4067C211.741 12.208 211.208 11.9447 210.761 11.6168L209.941 13.4357C210.408 13.7934 211.025 14.0868 211.79 14.3153C212.565 14.5339 213.365 14.6426 214.19 14.6426C215.144 14.6426 215.954 14.4982 216.619 14.21C217.285 13.9218 217.782 13.5354 218.11 13.0486C218.447 12.5517 218.616 12.0051 218.616 11.409C218.616 10.7134 218.432 10.161 218.064 9.75369C217.706 9.34627 217.274 9.04869 216.767 8.85988C216.261 8.67114 215.61 8.48222 214.815 8.29341C214.05 8.1245 213.479 7.95564 213.101 7.78673C212.733 7.6079 212.55 7.34023 212.55 6.98258C212.55 6.62485 212.709 6.33584 213.027 6.11723C213.355 5.89861 213.857 5.78988 214.533 5.78988C215.497 5.78988 216.46 6.06322 217.424 6.60968L218.169 4.7765C217.692 4.47839 217.136 4.24949 216.5 4.09049C215.864 3.93155 215.213 3.8528 214.547 3.8528ZM41.7475 4.03071V14.4633H44.1628V4.03071H41.7475ZM46.6364 4.03071V14.4633H54.7149V12.5262H49.0361V10.1124H53.8795V8.23364H49.0361V5.96921H54.5214V4.03071H46.6364ZM56.6378 4.03071V14.4633H59.0516V11.557H61.1538H61.2719L63.2844 14.4633H65.8777L63.5378 11.1101C64.2234 10.812 64.75 10.3856 65.1176 9.82913C65.4952 9.26277 65.6841 8.59161 65.6841 7.81662C65.6841 7.04163 65.5009 6.37047 65.1333 5.80411C64.7656 5.23775 64.239 4.8013 63.5534 4.49327C62.8778 4.18525 62.0779 4.03071 61.1538 4.03071H56.6378ZM67.5913 4.03071V14.4633H70.0066V11.557H72.1073H72.2269L74.2394 14.4633H76.8326L74.4927 11.1101C75.1783 10.812 75.705 10.3856 76.0726 9.82913C76.4501 9.26277 76.639 8.59161 76.639 7.81662C76.639 7.04163 76.4544 6.37047 76.0868 5.80411C75.7191 5.23775 75.1925 4.8013 74.507 4.49327C73.8313 4.18525 73.0314 4.03071 72.1073 4.03071H67.5913ZM81.8254 4.03071L77.1756 14.4633H79.6493L80.573 12.2288H85.4178L86.3415 14.4633H88.8749L84.2094 4.03071H81.8254ZM94.1809 4.03071V14.4633H98.9204C100.053 14.4633 101.052 14.25 101.916 13.8228C102.791 13.3856 103.466 12.7746 103.943 11.9897C104.43 11.2047 104.673 10.2902 104.673 9.24701C104.673 8.20363 104.43 7.29068 103.943 6.50578C103.466 5.72081 102.791 5.11408 101.916 4.68684C101.052 4.24961 100.053 4.03071 98.9204 4.03071H94.1809ZM106.492 4.03071V14.4633H114.569V12.5262H108.892V10.1124H113.735V8.23364H108.892V5.96921H114.376V4.03071H106.492ZM120.711 4.03071V14.4633H128.357V12.4963H123.125V4.03071H120.711ZM155.84 4.03071V14.4633H158.254V11.5869H160.356C161.28 11.5869 162.08 11.438 162.756 11.14C163.441 10.8319 163.968 10.3955 164.335 9.82913C164.703 9.25286 164.886 8.5817 164.886 7.81662C164.886 7.04163 164.703 6.37047 164.335 5.80411C163.968 5.23775 163.441 4.8013 162.756 4.49327C162.08 4.18525 161.28 4.03071 160.356 4.03071H155.84ZM169.358 4.03071L164.707 14.4633H167.182L168.106 12.2288H172.949L173.874 14.4633H176.408L171.742 4.03071H169.358ZM177.495 4.03071V14.4633H182.235C183.367 14.4633 184.366 14.25 185.231 13.8228C186.105 13.3856 186.78 12.7746 187.257 11.9897C187.744 11.2047 187.987 10.2902 187.987 9.24701C187.987 8.20363 187.744 7.29068 187.257 6.50578C186.78 5.72081 186.105 5.11408 185.231 4.68684C184.366 4.24961 183.367 4.03071 182.235 4.03071H177.495ZM189.806 4.03071V14.4633H192.22V11.557H194.322H194.442L196.453 14.4633H199.046L196.706 11.1101C197.392 10.812 197.919 10.3856 198.286 9.82913C198.664 9.26277 198.853 8.59161 198.853 7.81662C198.853 7.04163 198.669 6.37047 198.302 5.80411C197.934 5.23775 197.408 4.8013 196.722 4.49327C196.046 4.18525 195.246 4.03071 194.322 4.03071H189.806ZM200.761 4.03071V14.4633H208.838V12.5262H203.161V10.1124H208.004V8.23364H203.161V5.96921H208.645V4.03071H200.761ZM134.586 5.90943C135.202 5.90943 135.759 6.05255 136.256 6.34068C136.752 6.61891 137.14 7.0124 137.418 7.51915C137.707 8.02583 137.85 8.60107 137.85 9.24701C137.85 9.89279 137.707 10.4695 137.418 10.9763C137.14 11.483 136.752 11.8809 136.256 12.169C135.759 12.4472 135.202 12.586 134.586 12.586C133.97 12.586 133.413 12.4472 132.917 12.169C132.42 11.8809 132.028 11.483 131.74 10.9763C131.461 10.4695 131.323 9.89279 131.323 9.24701C131.323 8.60107 131.461 8.02583 131.74 7.51915C132.028 7.0124 132.42 6.61891 132.917 6.34068C133.413 6.05255 133.97 5.90943 134.586 5.90943ZM59.0516 5.9991H61.02C61.7454 5.9991 62.2963 6.15795 62.6739 6.47589C63.0514 6.78392 63.2403 7.23036 63.2403 7.81662C63.2403 8.39296 63.0514 8.84082 62.6739 9.15876C62.2963 9.4767 61.7454 9.63556 61.02 9.63556H59.0516V5.9991ZM70.0066 5.9991H71.9735C72.6989 5.9991 73.2512 6.15795 73.6288 6.47589C74.0064 6.78392 74.1953 7.23036 74.1953 7.81662C74.1953 8.39296 74.0064 8.84082 73.6288 9.15876C73.2512 9.4767 72.6989 9.63556 71.9735 9.63556H70.0066V5.9991ZM158.254 5.9991H160.221C160.946 5.9991 161.498 6.15795 161.876 6.47589C162.254 6.78392 162.442 7.23036 162.442 7.81662C162.442 8.39296 162.254 8.84082 161.876 9.15876C161.498 9.46679 160.946 9.6199 160.221 9.6199H158.254V5.9991ZM192.22 5.9991H194.189C194.914 5.9991 195.465 6.15795 195.842 6.47589C196.22 6.78392 196.409 7.23036 196.409 7.81662C196.409 8.39296 196.22 8.84082 195.842 9.15876C195.465 9.4767 194.914 9.63556 194.189 9.63556H192.22L192.22 5.9991ZM96.5947 6.0136H98.8008C99.8441 6.0136 100.674 6.30693 101.29 6.89318C101.916 7.46952 102.229 8.2536 102.229 9.24727C102.229 10.2408 101.916 11.0308 101.29 11.617C100.674 12.1933 99.8441 12.4824 98.8008 12.4824H96.5947V6.0136ZM179.91 6.0136H182.115C183.158 6.0136 183.988 6.30693 184.604 6.89318C185.23 7.46952 185.544 8.2536 185.544 9.24727C185.544 10.2408 185.23 11.0308 184.604 11.617C183.988 12.1933 183.158 12.4824 182.115 12.4824H179.91V6.0136ZM83.0025 6.40073L84.6578 10.3959H81.3486L83.0025 6.40073ZM170.535 6.40073L172.189 10.3959H168.88L170.535 6.40073ZM17.6017 10.0258C17.539 10.0258 17.4762 10.0259 17.4124 10.0258C16.0943 10.0681 15.085 10.5124 14.3865 11.3594C13.6869 12.1735 13.0156 13.333 12.3711 14.838L12.3241 14.9389C11.7095 16.344 11.1997 17.4323 10.7955 18.2039C10.3915 18.9755 9.9199 19.699 9.38079 20.3759C8.80875 21.054 8.11822 21.6036 7.30709 22.0254C6.49493 22.4143 5.54508 22.6268 4.45769 22.6616C2.75352 22.7163 1.26702 22.2261 0 21.1914C1.20318 23.031 2.85895 24.5306 4.80844 25.5462C6.75793 26.5619 8.93572 27.0594 11.1328 26.9912C13.0639 26.9269 14.9555 26.4272 16.6664 25.5294C18.3772 24.6316 19.8632 23.3589 21.0132 21.8063C20.801 21.9595 20.5877 22.0922 20.3742 22.2019C19.7575 22.5185 19.2355 22.6835 18.8071 22.6972C18.1481 22.7183 17.6309 22.536 17.2558 22.1522C16.8467 21.7365 16.6336 21.266 16.6167 20.7388C16.6021 20.2774 16.7213 19.8938 16.9754 19.5888C17.1955 19.2519 17.4828 18.9629 17.8379 18.7206C18.0962 18.5474 18.4693 18.3211 18.9552 18.0417C19.6653 17.5572 20.2403 16.9945 20.6816 16.3537C21.1228 15.7128 21.3252 14.8311 21.2893 13.7107C21.25 12.4914 20.8583 11.564 20.1123 10.9282C19.382 10.3331 18.545 10.0314 17.6016 10.023L17.6017 10.0258ZM35.4965 20.0471C34.9466 20.0471 34.4486 20.171 34.0034 20.4171C33.5583 20.658 33.2101 20.9925 32.9588 21.422C32.7074 21.8461 32.5816 22.3253 32.5816 22.8595C32.5816 23.3937 32.7074 23.8761 32.9588 24.3055C33.2101 24.7297 33.5564 25.0642 33.9963 25.3103C34.4415 25.5512 34.9395 25.6718 35.4894 25.6718C35.9188 25.6718 36.3103 25.599 36.6664 25.4528C37.0277 25.3061 37.3345 25.0907 37.5858 24.8079L37.0749 24.3126C36.6559 24.7525 36.1405 24.9731 35.5278 24.9731C35.1193 24.9731 34.7504 24.8816 34.4205 24.6983C34.0906 24.5151 33.8305 24.2635 33.6419 23.944C33.4587 23.6193 33.3673 23.2575 33.3673 22.8595C33.3673 22.4615 33.4587 22.1029 33.6419 21.7835C33.8305 21.4588 34.0906 21.2053 34.4205 21.022C34.7504 20.8387 35.1193 20.7473 35.5278 20.7473C36.1457 20.7473 36.6612 20.9646 37.0749 21.3993L37.5858 20.9039C37.3345 20.6211 37.0311 20.4091 36.6749 20.2677C36.3188 20.1211 35.9259 20.0471 35.4965 20.0471ZM41.0743 20.0471C40.5192 20.0471 40.0193 20.171 39.5742 20.4171C39.129 20.658 38.7775 20.9925 38.5209 21.422C38.2695 21.8514 38.1437 22.3306 38.1437 22.8595C38.1437 23.3884 38.2695 23.8675 38.5209 24.297C38.7775 24.7264 39.129 25.0642 39.5742 25.3103C40.0193 25.5512 40.5192 25.6718 41.0743 25.6718C41.6242 25.6718 42.1207 25.5512 42.5659 25.3103C43.011 25.0642 43.3592 24.7297 43.6106 24.3055C43.8619 23.8761 43.9877 23.3937 43.9877 22.8595C43.9877 22.3253 43.8619 21.8461 43.6106 21.422C43.3592 20.9925 43.011 20.658 42.5659 20.4171C42.1207 20.171 41.6242 20.0471 41.0743 20.0471ZM47.6726 20.0471C47.1175 20.0471 46.6176 20.171 46.1724 20.4171C45.7273 20.658 45.3758 20.9925 45.1192 21.422C44.8679 21.8514 44.7421 22.3306 44.7421 22.8595C44.7421 23.3884 44.8679 23.8675 45.1192 24.297C45.3758 24.7264 45.7273 25.0642 46.1724 25.3103C46.6176 25.5512 47.1175 25.6718 47.6726 25.6718C48.2225 25.6718 48.7204 25.5512 49.1656 25.3103C49.6107 25.0642 49.9589 24.7297 50.2103 24.3055C50.4616 23.8761 50.5874 23.3937 50.5874 22.8595C50.5874 22.3253 50.4616 21.8461 50.2103 21.422C49.9589 20.9925 49.6107 20.658 49.1656 20.4171C48.7204 20.171 48.2225 20.0471 47.6726 20.0471ZM109.589 20.0471C109.123 20.0471 108.732 20.1193 108.418 20.2607C108.104 20.402 107.868 20.59 107.711 20.8257C107.559 21.0614 107.483 21.3251 107.483 21.6184C107.483 21.9692 107.572 22.2501 107.75 22.4595C107.934 22.6638 108.151 22.8155 108.402 22.915C108.659 23.0145 108.995 23.1144 109.408 23.2139C109.738 23.2924 109.992 23.3631 110.17 23.4259C110.353 23.4886 110.505 23.5802 110.625 23.7007C110.751 23.8159 110.815 23.9676 110.815 24.1561C110.815 24.4128 110.701 24.6196 110.476 24.7766C110.251 24.9285 109.911 25.0043 109.455 25.0043C109.11 25.0043 108.772 24.9475 108.442 24.8321C108.117 24.7117 107.85 24.5566 107.641 24.3681L107.35 24.9816C107.57 25.1857 107.87 25.3531 108.253 25.484C108.64 25.6097 109.042 25.6718 109.455 25.6718C109.922 25.6718 110.314 25.6048 110.634 25.4683C110.953 25.3269 111.191 25.1375 111.348 24.9019C111.506 24.661 111.583 24.3972 111.583 24.1091C111.583 23.7635 111.492 23.4879 111.309 23.2836C111.13 23.0793 110.917 22.9276 110.665 22.8281C110.414 22.7286 110.081 22.6302 109.668 22.5307C109.348 22.4574 109.093 22.3885 108.905 22.3257C108.721 22.258 108.568 22.1662 108.442 22.051C108.316 21.9306 108.253 21.7756 108.253 21.5871C108.253 21.3304 108.363 21.1217 108.583 20.9594C108.808 20.797 109.144 20.7161 109.589 20.7161C109.841 20.7161 110.096 20.7539 110.358 20.8327C110.62 20.906 110.866 21.0163 111.096 21.1629L111.356 20.5353C111.13 20.3781 110.861 20.2575 110.547 20.1737C110.233 20.0899 109.914 20.0471 109.589 20.0471ZM134.082 20.0471C133.532 20.0471 133.034 20.171 132.589 20.4171C132.144 20.658 131.796 20.9925 131.545 21.422C131.293 21.8461 131.167 22.3253 131.167 22.8595C131.167 23.3937 131.293 23.8761 131.545 24.3055C131.796 24.7297 132.141 25.0642 132.581 25.3103C133.026 25.5512 133.524 25.6718 134.074 25.6718C134.503 25.6718 134.896 25.599 135.252 25.4528C135.614 25.3061 135.92 25.0907 136.172 24.8079L135.661 24.3126C135.242 24.7525 134.726 24.9731 134.114 24.9731C133.705 24.9731 133.335 24.8816 133.005 24.6983C132.675 24.5151 132.416 24.2635 132.228 23.944C132.045 23.6193 131.953 23.2575 131.953 22.8595C131.953 22.4615 132.045 22.1029 132.228 21.7835C132.416 21.4588 132.675 21.2053 133.005 21.022C133.335 20.8387 133.705 20.7473 134.114 20.7473C134.732 20.7473 135.247 20.9646 135.661 21.3993L136.172 20.9039C135.92 20.6211 135.616 20.4091 135.259 20.2677C134.903 20.1211 134.512 20.0471 134.082 20.0471ZM142.212 20.0471C141.657 20.0471 141.157 20.171 140.712 20.4171C140.267 20.658 139.915 20.9925 139.659 21.422C139.407 21.8514 139.282 22.3306 139.282 22.8595C139.282 23.3884 139.407 23.8675 139.659 24.297C139.915 24.7264 140.267 25.0642 140.712 25.3103C141.157 25.5512 141.657 25.6718 142.212 25.6718C142.762 25.6718 143.26 25.5512 143.705 25.3103C144.15 25.0642 144.498 24.7297 144.75 24.3055C145.001 23.8761 145.127 23.3937 145.127 22.8595C145.127 22.3253 145.001 21.8461 144.75 21.422C144.498 20.9925 144.15 20.658 143.705 20.4171C143.26 20.171 142.762 20.0471 142.212 20.0471ZM148.065 20.0471C147.598 20.0471 147.207 20.1193 146.893 20.2607C146.579 20.402 146.344 20.59 146.187 20.8257C146.035 21.0614 145.96 21.3251 145.96 21.6184C145.96 21.9692 146.048 22.2501 146.226 22.4595C146.409 22.6638 146.626 22.8155 146.878 22.915C147.134 23.0145 147.47 23.1144 147.884 23.2139C148.214 23.2924 148.467 23.3631 148.645 23.4259C148.829 23.4886 148.98 23.5802 149.101 23.7007C149.226 23.8159 149.29 23.9676 149.29 24.1561C149.29 24.4128 149.178 24.6196 148.953 24.7766C148.728 24.9285 148.386 25.0043 147.931 25.0043C147.585 25.0043 147.247 24.9475 146.917 24.8321C146.593 24.7117 146.326 24.5566 146.116 24.3681L145.826 24.9816C146.046 25.1857 146.347 25.3531 146.73 25.484C147.117 25.6097 147.517 25.6718 147.931 25.6718C148.397 25.6718 148.79 25.6048 149.109 25.4683C149.429 25.3269 149.667 25.1375 149.824 24.9019C149.981 24.661 150.06 24.3972 150.06 24.1091C150.06 23.7635 149.969 23.4879 149.785 23.2836C149.607 23.0793 149.392 22.9276 149.141 22.8281C148.889 22.7286 148.557 22.6302 148.143 22.5307C147.823 22.4574 147.57 22.3885 147.381 22.3257C147.198 22.258 147.043 22.1662 146.917 22.051C146.792 21.9306 146.73 21.7756 146.73 21.5871C146.73 21.3304 146.838 21.1217 147.058 20.9594C147.284 20.797 147.619 20.7161 148.065 20.7161C148.316 20.7161 148.573 20.7539 148.835 20.8327C149.096 20.906 149.343 21.0163 149.573 21.1629L149.832 20.5353C149.607 20.3781 149.337 20.2575 149.022 20.1737C148.708 20.0899 148.389 20.0471 148.065 20.0471ZM62.6454 20.1098V25.6093H63.4296V23.9355H64.7889C64.8726 23.9355 64.988 23.9283 65.1347 23.9195L66.3217 25.609H67.1771L65.8734 23.763C66.2609 23.6268 66.5591 23.4096 66.7686 23.1111C66.9781 22.8126 67.0832 22.4508 67.0832 22.0266C67.0832 21.4295 66.8783 20.9608 66.4697 20.6204C66.0613 20.28 65.5011 20.1094 64.7889 20.1094L62.6454 20.1098ZM117.994 20.1098V25.6093H118.779V23.9355H120.139C120.222 23.9355 120.338 23.9283 120.484 23.9195L121.67 25.609H122.527L121.223 23.763C121.611 23.6268 121.909 23.4096 122.118 23.1111C122.328 22.8126 122.433 22.4508 122.433 22.0266C122.433 21.4295 122.228 20.9608 121.819 20.6204C121.411 20.28 120.851 20.1094 120.139 20.1094L117.994 20.1098ZM51.7887 20.1098V25.6079H52.5743V23.9426H53.9335C54.6458 23.9426 55.206 23.7721 55.6144 23.4317C56.0229 23.0912 56.2264 22.6225 56.2264 22.0255C56.2264 21.4285 56.0229 20.9597 55.6144 20.6193C55.206 20.2789 54.6458 20.1098 53.9335 20.1098H51.7887ZM57.3821 20.1098V25.6079H61.3716V24.9247H58.1678V23.1499H60.9247V22.481H58.1678V20.793H61.262V20.1098H57.3821ZM70.0137 20.1098L67.523 25.6079H68.3314L68.9363 24.233H71.8597L72.4646 25.6079H73.2887L70.7908 20.1098H70.0137ZM73.0382 20.1098V20.793H74.9226V25.6079H75.7011V20.793H77.5855V20.1098H73.0382ZM78.4423 20.1098V25.6079H79.228V20.1098H78.4423ZM79.9894 20.1098L82.409 25.6079H83.1861L85.5985 20.1098H84.8129L82.8175 24.6258L80.8377 20.1098H79.9894ZM87.7818 20.1098L85.2925 25.6079H86.101L86.7058 24.233H89.6278L90.2327 25.6079H91.0582L88.5604 20.1098H87.7818ZM93.9873 20.1098V25.6079H96.3058C96.8871 25.6079 97.4026 25.4925 97.8529 25.262C98.3033 25.0316 98.6515 24.7094 98.8976 24.2956C99.149 23.8767 99.2748 23.3975 99.2748 22.8581C99.2748 22.3187 99.149 21.8428 98.8976 21.4291C98.6515 21.0101 98.3033 20.6845 97.8529 20.4541C97.4026 20.2237 96.8871 20.1098 96.3058 20.1098H93.9873ZM100.476 20.1098V25.6079H104.467V24.9247H101.262V23.1499H104.019V22.481H101.262V20.793H104.357V20.1098H100.476ZM112.73 20.1098V25.6079H116.721V24.9247H113.516V23.1499H116.273V22.481H113.516V20.793H116.612V20.1098H112.73ZM122.873 20.1098L125.292 25.6079H126.069L128.48 20.1098H127.695L125.701 24.6258L123.721 20.1098H122.873ZM129.181 20.1098V25.6079H129.965V20.1098H129.181ZM137.295 20.1098V25.6079H138.08V20.1098H137.295ZM41.0743 20.7459C41.4776 20.7459 41.838 20.8374 42.1574 21.0207C42.4821 21.204 42.737 21.4575 42.9203 21.7821C43.1088 22.1016 43.2021 22.4601 43.2021 22.8581C43.2021 23.2561 43.1088 23.6179 42.9203 23.9426C42.737 24.2621 42.4821 24.5137 42.1574 24.697C41.838 24.8803 41.4776 24.9717 41.0743 24.9717C40.6711 24.9717 40.304 24.8803 39.9741 24.697C39.6494 24.5137 39.3926 24.2621 39.2041 23.9426C39.0208 23.6179 38.9294 23.2561 38.9294 22.8581C38.9294 22.4601 39.0208 22.1016 39.2041 21.7821C39.3926 21.4575 39.6494 21.204 39.9741 21.0207C40.304 20.8374 40.6711 20.7459 41.0743 20.7459ZM47.6726 20.7459C48.0758 20.7459 48.4377 20.8374 48.7571 21.0207C49.0818 21.204 49.3353 21.4575 49.5186 21.7821C49.7071 22.1016 49.8018 22.4601 49.8018 22.8581C49.8018 23.2561 49.7071 23.6179 49.5186 23.9426C49.3353 24.2621 49.0818 24.5137 48.7571 24.697C48.4377 24.8803 48.0758 24.9717 47.6726 24.9717C47.2693 24.9717 46.9023 24.8803 46.5724 24.697C46.2477 24.5137 45.9909 24.2621 45.8024 23.9426C45.6191 23.6179 45.5277 23.2561 45.5277 22.8581C45.5277 22.4601 45.6191 22.1016 45.8024 21.7821C45.9909 21.4575 46.2477 21.204 46.5724 21.0207C46.9023 20.8374 47.2693 20.7459 47.6726 20.7459ZM142.212 20.7459C142.615 20.7459 142.977 20.8374 143.297 21.0207C143.621 21.204 143.875 21.4575 144.058 21.7821C144.247 22.1016 144.341 22.4601 144.341 22.8581C144.341 23.2561 144.247 23.6179 144.058 23.9426C143.875 24.2621 143.621 24.5137 143.297 24.697C142.977 24.8803 142.615 24.9717 142.212 24.9717C141.809 24.9717 141.442 24.8803 141.112 24.697C140.787 24.5137 140.53 24.2621 140.342 23.9426C140.159 23.6179 140.067 23.2561 140.067 22.8581C140.067 22.4601 140.159 22.1016 140.342 21.7821C140.53 21.4575 140.787 21.204 141.112 21.0207C141.442 20.8374 141.809 20.7459 142.212 20.7459ZM52.5743 20.7926H53.9094C54.4069 20.7926 54.7876 20.8995 55.0494 21.1143C55.3112 21.3238 55.4422 21.6272 55.4422 22.0252C55.4422 22.4232 55.3112 22.7298 55.0494 22.9446C54.7876 23.154 54.4069 23.2591 53.9094 23.2591H52.5743V20.7926ZM63.4296 20.7926H64.7661C65.2636 20.7926 65.6429 20.8995 65.9047 21.1143C66.1666 21.3238 66.2975 21.6272 66.2975 22.0252C66.2975 22.4232 66.1666 22.7298 65.9047 22.9446C65.6429 23.1593 65.2636 23.2662 64.7661 23.2662H63.4296V20.7926ZM94.773 20.7926H96.2574C96.7026 20.7926 97.0936 20.8788 97.4288 21.0516C97.7692 21.2245 98.0311 21.4676 98.2144 21.7818C98.3977 22.0908 98.4891 22.4492 98.4891 22.8578C98.4891 23.2662 98.3977 23.6281 98.2144 23.9422C98.0311 24.2512 97.7692 24.4925 97.4288 24.6652C97.0936 24.8381 96.7026 24.9244 96.2574 24.9244H94.773V20.7926ZM118.779 20.7926H120.114C120.612 20.7926 120.993 20.8995 121.254 21.1143C121.516 21.3238 121.647 21.6272 121.647 22.0252C121.647 22.4232 121.516 22.7298 121.254 22.9446C120.993 23.1593 120.612 23.2662 120.114 23.2662H118.779V20.7926ZM70.398 20.9107L71.5836 23.605H69.2124L70.398 20.9107ZM88.1675 20.9107L89.3531 23.605H86.9805L88.1675 20.9107Z" fill="white"/>
</g>
<defs>
<clipPath id="clip0_306_47">
<rect width="218.616" height="27" fill="white"/>
</clipPath>
</defs>
</svg>
