<svg width="276" height="54" viewBox="0 0 276 54" fill="none" xmlns="http://www.w3.org/2000/svg">
<path d="M60.3381 14.5028C59.2167 14.5028 58.2646 14.672 57.4819 15.0108C56.711 15.3495 56.1326 15.811 55.7471 16.3951C55.3616 16.9675 55.1689 17.6102 55.1689 18.3228C55.1689 19.1405 55.379 19.7946 55.7996 20.2852C56.2318 20.7759 56.7458 21.1321 57.3416 21.354C57.9373 21.576 58.7024 21.7978 59.6369 22.0198C60.2444 22.16 60.7236 22.2883 61.074 22.4051C61.4361 22.522 61.728 22.6798 61.95 22.8784C62.1836 23.0653 62.3006 23.3049 62.3006 23.5969C62.3006 23.9941 62.1076 24.3151 61.7221 24.5605C61.3366 24.7941 60.741 24.911 59.935 24.911C59.2108 24.911 58.4863 24.7941 57.762 24.5605C57.0378 24.3268 56.4131 24.0175 55.8874 23.632L54.9236 25.7696C55.4726 26.1901 56.1968 26.5347 57.0963 26.8033C58.0074 27.0603 58.9478 27.189 59.9173 27.189C61.0388 27.189 61.9908 27.0194 62.7735 26.6807C63.5561 26.3419 64.1402 25.8865 64.5257 25.3141C64.9229 24.73 65.1216 24.0876 65.1216 23.3867C65.1216 22.569 64.9055 21.9205 64.4732 21.4416C64.0527 20.9627 63.5444 20.6121 62.9486 20.3902C62.3529 20.1682 61.5878 19.9464 60.6533 19.7244C59.7538 19.5258 59.0822 19.3271 58.6383 19.1286C58.2061 18.9183 57.9899 18.6029 57.9899 18.1824C57.9899 17.7619 58.1769 17.4231 58.5507 17.1661C58.9362 16.9091 59.526 16.7807 60.3204 16.7807C61.4535 16.7807 62.5865 17.1018 63.7196 17.7443L64.5959 15.5893C64.0352 15.2388 63.3811 14.9701 62.6334 14.7832C61.8858 14.5963 61.1207 14.5028 60.3381 14.5028ZM176.212 14.5028C174.939 14.5028 173.788 14.7772 172.76 15.3263C171.744 15.8753 170.944 16.6347 170.36 17.6042C169.787 18.5621 169.501 19.6425 169.501 20.8457C169.501 22.0489 169.787 23.1354 170.36 24.1049C170.944 25.0628 171.744 25.8161 172.76 26.3652C173.788 26.9142 174.939 27.189 176.212 27.189C177.485 27.189 178.63 26.9142 179.646 26.3652C180.663 25.8161 181.463 25.0628 182.047 24.1049C182.631 23.1354 182.923 22.0489 182.923 20.8457C182.923 19.6425 182.631 18.5621 182.047 17.6042C181.463 16.6347 180.663 15.8753 179.646 15.3263C178.63 14.7772 177.485 14.5028 176.212 14.5028ZM189.511 14.5028C188.39 14.5028 187.438 14.672 186.655 15.0108C185.884 15.3495 185.306 15.811 184.921 16.3951C184.535 16.9675 184.342 17.6102 184.342 18.3228C184.342 19.1405 184.553 19.7946 184.973 20.2852C185.405 20.7759 185.919 21.1321 186.515 21.354C187.111 21.576 187.876 21.7978 188.81 22.0198C189.418 22.16 189.897 22.2883 190.247 22.4051C190.609 22.522 190.902 22.6798 191.124 22.8784C191.357 23.0653 191.474 23.3049 191.474 23.5969C191.474 23.9941 191.281 24.3151 190.896 24.5605C190.51 24.7941 189.914 24.911 189.108 24.911C188.384 24.911 187.66 24.7941 186.936 24.5605C186.211 24.3268 185.586 24.0175 185.061 23.632L184.097 25.7696C184.646 26.1901 185.37 26.5347 186.27 26.8033C187.181 27.0603 188.121 27.189 189.091 27.189C190.212 27.189 191.164 27.0194 191.947 26.6807C192.73 26.3419 193.314 25.8865 193.699 25.3141C194.096 24.73 194.295 24.0876 194.295 23.3867C194.295 22.569 194.079 21.9205 193.647 21.4416C193.226 20.9627 192.718 20.6121 192.122 20.3902C191.526 20.1682 190.761 19.9464 189.827 19.7244C188.927 19.5258 188.256 19.3271 187.812 19.1286C187.38 18.9183 187.163 18.6029 187.163 18.1824C187.163 17.7619 187.35 17.4231 187.724 17.1661C188.11 16.9091 188.7 16.7807 189.494 16.7807C190.627 16.7807 191.76 17.1018 192.893 17.7443L193.769 15.5893C193.209 15.2388 192.555 14.9701 191.807 14.7832C191.059 14.5963 190.294 14.5028 189.511 14.5028ZM270.219 14.5028C269.097 14.5028 268.145 14.672 267.362 15.0108C266.592 15.3495 266.013 15.811 265.628 16.3951C265.242 16.9675 265.049 17.6102 265.049 18.3228C265.049 19.1405 265.26 19.7946 265.68 20.2852C266.113 20.7759 266.626 21.1321 267.222 21.354C267.818 21.576 268.583 21.7978 269.518 22.0198C270.125 22.16 270.604 22.2883 270.955 22.4051C271.317 22.522 271.609 22.6798 271.831 22.8784C272.064 23.0653 272.181 23.3049 272.181 23.5969C272.181 23.9941 271.988 24.3151 271.603 24.5605C271.217 24.7941 270.622 24.911 269.816 24.911C269.091 24.911 268.367 24.7941 267.643 24.5605C266.919 24.3268 266.294 24.0175 265.768 23.632L264.804 25.7696C265.353 26.1901 266.077 26.5347 266.977 26.8033C267.888 27.0603 268.828 27.189 269.798 27.189C270.919 27.189 271.871 27.0194 272.654 26.6807C273.437 26.3419 274.021 25.8865 274.406 25.3141C274.803 24.73 275.002 24.0876 275.002 23.3867C275.002 22.569 274.786 21.9205 274.354 21.4416C273.933 20.9627 273.425 20.6121 272.829 20.3902C272.234 20.1682 271.468 19.9464 270.534 19.7244C269.634 19.5258 268.963 19.3271 268.519 19.1286C268.087 18.9183 267.87 18.6029 267.87 18.1824C267.87 17.7619 268.057 17.4231 268.431 17.1661C268.817 16.9091 269.407 16.7807 270.201 16.7807C271.334 16.7807 272.467 17.1018 273.6 17.7443L274.476 15.5893C273.916 15.2388 273.262 14.9701 272.514 14.7832C271.766 14.5963 271.001 14.5028 270.219 14.5028ZM67.0664 14.713V26.9785H69.9051V14.713H67.0664ZM72.8138 14.713V26.9785H82.3106V24.7008H75.6348V21.8621H81.3294V19.6543H75.6348V16.991H82.083V14.713H72.8138ZM84.5712 14.713V26.9785H87.4096V23.5618H89.8804H90.0205L92.386 26.9785H95.435L92.6838 23.0361C93.4898 22.6857 94.1091 22.1833 94.5413 21.5292C94.9852 20.8633 95.2071 20.0748 95.2071 19.1637C95.2071 18.2525 94.9909 17.464 94.5587 16.7981C94.1265 16.1323 93.5075 15.6182 92.7015 15.2561C91.9071 14.894 90.9668 14.713 89.8804 14.713H84.5712ZM97.4499 14.713V26.9785H100.288V23.5618H102.759H102.899L105.265 26.9785H108.314L105.563 23.0361C106.369 22.6857 106.988 22.1833 107.42 21.5292C107.864 20.8633 108.086 20.0748 108.086 19.1637C108.086 18.2525 107.87 17.464 107.437 16.7981C107.005 16.1323 106.386 15.6182 105.58 15.2561C104.786 14.894 103.846 14.713 102.759 14.713H97.4499ZM114.184 14.713L108.717 26.9785H111.625L112.712 24.3502H118.406L119.493 26.9785H122.471L116.987 14.713H114.184ZM128.709 14.713V26.9785H134.281C135.613 26.9785 136.787 26.7274 137.804 26.2251C138.832 25.7112 139.626 24.9927 140.187 24.0698C140.759 23.147 141.045 22.0723 141.045 20.8457C141.045 19.6192 140.759 18.5445 140.187 17.6216C139.626 16.6988 138.832 15.9863 137.804 15.484C136.787 14.97 135.613 14.713 134.281 14.713H128.709ZM143.183 14.713V26.9785H152.68V24.7008H146.004V21.8621H151.699V19.6543H146.004V16.991H152.452V14.713H143.183ZM159.899 14.713V26.9785H168.888V24.6657H162.738V14.713H159.899ZM201.199 14.713V26.9785H204.037V23.5969H206.508C207.594 23.5969 208.535 23.4216 209.329 23.0712C210.135 22.7091 210.754 22.195 211.186 21.5292C211.619 20.8517 211.835 20.0631 211.835 19.1637C211.835 18.2525 211.619 17.464 211.186 16.7981C210.754 16.1323 210.135 15.6182 209.329 15.2561C208.535 14.894 207.594 14.713 206.508 14.713H201.199ZM217.091 14.713L211.624 26.9785H214.533L215.619 24.3502H221.314L222.4 26.9785H225.379L219.895 14.713H217.091ZM226.658 14.713V26.9785H232.23C233.562 26.9785 234.736 26.7274 235.752 26.2251C236.78 25.7112 237.575 24.9927 238.135 24.0698C238.708 23.147 238.994 22.0723 238.994 20.8457C238.994 19.6192 238.708 18.5445 238.135 17.6216C237.575 16.6988 236.78 15.9863 235.752 15.484C234.736 14.97 233.562 14.713 232.23 14.713H226.658ZM241.132 14.713V26.9785H243.97V23.5618H246.441H246.581L248.947 26.9785H251.996L249.244 23.0361C250.05 22.6857 250.67 22.1833 251.102 21.5292C251.546 20.8633 251.768 20.0748 251.768 19.1637C251.768 18.2525 251.552 17.464 251.119 16.7981C250.687 16.1323 250.068 15.6182 249.262 15.2561C248.468 14.894 247.527 14.713 246.441 14.713H241.132ZM254.011 14.713V26.9785H263.507V24.7008H256.832V21.8621H262.526V19.6543H256.832V16.991H263.28V14.713H254.011ZM176.212 16.9208C176.936 16.9208 177.591 17.0903 178.175 17.4291C178.759 17.7562 179.214 18.2176 179.541 18.8134C179.88 19.4091 180.05 20.0864 180.05 20.8457C180.05 21.605 179.88 22.2826 179.541 22.8784C179.214 23.4741 178.759 23.9413 178.175 24.2801C177.591 24.6071 176.936 24.7707 176.212 24.7707C175.488 24.7707 174.834 24.6071 174.25 24.2801C173.666 23.9413 173.204 23.4741 172.865 22.8784C172.538 22.2826 172.375 21.605 172.375 20.8457C172.375 20.0864 172.538 19.4091 172.865 18.8134C173.204 18.2176 173.666 17.7562 174.25 17.4291C174.834 17.0903 175.488 16.9208 176.212 16.9208ZM87.4096 17.026H89.7227C90.5755 17.026 91.2236 17.213 91.6675 17.5868C92.1114 17.949 92.3335 18.4745 92.3335 19.1637C92.3335 19.8412 92.1114 20.367 91.6675 20.7408C91.2236 21.1146 90.5755 21.3013 89.7227 21.3013H87.4096V17.026ZM100.288 17.026H102.601C103.454 17.026 104.103 17.213 104.547 17.5868C104.99 17.949 105.212 18.4745 105.212 19.1637C105.212 19.8412 104.99 20.367 104.547 20.7408C104.103 21.1146 103.454 21.3013 102.601 21.3013H100.288V17.026ZM204.037 17.026H206.35C207.203 17.026 207.851 17.213 208.295 17.5868C208.739 17.949 208.961 18.4745 208.961 19.1637C208.961 19.8412 208.739 20.367 208.295 20.7408C207.851 21.1029 207.203 21.2839 206.35 21.2839H204.037V17.026ZM243.97 17.026H246.283C247.136 17.026 247.784 17.213 248.228 17.5868C248.672 17.949 248.894 18.4745 248.894 19.1637C248.894 19.8412 248.672 20.367 248.228 20.7408C247.784 21.1146 247.136 21.3013 246.283 21.3013H243.97V17.026ZM131.548 17.0434H134.141C135.368 17.0434 136.343 17.3883 137.068 18.0775C137.804 18.755 138.172 19.6776 138.172 20.8457C138.172 22.0139 137.804 22.9428 137.068 23.632C136.343 24.3095 135.368 24.648 134.141 24.648H131.548V17.0434ZM229.497 17.0434H232.09C233.317 17.0434 234.292 17.3883 235.016 18.0775C235.752 18.755 236.12 19.6776 236.12 20.8457C236.12 22.0139 235.752 22.9428 235.016 23.632C234.292 24.3095 233.317 24.648 232.09 24.648H229.497V17.0434ZM115.568 17.499L117.513 22.1949H113.623L115.568 17.499ZM218.475 17.499L220.421 22.1949H216.531L218.475 17.499Z" fill="#909D7F"/>
<path d="M60.1598 34.9583C59.5072 34.9583 58.916 35.1031 58.3865 35.3925C57.8632 35.6757 57.4507 36.0696 57.149 36.5745C56.8473 37.0793 56.6965 37.6489 56.6965 38.2831C56.6965 38.9173 56.8443 39.4869 57.1399 39.9917C57.4415 40.4966 57.8541 40.8935 58.3774 41.1829C58.9069 41.4661 59.4981 41.6079 60.1507 41.6079C60.6802 41.6079 61.1634 41.5156 61.6006 41.3309C62.0439 41.1462 62.4162 40.8781 62.7179 40.5272L61.9423 39.7885C61.4744 40.2995 60.8985 40.555 60.2151 40.555C59.7718 40.555 59.3749 40.4596 59.0239 40.2688C58.673 40.0717 58.399 39.8007 58.202 39.456C58.0049 39.1112 57.9063 38.7202 57.9063 38.2831C57.9063 37.846 58.0049 37.455 58.202 37.1103C58.399 36.7655 58.673 36.4978 59.0239 36.3069C59.3749 36.1099 59.7718 36.0113 60.2151 36.0113C60.8985 36.0113 61.4744 36.2637 61.9423 36.7685L62.7179 36.039C62.4162 35.6881 62.0469 35.4204 61.6097 35.2357C61.1726 35.0509 60.6893 34.9583 60.1598 34.9583ZM66.7539 34.9583C66.0951 34.9583 65.5009 35.1031 64.9714 35.3925C64.442 35.6757 64.0261 36.0729 63.7245 36.5839C63.4228 37.0888 63.272 37.6551 63.272 38.2831C63.272 38.9111 63.4228 39.4807 63.7245 39.9917C64.0261 40.4966 64.442 40.8935 64.9714 41.1829C65.5009 41.4661 66.0951 41.6079 66.7539 41.6079C67.4127 41.6079 68.0066 41.4661 68.5361 41.1829C69.0655 40.8935 69.4814 40.4966 69.783 39.9917C70.0847 39.4869 70.2355 38.9173 70.2355 38.2831C70.2355 37.6489 70.0847 37.0793 69.783 36.5745C69.4814 36.0696 69.0655 35.6757 68.5361 35.3925C68.0066 35.1031 67.4127 34.9583 66.7539 34.9583ZM74.53 34.9583C73.8712 34.9583 73.277 35.1031 72.7475 35.3925C72.218 35.6757 71.8025 36.0729 71.5008 36.5839C71.1991 37.0888 71.048 37.6551 71.048 38.2831C71.048 38.9111 71.1991 39.4807 71.5008 39.9917C71.8025 40.4966 72.218 40.8935 72.7475 41.1829C73.277 41.4661 73.8712 41.6079 74.53 41.6079C75.1887 41.6079 75.7829 41.4661 76.3124 41.1829C76.8419 40.8935 77.2574 40.4966 77.5591 39.9917C77.8608 39.4869 78.0116 38.9173 78.0116 38.2831C78.0116 37.6489 77.8608 37.0793 77.5591 36.5745C77.2574 36.0696 76.8419 35.6757 76.3124 35.3925C75.7829 35.1031 75.1887 34.9583 74.53 34.9583ZM150.859 34.9583C150.293 34.9583 149.813 35.0446 149.419 35.217C149.031 35.3894 148.738 35.6233 148.541 35.9188C148.35 36.2082 148.255 36.5317 148.255 36.8887C148.255 37.3136 148.363 37.652 148.578 37.9045C148.8 38.1507 149.062 38.3324 149.363 38.4494C149.671 38.5664 150.071 38.6833 150.564 38.8003C150.915 38.8865 151.192 38.9635 151.395 39.0312C151.598 39.099 151.764 39.1943 151.894 39.3174C152.029 39.4344 152.097 39.5852 152.097 39.7699C152.097 40.0223 151.977 40.2256 151.737 40.3795C151.503 40.5334 151.146 40.6105 150.665 40.6105C150.278 40.6105 149.89 40.5457 149.502 40.4164C149.12 40.281 148.797 40.1086 148.532 39.8993L148.116 40.832C148.387 41.066 148.754 41.2539 149.215 41.3955C149.683 41.5372 150.167 41.6079 150.665 41.6079C151.232 41.6079 151.712 41.5216 152.106 41.3492C152.5 41.1768 152.793 40.9459 152.983 40.6566C153.18 40.3672 153.279 40.044 153.279 39.6869C153.279 39.2682 153.168 38.9358 152.946 38.6895C152.731 38.4432 152.469 38.2616 152.161 38.1446C151.854 38.0214 151.46 37.9045 150.979 37.7937C150.628 37.7075 150.352 37.6305 150.148 37.5627C149.945 37.495 149.776 37.4027 149.64 37.2857C149.511 37.1687 149.446 37.0179 149.446 36.8332C149.446 36.5685 149.56 36.3559 149.788 36.1958C150.022 36.0358 150.376 35.9557 150.85 35.9557C151.139 35.9557 151.438 35.9989 151.746 36.0851C152.054 36.1713 152.349 36.2975 152.633 36.4637L153.011 35.531C152.734 35.3463 152.405 35.2048 152.023 35.1063C151.641 35.0078 151.253 34.9583 150.859 34.9583ZM179.95 34.9583C179.298 34.9583 178.707 35.1031 178.177 35.3925C177.654 35.6757 177.241 36.0696 176.94 36.5745C176.638 37.0793 176.487 37.6489 176.487 38.2831C176.487 38.9173 176.635 39.4869 176.93 39.9917C177.232 40.4966 177.645 40.8935 178.168 41.1829C178.697 41.4661 179.289 41.6079 179.941 41.6079C180.471 41.6079 180.954 41.5156 181.391 41.3309C181.834 41.1462 182.207 40.8781 182.509 40.5272L181.733 39.7885C181.265 40.2995 180.689 40.555 180.006 40.555C179.563 40.555 179.165 40.4596 178.814 40.2688C178.463 40.0717 178.189 39.8007 177.992 39.456C177.795 39.1112 177.697 38.7202 177.697 38.2831C177.697 37.846 177.795 37.455 177.992 37.1103C178.189 36.7655 178.463 36.4978 178.814 36.3069C179.165 36.1099 179.563 36.0113 180.006 36.0113C180.689 36.0113 181.265 36.2637 181.733 36.7685L182.509 36.039C182.207 35.6881 181.837 35.4204 181.4 35.2357C180.963 35.0509 180.48 34.9583 179.95 34.9583ZM189.629 34.9583C188.97 34.9583 188.376 35.1031 187.847 35.3925C187.317 35.6757 186.901 36.0729 186.6 36.5839C186.298 37.0888 186.147 37.6551 186.147 38.2831C186.147 38.9111 186.298 39.4807 186.6 39.9917C186.901 40.4966 187.317 40.8935 187.847 41.1829C188.376 41.4661 188.97 41.6079 189.629 41.6079C190.288 41.6079 190.882 41.4661 191.411 41.1829C191.941 40.8935 192.357 40.4966 192.658 39.9917C192.96 39.4869 193.111 38.9173 193.111 38.2831C193.111 37.6489 192.96 37.0793 192.658 36.5745C192.357 36.0696 191.941 35.6757 191.411 35.3925C190.882 35.1031 190.288 34.9583 189.629 34.9583ZM196.583 34.9583C196.017 34.9583 195.536 35.0446 195.142 35.217C194.755 35.3894 194.462 35.6233 194.265 35.9188C194.074 36.2082 193.979 36.5317 193.979 36.8887C193.979 37.3136 194.086 37.652 194.302 37.9045C194.523 38.1507 194.785 38.3324 195.087 38.4494C195.395 38.5664 195.795 38.6833 196.287 38.8003C196.638 38.8865 196.915 38.9635 197.119 39.0312C197.322 39.099 197.488 39.1943 197.617 39.3174C197.753 39.4344 197.821 39.5852 197.821 39.7699C197.821 40.0223 197.7 40.2256 197.46 40.3795C197.226 40.5334 196.869 40.6105 196.389 40.6105C196.001 40.6105 195.613 40.5457 195.225 40.4164C194.844 40.281 194.521 40.1086 194.256 39.8993L193.84 40.832C194.111 41.066 194.477 41.2539 194.939 41.3955C195.407 41.5372 195.89 41.6079 196.389 41.6079C196.956 41.6079 197.436 41.5216 197.83 41.3492C198.224 41.1768 198.516 40.9459 198.707 40.6566C198.904 40.3672 199.003 40.044 199.003 39.6869C199.003 39.2682 198.892 38.9358 198.67 38.6895C198.455 38.4432 198.193 38.2616 197.885 38.1446C197.578 38.0214 197.183 37.9045 196.703 37.7937C196.352 37.7075 196.075 37.6305 195.872 37.5627C195.669 37.495 195.499 37.4027 195.364 37.2857C195.235 37.1687 195.17 37.0179 195.17 36.8332C195.17 36.5685 195.284 36.3559 195.512 36.1958C195.746 36.0358 196.1 35.9557 196.574 35.9557C196.863 35.9557 197.162 35.9989 197.47 36.0851C197.778 36.1713 198.073 36.2975 198.356 36.4637L198.735 35.531C198.458 35.3463 198.129 35.2048 197.747 35.1063C197.365 35.0078 196.977 34.9583 196.583 34.9583ZM79.286 35.0508V41.5155H80.4866V39.65H81.9457C82.506 39.65 82.9925 39.5577 83.405 39.373C83.8237 39.1883 84.1439 38.9235 84.3655 38.5788C84.5872 38.2278 84.6978 37.8183 84.6978 37.3504C84.6978 36.8763 84.5872 36.4668 84.3655 36.122C84.1439 35.7772 83.8237 35.5125 83.405 35.3278C82.9925 35.1431 82.506 35.0508 81.9457 35.0508H79.286ZM85.8984 35.0508V41.5155H90.7469V40.5089H87.099V38.7264H90.2206V37.7382H87.099V36.0573H90.6178V35.0508H85.8984ZM92.086 35.0508V41.5155H93.2866V39.6314H94.746C94.8568 39.6314 94.9398 39.6284 94.9953 39.6222L96.3158 41.5154H97.6088L96.122 39.3912C96.5653 39.2188 96.9038 38.9571 97.1378 38.6061C97.3779 38.2552 97.4981 37.8367 97.4981 37.3503C97.4981 36.8762 97.3872 36.4667 97.1655 36.1219C96.9439 35.7771 96.6237 35.5124 96.205 35.3277C95.7925 35.143 95.3062 35.0507 94.746 35.0507L92.086 35.0508ZM100.832 35.0508L97.9228 41.5155H99.1603L99.7977 40.0195H103.03L103.676 41.5155H104.932L102.014 35.0508H100.832ZM104.6 35.0508V36.0668H106.742V41.5155H107.943V36.0668H110.086V35.0508H104.6ZM110.991 35.0508V41.5155H112.191V35.0508H110.991ZM112.976 35.0508L115.802 41.5155H116.984L119.801 35.0508H118.6L116.43 40.0378L114.278 35.0508H112.976ZM122.276 35.0508L119.367 41.5155H120.604L121.242 40.0195H124.474L125.121 41.5155H126.377L123.458 35.0508H122.276ZM129.747 35.0508V41.5155H132.573C133.263 41.5155 133.876 41.3832 134.411 41.1185C134.947 40.8476 135.362 40.469 135.658 39.9826C135.954 39.49 136.101 38.9234 136.101 38.2831C136.101 37.6428 135.954 37.0795 135.658 36.5931C135.362 36.1005 134.947 35.7219 134.411 35.4572C133.876 35.1863 133.263 35.0508 132.573 35.0508H129.747ZM137.376 35.0508V41.5155H142.224V40.5089H138.576V38.7264H141.698V37.7382H138.576V36.0573H142.095V35.0508H137.376ZM154.47 35.0508V41.5155H159.319V40.5089H155.671V38.7264H158.792V37.7382H155.671V36.0573H159.189V35.0508H154.47ZM160.658 35.0508V41.5155H161.858V39.6314H163.318C163.428 39.6314 163.512 39.6284 163.567 39.6222L164.888 41.5154H166.181L164.694 39.3912C165.137 39.2188 165.476 38.9571 165.71 38.6061C165.95 38.2552 166.07 37.8367 166.07 37.3503C166.07 36.8762 165.959 36.4667 165.737 36.1219C165.516 35.7771 165.196 35.5124 164.777 35.3277C164.364 35.143 163.878 35.0507 163.318 35.0507L160.658 35.0508ZM166.495 35.0508L169.321 41.5155H170.503L173.319 35.0508H172.119L169.948 40.0378L167.797 35.0508H166.495ZM174.003 35.0508V41.5155H175.203V35.0508H174.003ZM183.663 35.0508V41.5155H184.864V35.0508H183.663ZM66.7539 36.0113C67.1849 36.0113 67.5725 36.1099 67.9173 36.3069C68.2621 36.4978 68.5331 36.7685 68.7301 37.1194C68.9271 37.4642 69.0257 37.8521 69.0257 38.2831C69.0257 38.7141 68.9271 39.105 68.7301 39.456C68.5331 39.8007 68.2621 40.0717 67.9173 40.2688C67.5725 40.4596 67.1849 40.555 66.7539 40.555C66.3229 40.555 65.935 40.4596 65.5902 40.2688C65.2454 40.0717 64.9744 39.8007 64.7774 39.456C64.5804 39.105 64.4817 38.7141 64.4817 38.2831C64.4817 37.8521 64.5804 37.4642 64.7774 37.1194C64.9744 36.7685 65.2454 36.4978 65.5902 36.3069C65.935 36.1099 66.3229 36.0113 66.7539 36.0113ZM74.53 36.0113C74.9609 36.0113 75.3489 36.1099 75.6936 36.3069C76.0384 36.4978 76.3091 36.7685 76.5062 37.1194C76.7032 37.4642 76.8018 37.8521 76.8018 38.2831C76.8018 38.7141 76.7032 39.105 76.5062 39.456C76.3091 39.8007 76.0384 40.0717 75.6936 40.2688C75.3489 40.4596 74.9609 40.555 74.53 40.555C74.099 40.555 73.7111 40.4596 73.3663 40.2688C73.0215 40.0717 72.7505 39.8007 72.5534 39.456C72.3564 39.105 72.2581 38.7141 72.2581 38.2831C72.2581 37.8521 72.3564 37.4642 72.5534 37.1194C72.7505 36.7685 73.0215 36.4978 73.3663 36.3069C73.7111 36.1099 74.099 36.0113 74.53 36.0113ZM189.629 36.0113C190.06 36.0113 190.448 36.1099 190.792 36.3069C191.137 36.4978 191.408 36.7685 191.605 37.1194C191.802 37.4642 191.901 37.8521 191.901 38.2831C191.901 38.7141 191.802 39.105 191.605 39.456C191.408 39.8007 191.137 40.0717 190.792 40.2688C190.448 40.4596 190.06 40.555 189.629 40.555C189.198 40.555 188.81 40.4596 188.465 40.2688C188.121 40.0717 187.85 39.8007 187.653 39.456C187.456 39.105 187.357 38.7141 187.357 38.2831C187.357 37.8521 187.456 37.4642 187.653 37.1194C187.85 36.7685 188.121 36.4978 188.465 36.3069C188.81 36.1099 189.198 36.0113 189.629 36.0113ZM80.4866 36.0668H81.8905C82.4138 36.0668 82.8107 36.1774 83.0816 36.399C83.3525 36.6207 83.488 36.9379 83.488 37.3504C83.488 37.7629 83.3525 38.0801 83.0816 38.3017C82.8107 38.5234 82.4138 38.634 81.8905 38.634H80.4866V36.0668ZM93.2866 36.0668H94.6905C95.2138 36.0668 95.611 36.1774 95.8819 36.399C96.1528 36.6207 96.288 36.9379 96.288 37.3504C96.288 37.7629 96.1528 38.0831 95.8819 38.3109C95.611 38.5325 95.2138 38.6434 94.6905 38.6434H93.2866V36.0668ZM130.948 36.0668H132.518C132.992 36.0668 133.408 36.1591 133.765 36.3438C134.128 36.5224 134.405 36.7808 134.596 37.1194C134.793 37.4519 134.892 37.8398 134.892 38.2831C134.892 38.7264 134.793 39.1173 134.596 39.456C134.405 39.7884 134.128 40.0472 133.765 40.2318C133.408 40.4104 132.992 40.4997 132.518 40.4997H130.948V36.0668ZM161.858 36.0668H163.262C163.786 36.0668 164.183 36.1774 164.454 36.399C164.725 36.6207 164.86 36.9379 164.86 37.3504C164.86 37.7629 164.725 38.0831 164.454 38.3109C164.183 38.5325 163.786 38.6434 163.262 38.6434H161.858V36.0668ZM101.414 36.2514L102.633 39.0773H100.204L101.414 36.2514ZM122.858 36.2514L124.077 39.0773H121.648L122.858 36.2514Z" fill="#666F5A"/>
<path d="M42.0205 43.6184C41.5962 43.9247 41.1703 44.1886 40.7432 44.4079C39.5101 45.0411 38.4654 45.3715 37.6087 45.3989C36.2908 45.4411 35.2568 45.0784 34.5066 44.3108C33.6884 43.4795 33.2623 42.5367 33.2285 41.4823C33.1989 40.5598 33.4383 39.7935 33.9465 39.1835C34.3867 38.5098 34.9619 37.9307 35.672 37.4462C36.1886 37.0998 36.9326 36.6473 37.9042 36.0885C39.3244 35.1195 40.4758 33.9942 41.3582 32.7126C42.2407 31.431 42.646 29.6701 42.5742 27.4296C42.4962 24.9914 41.7113 23.1365 40.2194 21.865C38.6616 20.5956 36.8612 19.9936 34.8184 20.059C32.1826 20.1434 30.1661 21.0326 28.7691 22.7264C27.37 24.3543 26.026 26.6731 24.7372 29.6828L24.6446 29.8836C23.4153 32.6935 22.3967 34.8699 21.5886 36.413C20.7805 37.956 19.8373 39.4044 18.7593 40.7582C17.6153 42.1141 16.2323 43.2138 14.6102 44.0574C12.986 44.835 11.0866 45.2585 8.91198 45.3282C5.50404 45.4373 2.53365 44.4563 0 42.3872C2.40584 46.0664 5.71685 49.0656 9.61534 51.097C13.5138 53.1284 17.869 54.1238 22.2629 53.9877C26.1245 53.8589 29.907 52.8595 33.3282 51.0639C36.7494 49.2684 39.7208 46.7232 42.0205 43.6184Z" fill="#00CFE4"/>
<path d="M0.925886 14.3895C1.35025 14.0832 1.77601 13.8194 2.20316 13.6C3.43622 12.9669 4.48102 12.6365 5.33771 12.6091C6.65563 12.5669 7.68967 12.9296 8.43985 13.6972C9.25804 14.5285 9.68403 15.4713 9.71781 16.5256C9.74749 17.4482 9.50809 18.2145 8.99988 18.8244C8.55971 19.4981 7.98452 20.0773 7.2744 20.5618C6.75778 20.9081 6.01374 21.3606 5.04214 21.9195C3.62197 22.8884 2.4706 24.0138 1.58813 25.2953C0.705661 26.5769 0.300344 28.3379 0.37211 30.5784C0.450172 33.0166 1.23501 34.8715 2.72696 36.143C4.28475 37.4124 6.08515 38.0144 8.12795 37.949C10.7638 37.8646 12.7803 36.9754 14.1772 35.2815C15.5763 33.6536 16.9203 31.3348 18.2092 28.3252L18.3017 28.1243C19.531 25.3145 20.5497 23.138 21.3579 21.595C22.166 20.0519 23.109 18.6036 24.1871 17.2498C25.331 15.8939 26.7141 14.7941 28.3361 13.9506C29.9603 13.173 31.8598 12.7495 34.0344 12.6798C37.4423 12.5707 40.4128 13.5516 42.9464 15.6208C38.0539 8.13874 28.7836 0.458996 21.5627 0C15.6392 0.170979 5.58474 8.09964 0.925886 14.3895Z" fill="#707A61"/>
<path d="M38.7274 12.5248C37.7695 11.0956 35.8327 9.4252 34.4945 8.08529C31.0358 4.62209 25.1865 1.5033 21.5325 1.2767C21.8657 4.52929 22.0336 11.7959 24.0342 11.0863L28.1253 5.51385L33.4295 10.3094C34.7902 10.551 36.854 10.9896 38.7274 12.5248Z" fill="#A5B38F"/>
</svg>
