<?xml version="1.0" encoding="UTF-8" standalone="no"?>
<!-- Creator: CorelDRAW 2018 (64 Bit) -->

<svg
   xml:space="preserve"
   width="1181px"
   height="1181px"
   version="1.1"
   style="shape-rendering:geometricPrecision; text-rendering:geometricPrecision; image-rendering:optimizeQuality; fill-rule:evenodd; clip-rule:evenodd"
   viewBox="0 0 1181 1181"
   id="svg10"
   sodipodi:docname="iso.svg"
   inkscape:export-filename="/home/matias/Dropbox/base_fundacion/iconos/48.png"
   inkscape:export-xdpi="3.9017782"
   inkscape:export-ydpi="3.9017782"
   inkscape:version="1.1.1 (eb90963e84, 2021-10-02)"
   xmlns:inkscape="http://www.inkscape.org/namespaces/inkscape"
   xmlns:sodipodi="http://sodipodi.sourceforge.net/DTD/sodipodi-0.dtd"
   xmlns="http://www.w3.org/2000/svg"
   xmlns:svg="http://www.w3.org/2000/svg"
   xmlns:rdf="http://www.w3.org/1999/02/22-rdf-syntax-ns#"
   xmlns:cc="http://creativecommons.org/ns#"
   xmlns:dc="http://purl.org/dc/elements/1.1/"><metadata
   id="metadata14"><rdf:RDF><cc:Work
       rdf:about=""><dc:format>image/svg+xml</dc:format><dc:type
         rdf:resource="http://purl.org/dc/dcmitype/StillImage" /></cc:Work></rdf:RDF></metadata><sodipodi:namedview
   pagecolor="#ffffff"
   bordercolor="#666666"
   borderopacity="1"
   objecttolerance="10"
   gridtolerance="10"
   guidetolerance="10"
   inkscape:pageopacity="0"
   inkscape:pageshadow="2"
   inkscape:window-width="1582"
   inkscape:window-height="823"
   id="namedview12"
   showgrid="false"
   inkscape:zoom="0.25745632"
   inkscape:cx="429.19902"
   inkscape:cy="660.30618"
   inkscape:window-x="208"
   inkscape:window-y="27"
   inkscape:window-maximized="0"
   inkscape:current-layer="Capa_x0020_1"
   inkscape:pagecheckerboard="1" />
 <defs
   id="defs4">
  <style
   type="text/css"
   id="style2">
   <![CDATA[
    .fil0 {fill:#201E1E}
   ]]>
  </style>
 </defs>
 <g
   id="Capa_x0020_1"
   transform="matrix(0.97457627,0,0,0.97457627,15.012712,15.012712)"
   inkscape:label="Capa 1">
  <metadata
   id="CorelCorpID_0Corel-Layer" />
  <path
   id="path958"
   style="fill:#f9f9f9;stroke-width:1"
   d="M 590.50001,9.8566146e-4 C 264.38,9.8566146e-4 9.7510642e-4,264.38002 9.7510642e-4,590.50003 9.7510642e-4,916.62004 264.38,1180.999 590.50001,1180.999 916.63003,1180.999 1180.999,916.62004 1180.999,590.50003 1180.999,264.38002 916.63003,9.8566146e-4 590.50001,9.8566146e-4 Z" />
 </g>
<g
   id="g950"
   transform="matrix(18.507169,0,0,18.507169,193.09186,77.864815)"><path
     d="m 42.0205,43.6184 c -0.4243,0.3063 -0.8502,0.5702 -1.2773,0.7895 -1.2331,0.6332 -2.2778,0.9636 -3.1345,0.991 -1.3179,0.0422 -2.3519,-0.3205 -3.1021,-1.0881 -0.8182,-0.8313 -1.2443,-1.7741 -1.2781,-2.8285 -0.0296,-0.9225 0.2098,-1.6888 0.718,-2.2988 0.4402,-0.6737 1.0154,-1.2528 1.7255,-1.7373 0.5166,-0.3464 1.2606,-0.7989 2.2322,-1.3577 1.4202,-0.969 2.5716,-2.0943 3.454,-3.3759 0.8825,-1.2816 1.2878,-3.0425 1.216,-5.283 -0.078,-2.4382 -0.8629,-4.2931 -2.3548,-5.5646 -1.5578,-1.2694 -3.3582,-1.8714 -5.401,-1.806 -2.6358,0.0844 -4.6523,0.9736 -6.0493,2.6674 -1.3991,1.6279 -2.7431,3.9467 -4.0319,6.9564 l -0.0926,0.2008 c -1.2293,2.8099 -2.2479,4.9863 -3.056,6.5294 -0.8081,1.543 -1.7513,2.9914 -2.8293,4.3452 -1.144,1.3559 -2.527,2.4556 -4.1491,3.2992 C 12.986,44.835 11.0866,45.2585 8.91198,45.3282 5.50404,45.4373 2.53365,44.4563 0,42.3872 c 2.40584,3.6792 5.71685,6.6784 9.61534,8.7098 3.89846,2.0314 8.25366,3.0268 12.64756,2.8907 3.8616,-0.1288 7.6441,-1.1282 11.0653,-2.9238 3.4212,-1.7955 6.3926,-4.3407 8.6923,-7.4455 z"
     fill="#00cfe4"
     id="path6" /><path
     d="M 0.925886,14.3895 C 1.35025,14.0832 1.77601,13.8194 2.20316,13.6 c 1.23306,-0.6331 2.27786,-0.9635 3.13455,-0.9909 1.31792,-0.0422 2.35196,0.3205 3.10214,1.0881 0.81819,0.8313 1.24418,1.7741 1.27796,2.8284 0.02968,0.9226 -0.20972,1.6889 -0.71793,2.2988 -0.44017,0.6737 -1.01536,1.2529 -1.72548,1.7374 -0.51662,0.3463 -1.26066,0.7988 -2.23226,1.3577 -1.42017,0.9689 -2.57154,2.0943 -3.45401,3.3758 -0.882469,1.2816 -1.287786,3.0426 -1.21602,5.2831 0.078062,2.4382 0.8629,4.2931 2.35485,5.5646 1.55779,1.2694 3.35819,1.8714 5.40099,1.806 2.63585,-0.0844 4.65235,-0.9736 6.04925,-2.6675 1.3991,-1.6279 2.7431,-3.9467 4.032,-6.9563 l 0.0925,-0.2009 c 1.2293,-2.8098 2.248,-4.9863 3.0562,-6.5293 0.8081,-1.5431 1.7511,-2.9914 2.8292,-4.3452 1.1439,-1.3559 2.527,-2.4557 4.149,-3.2992 1.6242,-0.7776 3.5237,-1.2011 5.6983,-1.2708 3.4079,-0.1091 6.3784,0.8718 8.912,2.941 C 38.0539,8.13874 28.7836,0.458996 21.5627,0 15.6392,0.170979 5.58474,8.09964 0.925886,14.3895 Z"
     fill="#707a61"
     id="path8" /><path
     d="M 38.7274,12.5248 C 37.7695,11.0956 35.8327,9.4252 34.4945,8.08529 31.0358,4.62209 25.1865,1.5033 21.5325,1.2767 c 0.3332,3.25259 0.5011,10.5192 2.5017,9.8096 l 4.0911,-5.57245 5.3042,4.79555 c 1.3607,0.2416 3.4245,0.6802 5.2979,2.2154 z"
     fill="#a5b38f"
     id="path10" /></g></svg>
