<?xml version="1.0" encoding="UTF-8" standalone="no"?>
<!-- Created with Inkscape (http://www.inkscape.org/) -->

<svg
   width="167.21669mm"
   height="119.59169mm"
   viewBox="0 0 167.21669 119.59169"
   version="1.1"
   id="svg4094"
   xml:space="preserve"
   xmlns:inkscape="http://www.inkscape.org/namespaces/inkscape"
   xmlns:sodipodi="http://sodipodi.sourceforge.net/DTD/sodipodi-0.dtd"
   xmlns="http://www.w3.org/2000/svg"
   xmlns:svg="http://www.w3.org/2000/svg"><sodipodi:namedview
     id="namedview4096"
     pagecolor="#ffffff"
     bordercolor="#666666"
     borderopacity="1.0"
     inkscape:showpageshadow="2"
     inkscape:pageopacity="0.0"
     inkscape:pagecheckerboard="0"
     inkscape:deskcolor="#d1d1d1"
     inkscape:document-units="mm"
     showgrid="false" /><defs
     id="defs4091" /><g
     inkscape:label="Capa 1"
     inkscape:groupmode="layer"
     id="layer1"
     transform="translate(-5.5702468,-18.382736)"><path
       style="fill:#ececec;stroke-width:0.352778"
       d="m 68.717466,78.178567 v -59.79583 h 52.034724 52.03472 v 59.79583 59.795843 H 120.75219 68.717466 Z m 100.894444,0 V 21.557737 H 120.75219 71.892466 v 56.62083 56.620843 h 48.859724 48.85972 z m -39.70514,45.942373 c -0.10554,-0.27503 -0.14474,-1.67583 -0.0871,-3.11287 l 0.10477,-2.61282 1.7031,-0.10865 c 2.10462,-0.13425 2.70662,0.32926 2.70662,2.08399 0,1.04909 -0.19503,1.48757 -0.85357,1.91906 -0.46946,0.3076 -1.14415,0.5097 -1.49931,0.44911 -0.48108,-0.0821 -0.64746,0.11379 -0.65253,0.76824 -0.008,0.97559 -1.10186,1.44807 -1.42195,0.61394 z m 3.16786,-3.31888 c 0.12847,-0.3348 -0.008,-0.82723 -0.31504,-1.13393 -0.48765,-0.48765 -0.60015,-0.48411 -1.11953,0.0353 -0.31758,0.31757 -0.48131,0.82784 -0.36385,1.13393 0.28293,0.73731 1.51119,0.71322 1.79842,-0.0353 z m -41.799094,1.35233 c -1.01551,-0.8223 -1.09856,-2.76127 -0.14805,-3.4563 1.41396,-1.03392 3.69554,-0.16919 3.69554,1.40063 0,0.46471 -0.34064,0.58958 -1.60832,0.58958 -1.05305,0 -1.52774,0.13039 -1.37491,0.37767 0.14335,0.23194 0.76394,0.28804 1.60832,0.14538 1.55958,-0.26349 1.8146,0.1873 0.59085,1.04445 -1.02927,0.72093 -1.782,0.69331 -2.76343,-0.10141 z m 2.13638,-2.48668 c 0,-0.57455 -0.9998,-0.70974 -1.42852,-0.19316 -0.34893,0.42044 -0.26201,0.5082 0.50338,0.5082 0.50882,0 0.92514,-0.14177 0.92514,-0.31504 z m 11.512844,2.4061 c -1.78563,-1.40458 -0.85791,-3.85495 1.45951,-3.85495 0.73549,0 1.2803,0.25921 1.64791,0.78405 0.92331,1.31821 0.6971,1.68539 -1.03833,1.68539 -0.87312,0 -1.5875,0.14177 -1.5875,0.31504 0,0.48893 0.89051,0.7131 1.4431,0.36328 0.75971,-0.48093 1.37913,-0.38555 1.37913,0.21236 0,0.47059 -1.28904,1.22599 -2.09206,1.22599 -0.15523,0 -0.70052,-0.32902 -1.21176,-0.73116 z m 1.89271,-2.44384 c 0,-0.19403 -0.3175,-0.35278 -0.70556,-0.35278 -0.38806,0 -0.70556,0.15875 -0.70556,0.35278 0,0.19403 0.3175,0.35278 0.70556,0.35278 0.38806,0 0.70556,-0.15875 0.70556,-0.35278 z m 8.24045,2.2753 c -1.99182,-1.99182 0.50704,-4.69375 3.07163,-3.32122 0.37529,0.20085 0.68236,0.59772 0.68236,0.88194 0,0.62422 -1.1034,0.68336 -1.69585,0.0909 -0.58965,-0.58965 -1.5961,0.41616 -1.2691,1.2683 0.19134,0.49862 0.49404,0.57133 1.60046,0.3844 1.5495,-0.26179 1.80091,0.19136 0.58044,1.04621 -1.11384,0.78016 -1.93632,0.68309 -2.96994,-0.35053 z m 5.41013,0.50772 c -1.37237,-0.79837 -1.43172,-3.03762 -0.10402,-3.92415 0.74085,-0.49468 2.3322,-0.26622 3.03399,0.43557 0.94379,0.9438 0.88948,1.96481 -0.16035,3.01465 -0.92722,0.92722 -1.74878,1.0678 -2.76962,0.47393 z m 2.10734,-1.57565 c 0.11746,-0.30609 -0.0463,-0.81636 -0.36385,-1.13393 -0.51939,-0.51939 -0.63188,-0.52293 -1.11954,-0.0353 -0.3067,0.3067 -0.4435,0.79913 -0.31503,1.13393 0.28722,0.7485 1.51548,0.77259 1.79842,0.0353 z m 2.83583,1.25641 c -1.732,-1.3624 -0.86768,-3.87489 1.333,-3.87489 1.50538,0 2.29824,0.78486 2.29824,2.27505 0,1.99002 -2.00961,2.87541 -3.63124,1.59984 z m 2.04374,-1.75823 c 0,-1.1034 -1.08097,-1.39294 -1.40374,-0.37599 -0.29055,0.91544 0.065,1.50609 0.81928,1.36083 0.35617,-0.0686 0.58446,-0.45327 0.58446,-0.98484 z m 8.64306,2.01517 c -1.10108,-0.55418 -1.41176,-2.66967 -0.52265,-3.55879 1.20467,-1.20467 3.69765,-0.38481 3.69765,1.21604 0,0.55857 -0.25261,0.68036 -1.41111,0.68036 -0.77611,0 -1.41111,0.14177 -1.41111,0.31504 0,0.4653 1.00184,0.76733 1.24424,0.37511 0.26966,-0.43631 1.57798,-0.44012 1.57798,-0.005 0,0.39295 -1.40869,1.43339 -1.93058,1.42591 -0.19936,-0.003 -0.75935,-0.20495 -1.24442,-0.44908 z m 1.76389,-2.72072 c 0,-0.19403 -0.3175,-0.35278 -0.70556,-0.35278 -0.38805,0 -0.70555,0.15875 -0.70555,0.35278 0,0.19403 0.3175,0.35278 0.70555,0.35278 0.38806,0 0.70556,-0.15875 0.70556,-0.35278 z m 5.87342,2.64803 c -0.31997,-0.31997 -0.58176,-0.71783 -0.58176,-0.88414 0,-0.60147 1.12773,-1.41111 1.96548,-1.41111 0.47121,0 0.85675,-0.17271 0.85675,-0.38379 0,-0.25562 -0.50069,-0.30013 -1.49931,-0.13329 l -1.49931,0.2505 0.67204,-0.74866 c 0.79388,-0.88438 2.39547,-0.98214 3.18332,-0.19429 0.33706,0.33706 0.55437,1.16677 0.55437,2.11667 0,1.38355 -0.0908,1.56285 -0.79375,1.56712 -0.43657,0.003 -1.12728,0.0943 -1.53491,0.20378 -0.44459,0.11935 -0.97395,-0.0338 -1.32292,-0.38279 z m 2.04901,-0.85977 c 0.2609,-0.42213 -0.40274,-0.84039 -0.87263,-0.54998 -0.39453,0.24383 -0.13553,0.87838 0.35853,0.87838 0.17113,0 0.40247,-0.14778 0.5141,-0.3284 z m 13.15604,1.00694 c -1.23696,-0.72294 -0.50431,-2.44242 1.04069,-2.44242 0.44627,0 0.81139,-0.14938 0.81139,-0.33196 0,-0.51051 -0.62934,-0.78231 -0.87839,-0.37935 -0.12187,0.19719 -0.5353,0.35853 -0.91873,0.35853 -0.58783,0 -0.63794,-0.11064 -0.31954,-0.70556 0.43047,-0.80436 2.40299,-0.98367 3.10444,-0.28222 0.23283,0.23283 0.42333,1.18533 0.42333,2.11667 0,1.55576 -0.0693,1.69333 -0.85309,1.69333 -0.4692,0 -1.06451,0.0751 -1.32291,0.1669 -0.25841,0.0918 -0.74764,0.005 -1.08719,-0.19392 z m 1.78594,-1.36204 c 0.0882,-0.26459 -0.0441,-0.39688 -0.30868,-0.30868 -0.25467,0.0849 -0.53248,0.3627 -0.61737,0.61736 -0.0882,0.26458 0.0441,0.39687 0.30869,0.30868 0.25465,-0.0849 0.53247,-0.3627 0.61736,-0.61736 z m -81.425514,-0.75214 c 0,-1.98155 0.0557,-2.1328 0.74751,-2.02847 0.65525,0.0988 0.75323,0.36315 0.79375,2.14143 0.0429,1.88243 -0.011,2.0287 -0.74752,2.02848 -0.73593,-2.2e-4 -0.79374,-0.15619 -0.79374,-2.14144 z m 2.46944,0.0539 v -2.08727 h 1.67497 c 0.92123,0 1.87373,0.16496 2.11667,0.36658 0.24327,0.20189 0.44169,1.13958 0.44169,2.08727 0,1.46853 -0.10042,1.72069 -0.68527,1.72069 -0.554,0 -0.70605,-0.28721 -0.79375,-1.49931 -0.0759,-1.04932 -0.2673,-1.4993 -0.63764,-1.4993 -0.37035,0 -0.56173,0.44998 -0.63765,1.4993 -0.0877,1.2121 -0.23975,1.49931 -0.79375,1.49931 -0.6013,0 -0.68527,-0.25578 -0.68527,-2.08727 z m 6.06778,1.66394 c -0.23284,-0.23284 -0.42334,-0.94721 -0.42334,-1.5875 0,-0.64029 -0.15875,-1.16417 -0.35277,-1.16417 -0.19403,0 -0.35278,-0.23812 -0.35278,-0.52917 0,-0.29104 0.15875,-0.52916 0.35278,-0.52916 0.19402,0 0.35277,-0.3175 0.35277,-0.70556 0,-0.47037 0.23519,-0.70555 0.70556,-0.70555 0.47037,0 0.70555,0.23518 0.70555,0.70555 0,0.39198 0.23519,0.70556 0.52917,0.70556 0.29104,0 0.52917,0.23812 0.52917,0.52916 0,0.29105 -0.23813,0.52917 -0.52917,0.52917 -0.33101,0 -0.52917,0.33441 -0.52917,0.89302 0,0.49116 0.23813,0.98439 0.52917,1.09607 0.29104,0.11169 0.52917,0.4242 0.52917,0.69449 0,0.60438 -1.46119,0.65301 -2.04611,0.0681 z m 7.69055,-1.67122 v -2.09456 l 1.411116,0.0195 c 1.50164,0.0207 1.97956,0.7637 0.70555,1.09686 -0.5606,0.1466 -0.70555,0.48119 -0.70555,1.62864 0,1.20895 -0.114906,1.44414 -0.705559,1.44414 -0.626327,0 -0.705557,-0.23519 -0.705557,-2.09455 z m 3.527776,0.007 v -2.08726 h 1.674978 c 0.92123,0 1.87373,0.16496 2.11666,0.36657 0.24327,0.2019 0.4417,1.13958 0.4417,2.08727 0,1.46853 -0.10043,1.72069 -0.68527,1.72069 -0.55401,0 -0.70606,-0.2872 -0.79375,-1.4993 -0.0759,-1.04932 -0.2673,-1.49931 -0.63765,-1.49931 -0.37035,0 -0.56172,0.44999 -0.63765,1.49931 -0.0877,1.2121 -0.23974,1.4993 -0.793748,1.4993 -0.60129,2e-5 -0.68527,-0.25576 -0.68527,-2.08725 z m 10.797468,1.52925 c -0.11778,-0.30689 -0.21413,-1.02126 -0.21413,-1.58748 0,-0.56621 -0.15875,-1.02948 -0.35278,-1.02948 -0.19403,0 -0.35278,-0.23812 -0.35278,-0.52917 0,-0.29104 0.15875,-0.52916 0.35278,-0.52916 0.19403,0 0.35278,-0.3175 0.35278,-0.70556 0,-0.47037 0.23518,-0.70555 0.70555,-0.70555 0.47037,0 0.70556,0.23518 0.70556,0.70555 0,0.39198 0.23518,0.70556 0.52916,0.70556 0.29105,0 0.52917,0.23812 0.52917,0.52916 0,0.29105 -0.23812,0.52917 -0.52917,0.52917 -0.35277,0 -0.52916,0.35278 -0.52916,1.05833 0,0.70556 0.17639,1.05834 0.52916,1.05834 0.29105,0 0.52917,0.23812 0.52917,0.52916 0,0.73416 -1.9722,0.70893 -2.25531,-0.0288 z m 30.12475,-1.52923 v -2.08727 h 1.5875 c 1.74511,0 2.08142,0.47644 0.70556,0.99954 -0.73911,0.28101 -0.88195,0.56526 -0.88195,1.75516 0,1.18465 -0.11686,1.41984 -0.70555,1.41984 -0.62606,0 -0.70556,-0.23519 -0.70556,-2.08727 z m 8.83186,1.40491 c -0.20086,-0.3753 -0.36519,-1.08968 -0.36519,-1.5875 0,-0.49783 -0.15875,-0.90514 -0.35278,-0.90514 -0.19403,0 -0.35278,-0.23812 -0.35278,-0.52917 0,-0.29104 0.14024,-0.52916 0.31164,-0.52916 0.17139,0 0.39466,-0.3175 0.49614,-0.70556 0.10148,-0.38805 0.43749,-0.70555 0.7467,-0.70555 0.327,0 0.56219,0.29515 0.56219,0.70555 0,0.47037 0.23519,0.70556 0.70556,0.70556 0.38805,0 0.70555,0.21961 0.70555,0.48802 0,0.26841 -0.3175,0.57105 -0.70555,0.67253 -0.43427,0.11356 -0.70556,0.48119 -0.70556,0.95611 0,0.47493 0.27129,0.84256 0.70556,0.95612 1.11539,0.29168 0.86057,1.16055 -0.34037,1.16055 -0.67302,0 -1.17612,-0.24328 -1.41111,-0.68236 z m 2.95702,-1.34135 c 0.0235,-1.63283 0.14842,-2.04667 0.64654,-2.14254 0.53324,-0.10263 0.61736,0.17313 0.61736,2.02372 0,1.84216 -0.0906,2.14253 -0.64654,2.14253 -0.55513,0 -0.64242,-0.28614 -0.61736,-2.02371 z m 2.72397,0.052 c -0.91541,-2.39212 -0.9131,-2.26166 -0.0401,-2.26166 0.51153,0 0.77448,0.30051 0.92604,1.05833 0.11642,0.58208 0.33796,1.05833 0.49232,1.05833 0.15436,0 0.38525,-0.47625 0.5131,-1.05833 0.16512,-0.7518 0.43976,-1.05833 0.94822,-1.05833 0.798,0 0.75249,0.56246 -0.23715,2.931 -0.81871,1.95943 -1.68132,1.73757 -2.60239,-0.66934 z m -75.190614,-3.67277 c 0,-0.51741 0.23518,-0.70556 0.88194,-0.70556 0.64676,0 0.88194,0.18815 0.88194,0.70556 0,0.5174 -0.23518,0.70555 -0.88194,0.70555 -0.64676,0 -0.88194,-0.18815 -0.88194,-0.70555 z m 72.319434,-0.0245 c 0,-0.55452 0.19002,-0.70298 0.79014,-0.61736 1.17255,0.16728 1.27561,1.34745 0.11767,1.34745 -0.68279,-2e-5 -0.90781,-0.18098 -0.90781,-0.73011 z m -45.68393,-6.1757 c -2.39601,-1.24931 -3.35218,-2.80141 -3.35218,-5.44145 0,-2.19021 0.65066,-3.5337 2.33272,-4.81667 1.12379,-0.857161 1.67864,-0.996931 4.6747,-1.177651 1.86977,-0.11278 3.598,-0.32769 3.84052,-0.47758 0.74052,-0.45766 0.52545,-2.24835 -0.3431,-2.85671 -1.6487,-1.15479 -4.86039,-0.10209 -4.86039,1.5931 0,0.61476 -0.27061,0.67995 -2.82223,0.67995 -2.69386,0 -2.82187,-0.0361 -2.81447,-0.79375 0.0125,-1.28107 1.2164,-3.57232 2.40055,-4.568712 1.72768,-1.45375 4.32566,-2.15959 7.25042,-1.96984 2.67351,0.17344 4.35249,0.83163 5.98319,2.34549 2.04039,1.894192 2.15597,2.417662 2.28895,10.366673 l 0.12246,7.32014 h -3.38221 -3.38222 l -0.0112,-0.97014 c -0.01,-0.83639 -0.0705,-0.8925 -0.44097,-0.40699 -1.2577,1.64809 -5.34564,2.28939 -7.48452,1.17414 z m 6.8694,-4.72692 c 0.74489,-0.74489 1.29657,-2.36675 0.92981,-2.73351 -0.12223,-0.12223 -1.02694,-0.20749 -2.01046,-0.18946 -2.60254,0.0477 -3.70258,1.21056 -2.77852,2.93719 0.50787,0.94895 2.90483,0.94012 3.85917,-0.0142 z m 35.30147,4.71941 c -4.20008,-1.52548 -6.47303,-5.08311 -6.42622,-10.05833 0.0372,-3.955511 1.87658,-7.117511 5.17678,-8.899303 2.04002,-1.10141 7.47428,-1.10401 9.52962,-0.005 3.19331,1.708172 4.78377,4.279162 5.03593,8.140602 l 0.16651,2.549861 -6.83686,0.096 c -6.61519,0.0929 -6.83301,0.11885 -6.7181,0.80153 0.17759,1.05507 1.44272,2.25271 2.76545,2.61793 1.47268,0.40663 3.50516,-0.11506 4.08871,-1.04947 0.37241,-0.59633 0.83972,-0.68651 3.55712,-0.68651 h 3.12839 l -0.23199,0.97013 c -0.39735,1.66173 -2.13403,3.70603 -4.08445,4.80795 -1.56924,0.88656 -2.33166,1.07557 -4.72465,1.1713 -1.99356,0.0797 -3.32742,-0.058 -4.42624,-0.45711 z m 6.77474,-12.842281 c -0.29546,-2.90468 -5.43409,-3.39035 -6.59744,-0.62354 -0.26496,0.63015 -0.40373,1.27195 -0.30838,1.42623 0.0954,0.15428 1.70835,0.23523 3.58445,0.17989 3.40382,-0.10042 3.41089,-0.10251 3.32137,-0.98258 z m -75.228344,3.175001 v -9.877783 h 3.175 c 3.15148,0 3.175,0.006 3.175,0.88195 0,0.91199 0.4829,1.17485 0.90465,0.49243 0.49776,-0.8054 3.18946,-1.7118 5.10602,-1.71941 2.57206,-0.0102 4.752381,1.09083 6.155446,3.108392 l 1.06305,1.52864 0.11286,7.731781 0.11286,7.73178 H 96.28154 93.104616 l -0.11094,-6.20335 -0.11093,-6.203361 -1.1521,-1.02859 c -1.30432,-1.1645 -2.67964,-1.32346 -3.92195,-0.45332 -1.49358,1.04615 -1.80512,2.49748 -1.80512,8.409241 v 5.47938 h -3.175 -3.175 z m 45.411734,0.63036 c -1.85502,-5.100371 -3.48227,-9.551223 -3.61611,-9.890773 -0.22131,-0.56149 0.0573,-0.61737 3.0787,-0.61737 h 3.32203 l 1.71445,5.656632 c 0.94294,3.11114 1.82107,5.484111 1.95138,5.273251 0.13032,-0.21085 0.93531,-2.756331 1.78887,-5.656621 l 1.55194,-5.273262 h 3.29033 c 3.25106,0 3.28735,0.01 3.0404,0.79376 -0.13747,0.43656 -1.71974,4.841872 -3.51618,9.789583 l -3.26623,8.99583 -2.9834,0.1012 -2.9834,0.10119 z M 79.785036,78.531047 c 1.21856,-17.33534 11.42367,-32.60798 26.979044,-40.37597 5.92349,-2.95805 13.6435,-4.95095 19.19158,-4.95426 l 2.38125,-10e-4 v 5.26157 5.26157 l -2.73403,0.229 c -13.49682,1.13051 -25.22803,9.10245 -31.159214,21.17425 -2.16061,4.39752 -3.43994,8.88283 -3.77331,13.22917 l -0.25706,3.35139 -5.43259,0.0977 -5.4326,0.0977 z m 16.230957,2.84094 c -0.367636,-0.95806 0.593436,-6.6606 1.667849,-9.89619 3.334408,-10.04159 11.272128,-17.68051 21.674638,-20.85873 2.8952,-0.88456 3.64131,-0.96473 8.97843,-0.96473 5.33711,0 6.08323,0.0802 8.97842,0.96473 1.73668,0.53059 4.35605,1.59281 5.82084,2.36047 2.85213,1.49475 6.76233,4.22853 6.62639,4.63278 -0.0454,0.1351 -1.64008,1.9932 -3.54367,4.12911 l -3.46107,3.88348 -1.65421,-1.17729 c -4.80233,-3.4178 -10.08081,-4.7984 -15.49263,-4.05212 -9.88772,1.3635 -17.64083,9.26232 -18.72308,19.07493 l -0.24682,2.23792 -5.21091,0.0977 c -4.370728,0.0819 -5.243683,0.0123 -5.414177,-0.43203 z m 16.300647,0.20833 c -0.28528,-0.4616 0.35571,-3.91174 1.05802,-5.6948 0.94974,-2.41125 1.9746,-3.87341 4.15516,-5.92812 7.67977,-7.23654 20.42439,-4.87883 25.09428,4.64236 1.11876,2.28097 2.12604,6.62715 1.64696,7.10623 -0.0972,0.0972 -2.51169,0.17675 -5.36552,0.17675 h -5.18877 l -0.2176,-1.08802 c -0.11969,-0.59841 -0.54892,-1.55331 -0.95386,-2.12199 -2.56777,-3.6061 -8.5408,-2.32187 -9.35367,2.01108 l -0.22492,1.19893 h -5.23158 c -2.87738,0 -5.3157,-0.13609 -5.4185,-0.30242 z M 5.5702472,78.002187 v -59.61945 h 28.3986088 28.39861 v 59.61945 59.619453 H 33.968856 5.5702472 Z M 59.306806,133.95196 c 0.10441,-0.27207 0.0949,-0.58957 -0.0211,-0.70556 -0.11597,-0.11598 -11.61441,-0.21088 -25.55207,-0.21088 -25.1060192,0 -25.3411992,0.007 -25.3411992,0.70556 0,0.69901 0.23518,0.70556 25.3622492,0.70556 21.43289,0 25.39167,-0.0767 25.55208,-0.49468 z m 0.062,-3.91505 c 0,-0.69821 -0.26535,-0.70649 -25.48819,-0.79607 -24.5465592,-0.0872 -25.4881892,-0.0665 -25.4881892,0.55857 0,0.35699 0.10687,0.75595 0.2375,0.88658 0.13063,0.13063 11.6003092,0.19677 25.4881892,0.14699 24.98534,-0.0896 25.25069,-0.0979 25.25069,-0.79607 z m 0,-3.88055 c 0,-0.69821 -0.26535,-0.7065 -25.48819,-0.79607 l -25.4881892,-0.0905 v 0.88659 0.88658 l 25.4881892,-0.0905 c 25.22284,-0.0896 25.48819,-0.0979 25.48819,-0.79607 z m 0,-3.88056 c 0,-0.69902 -0.23518,-0.70555 -25.4,-0.70555 H 8.5688068 l -0.11303,0.79607 -0.11304,0.79608 25.5130392,-0.0905 c 25.24767,-0.0896 25.51303,-0.0979 25.51303,-0.79608 z m -0.17639,-3.70417 c 0,-0.69902 -0.23518,-0.70555 -25.4,-0.70555 -25.1648092,0 -25.3999892,0.007 -25.3999892,0.70555 0,0.69903 0.23518,0.70556 25.3999892,0.70556 25.16482,0 25.4,-0.007 25.4,-0.70556 z m 0.17639,-3.70416 c 0,-0.69821 -0.26535,-0.7065 -25.48819,-0.79607 -24.5465592,-0.0872 -25.4881892,-0.0665 -25.4881892,0.55856 0,0.357 0.10687,0.75596 0.2375,0.88658 0.13063,0.13063 11.6003092,0.19678 25.4881892,0.147 24.98534,-0.0896 25.25069,-0.0979 25.25069,-0.79607 z m 0,-3.88056 c 0,-0.69821 -0.26535,-0.7065 -25.48819,-0.79607 -24.5465592,-0.0872 -25.4881892,-0.0665 -25.4881892,0.55857 0,0.35699 0.10687,0.75595 0.2375,0.88658 0.13063,0.13062 11.6003092,0.19677 25.4881892,0.14699 24.98534,-0.0896 25.25069,-0.0979 25.25069,-0.79607 z m -41.09861,-3.18869 c 0,-0.46382 -2.59364,-5.80714 -2.81879,-5.80714 -0.20045,0 -1.64011,2.94177 -2.71914,5.55625 -0.13681,0.33148 0.52812,0.44097 2.67797,0.44097 1.57298,0 2.85996,-0.0855 2.85996,-0.19008 z m 12.28843,-0.0958 c -1.0134,-2.46416 -2.59288,-5.71129 -2.77809,-5.71129 -0.21745,0 -2.80756,5.35737 -2.80756,5.80714 0,0.10455 1.28323,0.19008 2.85162,0.19008 1.56839,0 2.7987,-0.12867 2.73403,-0.28593 z m 12.34499,0.0213 c -1.73413,-3.82932 -2.83166,-5.79937 -3.0819,-5.53201 -0.16913,0.18069 -0.87021,1.55885 -1.55795,3.06257 l -1.25044,2.73402 h 3.00506 c 1.65278,0 2.95114,-0.11906 2.88523,-0.26458 z m 11.91093,-0.73217 c -0.28349,-0.54821 -0.92625,-1.92566 -1.42835,-3.06099 -0.55873,-1.2634 -1.03915,-1.93739 -1.23832,-1.73728 -0.17898,0.17983 -0.88567,1.55728 -1.57042,3.061 l -1.245,2.73402 h 2.99876 2.99877 z m -44.132019,-4.64181 1.943229,-3.874681 v -4.41559 -4.415612 H 10.509087 8.3924268 v 8.290282 c 0,4.559661 0.078,8.290281 0.17344,8.290281 0.0954,0 1.04789,-1.7436 2.1166602,-3.87468 z m 48.607599,-4.327261 -0.0787,-8.202232 -2.12618,-0.10503 -2.12618,-0.10502 v 4.246282 4.24628 l 2.02138,4.060831 c 1.11175,2.23346 2.10394,4.0609 2.20486,4.06097 0.10092,8e-5 0.14808,-3.69086 0.1048,-8.202081 z m -35.88227,3.486821 1.56512,-3.304011 v -4.28071 -4.280722 h -3.35139 -3.35139 v 4.347142 4.34713 l 1.57577,3.237591 c 0.86667,1.78067 1.67049,3.23759 1.78627,3.23759 0.11577,0 0.9148,-1.48681 1.77562,-3.30401 z m 13.89442,-7.556681 0.0179,-4.334312 -3.38076,0.10097 -3.38076,0.10097 0.009,4.288452 0.009,4.28844 1.65175,3.288841 1.65176,3.28884 1.70187,-3.34395 1.70187,-3.343951 z m 10.71429,7.421111 1.65631,-3.439591 -0.003,-4.14514 -0.003,-4.145142 h -3.52777 -3.52778 v 4.034482 4.03447 l 1.64593,3.550251 c 0.90526,1.95264 1.74864,3.55025 1.87419,3.55025 0.12555,0 0.97361,-1.54781 1.88458,-3.43958 z M 13.174926,85.332027 c -0.81119,-1.15814 -0.68206,-2.64291 0.31674,-3.6417 2.4187,-2.41871 6.19608,0.83382 4.22936,3.6417 l -0.54917,0.78405 h 4.4844 c 4.32207,0 4.46327,-0.0233 3.90056,-0.64513 -0.87356,-0.96529 -0.73975,-2.7588 0.28207,-3.78062 2.4187,-2.41871 6.19609,0.83382 4.22936,3.6417 l -0.54917,0.78405 h 4.25334 c 2.33934,0 4.25334,-0.055 4.25334,-0.12218 0,-0.0672 -0.24093,-0.60514 -0.53539,-1.1954 -0.94557,-1.89544 0.34319,-3.94048 2.49734,-3.96286 2.14276,-0.0223 3.47467,2.23631 2.46742,4.18412 l -0.56693,1.09632 h 4.25145 4.25145 l -0.56694,-1.09632 c -0.66756,-1.29094 -0.45626,-2.47769 0.61961,-3.48002 2.18152,-2.03239 5.70823,0.6476 4.33438,3.29375 -0.28854,0.55576 -0.52461,1.0717 -0.52461,1.14653 0,0.0748 1.11125,0.13606 2.46944,0.13606 h 2.46944 v -32.10278 c 0,-17.65653 0,-32.22185 0,-32.36737 0,-0.14552 -11.39031,-0.26458 -25.3118,-0.26458 H 8.5688068 l -0.09,32.36736 -0.09,32.36736 h 2.6676902 2.667679 z m 15.14944,-16.81723 c -7.13851,-2.08314 -12.66525,-7.67713 -14.67569,-14.85427 -0.74224,-2.64976 -0.59023,-8.25048 0.3016,-11.1125 2.73631,-8.78116 10.59217,-14.62662 19.74648,-14.69314 5.63904,-0.041 10.21135,1.78034 14.35815,5.7194 6.71768,6.38114 8.35456,15.83554 4.21053,24.31957 -2.45324,5.0225 -7.81849,9.34626 -13.34366,10.75341 -2.80739,0.71498 -7.91204,0.65117 -10.59741,-0.13247 z m 10.14236,-3.22499 1.32292,-0.37356 v -4.92231 -4.92231 h -5.99723 -5.99722 v 4.92529 4.92529 l 1.32292,0.34291 c 0.7276,0.1886 1.71979,0.42117 2.20486,0.51682 1.25484,0.24743 5.57981,-0.0505 7.14375,-0.49214 z m -14.90486,-6.514 v -3.70417 h -2.82222 c -1.55222,0 -2.82222,0.0857 -2.82222,0.19044 0,0.73613 1.81903,3.4646 3.44922,5.17369 1.07241,1.12431 2.00505,2.0442 2.07253,2.0442 0.0675,0 0.12269,-1.66687 0.12269,-3.70416 z m 22.19336,2.28287 c 1.475,-1.43144 3.91219,-4.93088 3.91219,-5.61732 0,-0.22672 -1.08281,-0.36972 -2.79952,-0.36972 h -2.79952 l -0.1109,3.70491 c -0.061,2.0377 -0.011,3.70458 0.11116,3.70417 0.12212,-3.6e-4 0.88108,-0.64033 1.68659,-1.42204 z m -24.68142,-16.21788 c 1.76879,-5.43294 3.31439,-10.13453 3.43468,-10.44799 0.35966,-0.93726 -1.02414,-0.0222 -2.9963,1.98128 -3.1316,3.18139 -5.00588,7.73846 -5.00588,12.17116 0,2.14212 0.79577,6.17361 1.2186,6.17361 0.0731,0 1.58012,-4.44513 3.3489,-9.87806 z m 16.6158,-1.60202 3.45618,-10.45111 -1.11904,-0.46598 c -1.9747,-0.82229 -5.49108,-1.34351 -7.57171,-1.12233 -2.03823,0.21666 -5.15909,1.04347 -6.00098,1.58983 -0.35527,0.23056 0.37664,2.52632 3.23389,10.1437 4.53741,12.09666 4.15726,11.14522 4.36856,10.93392 0.0973,-0.0973 1.7322,-4.87992 3.6331,-10.62803 z m 12.86355,10.15716 c 0.14062,-0.33954 0.33616,-2.13578 0.43454,-3.99163 0.25224,-4.75825 -0.89498,-8.31666 -3.87799,-12.02862 -1.1154,-1.38797 -4.39779,-4.04114 -4.66676,-3.77217 -0.1947,0.1947 7.35522,20.38539 7.6277,20.3987 0.12477,0.006 0.34189,-0.26673 0.48251,-0.60628 z"
       id="path4241"
       inkscape:export-filename="logo-footer.svg"
       inkscape:export-xdpi="96"
       inkscape:export-ydpi="96" /></g></svg>
