<?xml version="1.0" encoding="UTF-8" standalone="no"?>
<!-- Created with Inkscape (http://www.inkscape.org/) -->

<svg
   width="223.32747mm"
   height="88.925537mm"
   viewBox="0 0 223.32747 88.925537"
   version="1.1"
   id="svg4094"
   xml:space="preserve"
   sodipodi:docname="new-logo-new.svg"
   xmlns:inkscape="http://www.inkscape.org/namespaces/inkscape"
   xmlns:sodipodi="http://sodipodi.sourceforge.net/DTD/sodipodi-0.dtd"
   xmlns="http://www.w3.org/2000/svg"
   xmlns:svg="http://www.w3.org/2000/svg"><sodipodi:namedview
     id="namedview4096"
     pagecolor="#ffffff"
     bordercolor="#666666"
     borderopacity="1.0"
     inkscape:showpageshadow="2"
     inkscape:pageopacity="0.0"
     inkscape:pagecheckerboard="0"
     inkscape:deskcolor="#d1d1d1"
     inkscape:document-units="mm"
     showgrid="false" /><defs
     id="defs4091" /><g
     inkscape:label="Capa 1"
     inkscape:groupmode="layer"
     id="layer1"
     transform="translate(-77.88737,-285.9467)"><g
       id="g26806"
       transform="translate(19.407361,35.709545)"
       inkscape:export-filename="logo-tipo.svg"
       inkscape:export-xdpi="96"
       inkscape:export-ydpi="96"><path
         id="path26520"
         style="fill:#03876c;fill-opacity:1;stroke-width:0.253504"
         d="m 58.480009,250.23716 v 88.92553 H 103.6487 v -88.92553 z m 2.177184,1.62054 h 20.407164 20.407163 v 42.84223 42.84222 H 81.064357 60.657193 v -42.84222 z m 2.154904,2.1549 -0.06462,23.25871 -0.06462,23.25907 h 1.916874 1.916873 l -0.394738,-0.56332 c -0.582913,-0.83223 -0.490096,-1.89914 0.227633,-2.61686 1.738058,-1.73807 4.452712,0.59914 3.039444,2.61686 l -0.394738,0.56332 h 3.222516 c 3.105802,0 3.20726,-0.0166 2.802901,-0.46343 -0.627734,-0.69364 -0.531522,-1.98248 0.20275,-2.71675 1.738054,-1.73807 4.452344,0.59914 3.039073,2.61686 l -0.394737,0.56332 h 3.056527 c 1.681025,0 3.05652,-0.0394 3.05652,-0.0876 0,-0.0483 -0.173116,-0.43514 -0.384713,-0.85929 -0.679473,-1.36204 0.246377,-2.83137 1.794333,-2.84746 1.539772,-0.016 2.496966,1.60709 1.773164,3.00677 l -0.407363,0.78761 h 3.055039 3.05504 l -0.407363,-0.78761 c -0.479704,-0.92766 -0.327872,-1.78073 0.44524,-2.501 1.567625,-1.46046 4.102065,0.46544 3.114827,2.36694 -0.207343,0.39936 -0.377283,0.77026 -0.377283,0.82401 0,0.0538 0.798658,0.0977 1.774644,0.0977 h 1.774651 v -23.06894 -23.2587 c 0,-0.10457 -8.185268,-0.19014 -18.189128,-0.19014 z m 18.056932,4.65182 c 4.052167,-0.0295 7.337544,1.27945 10.317397,4.11003 4.827262,4.58542 6.00357,11.37922 3.0257,17.47577 -1.762874,3.60913 -5.618109,6.71612 -9.588449,7.72728 -2.017363,0.51378 -5.685823,0.46806 -7.615503,-0.0951 -5.129672,-1.49692 -9.101089,-5.51682 -10.545774,-10.67426 -0.533367,-1.90409 -0.423997,-5.92873 0.216865,-7.98536 1.966288,-6.31006 7.611558,-10.51061 14.189764,-10.5584 z M 80.745,261.03099 c -0.275832,0 -0.534697,0.0119 -0.768312,0.0368 -1.46465,0.15569 -3.707429,0.74965 -4.312405,1.14225 -0.255294,0.16568 0.270673,1.81569 2.323865,7.28947 3.260543,8.69256 2.987499,8.00872 3.139338,7.85688 0.06992,-0.0699 1.244566,-3.50651 2.610539,-7.63705 l 2.483543,-7.51041 -0.803961,-0.33458 c -1.197284,-0.49856 -3.183136,-0.84329 -4.672607,-0.84332 z m 6.449859,1.75051 c -0.01818,1.4e-4 -0.03219,0.005 -0.04125,0.0137 -0.13991,0.13991 5.285595,14.64884 5.481397,14.6584 0.08965,0.004 0.24578,-0.19159 0.346829,-0.43559 0.101048,-0.24399 0.241605,-1.53465 0.3123,-2.86825 0.181258,-3.41924 -0.643363,-5.97638 -2.786926,-8.64376 -0.76395,-0.95063 -2.942465,-2.72742 -3.312382,-2.72454 z m -12.989211,0.31639 c -0.273568,0.0229 -1.073923,0.65372 -2.09252,1.6885 -2.25034,2.28611 -3.597201,5.56057 -3.597201,8.74587 0,1.53931 0.571786,4.43643 0.875628,4.43643 0.05253,0 1.135644,-3.19417 2.406674,-7.09822 1.271038,-3.90407 2.381506,-7.28257 2.467946,-7.50782 0.07269,-0.18942 0.04649,-0.27367 -0.06051,-0.26476 z m 2.422268,15.12406 v 3.53964 3.53927 l 0.950641,0.2462 c 0.522848,0.13553 1.235951,0.30257 1.584519,0.37134 0.901719,0.1778 4.009618,-0.0361 5.133447,-0.35352 l 0.950641,-0.26848 v -3.53704 -3.53741 h -4.309437 z m -5.069945,3.7e-4 c -1.115412,0 -2.027905,0.0614 -2.027905,0.13665 0,0.52897 1.306903,2.48975 2.478344,3.71789 0.770624,0.80792 1.440969,1.46866 1.48946,1.46866 0.04851,0 0.08801,-1.19743 0.08801,-2.66141 v -2.66179 z m 16.763915,0 -0.07984,2.66216 c -0.04383,1.46427 -0.0079,2.66208 0.07984,2.66178 0.08775,-2.6e-4 0.633231,-0.4602 1.212064,-1.02193 1.059917,-1.02862 2.811437,-3.54323 2.811437,-4.0365 0,-0.16292 -0.778322,-0.26551 -2.011938,-0.26551 z m 7.826057,24.81909 v 3.05133 3.05132 l 1.452319,2.91801 c 0.798896,1.60494 1.511998,2.91797 1.584519,2.91802 0.07258,6e-5 0.106485,-2.65224 0.07545,-5.89396 l -0.05687,-5.89396 -1.527707,-0.0754 z m -12.675431,0.006 -2.429325,0.0728 -2.429325,0.0724 0.0065,3.08177 0.0065,3.08141 1.186814,2.3636 1.186813,2.36323 1.223203,-2.40297 1.222837,-2.40296 0.01337,-3.11445 z m -20.787042,0.0182 v 5.95746 c 0,3.27653 0.05582,5.95709 0.124399,5.95709 0.06855,0 0.753013,-1.25296 1.521022,-2.78433 l 1.396621,-2.78433 v -3.17276 -3.17313 H 64.20649 Z m 7.097852,0 v 3.12374 3.12375 l 1.132596,2.32645 c 0.622781,1.27958 1.200164,2.32684 1.283362,2.32684 0.08319,0 0.657357,-1.06854 1.275933,-2.37436 l 1.124799,-2.37437 v -3.07584 -3.07621 h -2.408159 z m 17.491373,0 v 2.89908 2.89908 l 1.182732,2.55112 c 0.650506,1.40315 1.256639,2.5515 1.346858,2.5515 0.09022,0 0.699672,-1.11225 1.354289,-2.47165 h 3.73e-4 l 1.190155,-2.47167 -0.0022,-2.97891 -0.0022,-2.97855 h -2.53516 z m -19.516679,8.87271 c -0.144041,0 -1.178625,2.11394 -1.954007,3.99268 -0.09831,0.2382 0.379436,0.31713 1.9243,0.31713 1.13033,0 2.055013,-0.0615 2.055013,-0.13665 0,-0.3333 -1.863515,-4.17316 -2.025306,-4.17316 z m 8.859502,0 c -0.156258,0 -2.017506,3.84996 -2.017506,4.17316 0,0.0751 0.92204,0.13665 2.049074,0.13665 1.127034,0 2.011248,-0.0927 1.964776,-0.20572 -0.728221,-1.77073 -1.863253,-4.10409 -1.996344,-4.10409 z m 17.564161,0.12032 c -0.02026,7.2e-4 -0.03816,0.009 -0.05382,0.0249 -0.128613,0.12923 -0.636457,1.11927 -1.128514,2.19984 l -0.894935,1.96477 h 2.154902 2.154908 l -0.370233,-0.71632 c -0.203714,-0.39394 -0.665589,-1.38399 -1.026388,-2.19983 -0.357586,-0.80857 -0.670605,-1.28125 -0.835895,-1.27334 z m -8.870647,0.006 c -0.01595,-5e-4 -0.02961,0.005 -0.04082,0.0171 -0.121536,0.12984 -0.625398,1.12038 -1.119603,2.20095 l -0.898277,1.96477 h 2.159364 c 1.187668,0 2.120567,-0.0856 2.073205,-0.19012 -1.168245,-2.57974 -1.934467,-3.98535 -2.173844,-3.99268 z M 70.697568,317.803 c -7.631736,-10e-4 -8.012098,0.0917 -8.012098,0.42854 0,0.25653 0.07658,0.54298 0.170446,0.63685 0.09387,0.0939 8.336046,0.14162 18.315756,0.10583 17.954249,-0.0644 18.144944,-0.0706 18.144944,-0.57223 0,-0.50174 -0.190846,-0.50749 -18.315761,-0.57187 -4.409738,-0.0157 -7.759374,-0.0267 -10.303287,-0.0271 z m 0,2.78879 c -7.631736,-10e-4 -8.012098,0.0913 -8.012098,0.42816 0,0.25654 0.07658,0.54336 0.170446,0.63723 0.09387,0.0939 8.336046,0.14124 18.315756,0.10546 17.954249,-0.0644 18.144944,-0.0701 18.144944,-0.57187 0,-0.50174 -0.190846,-0.50786 -18.315761,-0.57224 -4.409738,-0.0157 -7.759374,-0.0264 -10.303287,-0.0267 z m 10.240159,2.75351 c -18.083214,0 -18.252257,0.005 -18.252257,0.50726 0,0.50257 0.169043,0.50688 18.252257,0.50688 18.083222,0 18.252256,-0.005 18.252256,-0.50688 0,-0.50223 -0.169034,-0.50726 -18.252256,-0.50726 z m -18.12563,2.66179 -0.08132,0.57224 -0.08095,0.57187 18.333207,-0.065 c 18.142757,-0.0644 18.333592,-0.0701 18.333592,-0.57187 0,-0.50223 -0.16904,-0.50726 -18.252262,-0.50726 z m -0.126627,2.65844 v 0.63723 0.63723 l 18.315385,-0.0653 c 18.124915,-0.0644 18.315761,-0.0702 18.315761,-0.57187 0,-0.50175 -0.190846,-0.50785 -18.315761,-0.57223 z m 8.012098,2.82667 c -7.631736,-0.001 -8.012098,0.0916 -8.012098,0.42853 0,0.25653 0.07658,0.54298 0.170446,0.63685 0.09387,0.0939 8.336046,0.14162 18.315756,0.10584 17.954249,-0.0644 18.144944,-0.0706 18.144944,-0.57224 0,-0.50174 -0.190846,-0.50749 -18.315761,-0.57187 -4.409738,-0.0157 -7.759374,-0.0267 -10.303287,-0.0271 z m 10.197826,2.75388 c -18.040969,0 -18.209924,0.005 -18.209924,0.50688 0,0.50223 0.169054,0.50726 18.225151,0.50726 15.401484,0 18.246163,-0.0554 18.361425,-0.35575 0.075,-0.19551 0.0681,-0.42353 -0.0152,-0.50688 -0.08334,-0.0833 -8.345956,-0.15151 -18.361436,-0.15151 z"
         inkscape:export-filename="new-logo-new.svg"
         inkscape:export-xdpi="96"
         inkscape:export-ydpi="96" /><path
         id="path26522"
         style="font-weight:bold;font-size:9.54059px;line-height:1.25;font-family:Montserrat;-inkscape-font-specification:'Montserrat, Bold';fill:#03876c;fill-opacity:1;stroke-width:1.19257"
         d="m 155.6715,258.17052 c -0.2735,0 -0.49594,0.0797 -0.66766,0.23874 -0.17174,0.15901 -0.25787,0.35584 -0.25787,0.59118 0,0.23533 0.0861,0.43269 0.25787,0.59169 0.17172,0.15902 0.39416,0.23875 0.66766,0.23875 0.27349,0 0.49592,-0.0797 0.66766,-0.23875 0.17173,-0.16536 0.25786,-0.37205 0.25786,-0.62011 0,-0.22898 -0.0861,-0.41993 -0.25786,-0.57258 -0.17174,-0.15265 -0.39417,-0.22892 -0.66766,-0.22892 z m 54.73412,0 c -0.2735,0 -0.49593,0.0797 -0.66766,0.23874 -0.17173,0.15901 -0.25786,0.35584 -0.25786,0.59118 0,0.23533 0.0861,0.43269 0.25786,0.59169 0.17173,0.15902 0.39416,0.23875 0.66766,0.23875 0.2735,0 0.49593,-0.0797 0.66766,-0.23875 0.17174,-0.16536 0.25787,-0.37205 0.25787,-0.62011 0,-0.22898 -0.0861,-0.41993 -0.25787,-0.57258 -0.17173,-0.15265 -0.39416,-0.22892 -0.66766,-0.22892 z m 7.93802,0 c -0.27349,0 -0.49644,0.0797 -0.66818,0.23874 -0.17172,0.15901 -0.25734,0.35584 -0.25734,0.59118 0,0.23533 0.0856,0.43269 0.25734,0.59169 0.17174,0.15902 0.39469,0.23875 0.66818,0.23875 0.2735,0 0.49593,-0.0797 0.66766,-0.23875 0.17173,-0.16536 0.25735,-0.37205 0.25735,-0.62011 0,-0.22898 -0.0856,-0.41993 -0.25735,-0.57258 -0.17173,-0.15265 -0.39416,-0.22892 -0.66766,-0.22892 z m 4.97024,0.34364 -1.28778,1.37356 h 1.16376 l 1.72702,-1.37356 z m -47.65497,0.0858 v 2.49028 c -0.3689,-0.41342 -0.88071,-0.62011 -1.53583,-0.62011 -0.48339,0 -0.92237,0.10776 -1.31671,0.32401 -0.38798,0.21625 -0.6931,0.52482 -0.91571,0.92552 -0.22261,0.40071 -0.33434,0.86529 -0.33434,1.3932 0,0.52791 0.11173,0.99197 0.33434,1.39268 0.22261,0.4007 0.52773,0.70927 0.91571,0.92552 0.39434,0.21626 0.83332,0.32453 1.31671,0.32453 0.69964,0 1.23358,-0.22295 1.60249,-0.66817 v 0.59169 h 1.42162 v -7.07915 z m 64.09376,0 v 2.49028 c -0.36891,-0.41342 -0.88122,-0.62011 -1.53634,-0.62011 -0.48339,0 -0.92237,0.10776 -1.31672,0.32401 -0.38798,0.21625 -0.69309,0.52482 -0.9157,0.92552 -0.22262,0.40071 -0.33383,0.86529 -0.33383,1.3932 0,0.52791 0.11121,0.99197 0.33383,1.39268 0.22261,0.4007 0.52772,0.70927 0.9157,0.92552 0.39435,0.21626 0.83333,0.32453 1.31672,0.32453 0.69964,0 1.2341,-0.22295 1.603,-0.66817 v 0.59169 h 1.42162 v -7.07915 z m -127.51005,0.28628 c -0.68692,0 -1.307,0.14962 -1.86035,0.44856 -0.54699,0.29257 -0.97957,0.7025 -1.29759,1.23041 -0.31166,0.52155 -0.46716,1.11309 -0.46716,1.77457 0,0.66148 0.1555,1.25647 0.46716,1.78439 0.31802,0.52155 0.7506,0.93147 1.29759,1.23041 0.55335,0.29258 1.17049,0.43925 1.85105,0.43925 0.57879,0 1.10339,-0.10187 1.57407,-0.3054 0.47066,-0.20354 0.86485,-0.4993 1.18287,-0.88729 l -0.99219,-0.91622 c -0.45158,0.5279 -1.01113,0.7922 -1.67897,0.7922 -0.41342,0 -0.78253,-0.0891 -1.10691,-0.26717 -0.32437,-0.18445 -0.5788,-0.43888 -0.76326,-0.76326 -0.17809,-0.32438 -0.26665,-0.69348 -0.26665,-1.10691 0,-0.41343 0.0886,-0.78201 0.26665,-1.10639 0.18446,-0.32438 0.43889,-0.57587 0.76326,-0.75396 0.32438,-0.18445 0.69349,-0.27647 1.10691,-0.27647 0.66784,0 1.22739,0.26083 1.67897,0.78238 l 0.99219,-0.91622 c -0.31802,-0.38162 -0.71221,-0.67393 -1.18287,-0.87747 -0.46432,-0.20353 -0.98597,-0.30541 -1.56477,-0.30541 z m 38.71599,0.52452 v 1.25005 h -0.7922 v 1.14464 h 0.7922 v 2.10839 c 0,0.60424 0.16535,1.06243 0.49609,1.37408 0.3371,0.31166 0.81102,0.46767 1.42162,0.46767 0.23533,0 0.45776,-0.0256 0.66766,-0.0765 0.21625,-0.0572 0.39735,-0.13992 0.54363,-0.24805 l -0.40049,-1.04954 c -0.16537,0.1272 -0.36566,0.19068 -0.601,0.19068 -0.20353,0 -0.36248,-0.0571 -0.47697,-0.17156 -0.10813,-0.12085 -0.16226,-0.28966 -0.16226,-0.50592 v -2.08927 h 1.27847 v -1.14464 h -1.27847 v -1.25005 z m -32.77216,1.05937 c -0.54064,0 -1.02684,0.11416 -1.45935,0.34313 -0.42614,0.22261 -0.7603,0.53464 -1.002,0.93534 -0.2417,0.4007 -0.36277,0.85543 -0.36277,1.36426 0,0.50883 0.12107,0.96356 0.36277,1.36426 0.2417,0.4007 0.57586,0.71515 1.002,0.94413 0.43251,0.22261 0.91871,0.33434 1.45935,0.33434 0.54063,0 1.02441,-0.11173 1.45055,-0.33434 0.42615,-0.22898 0.7598,-0.54343 1.00149,-0.94413 0.2417,-0.4007 0.36277,-0.85543 0.36277,-1.36426 0,-0.50883 -0.12107,-0.96356 -0.36277,-1.36426 -0.24169,-0.4007 -0.57534,-0.71273 -1.00149,-0.93534 -0.42614,-0.22897 -0.90992,-0.34313 -1.45055,-0.34313 z m 6.24923,0 c -0.54064,0 -1.02736,0.11416 -1.45986,0.34313 -0.42615,0.22261 -0.7598,0.53464 -1.00149,0.93534 -0.24169,0.4007 -0.36277,0.85543 -0.36277,1.36426 0,0.50883 0.12108,0.96356 0.36277,1.36426 0.24169,0.4007 0.57534,0.71515 1.00149,0.94413 0.4325,0.22261 0.91922,0.33434 1.45986,0.33434 0.54063,0 1.02389,-0.11173 1.45004,-0.33434 0.42614,-0.22898 0.76031,-0.54343 1.002,-0.94413 0.2417,-0.4007 0.36226,-0.85543 0.36226,-1.36426 0,-0.50883 -0.12056,-0.96356 -0.36226,-1.36426 -0.24169,-0.4007 -0.57586,-0.71273 -1.002,-0.93534 -0.42615,-0.22897 -0.90941,-0.34313 -1.45004,-0.34313 z m 6.84041,0 c -0.706,0 -1.2434,0.22243 -1.61231,0.66766 v -0.5917 h -1.42162 v 6.98407 h 1.48828 v -2.39468 c 0.37526,0.41342 0.89053,0.62011 1.54565,0.62011 0.47703,0 0.90961,-0.10827 1.29759,-0.32453 0.39435,-0.22261 0.70291,-0.53118 0.92553,-0.92552 0.22261,-0.40071 0.33383,-0.86477 0.33383,-1.39268 0,-0.52791 -0.11122,-0.98903 -0.33383,-1.38338 -0.22262,-0.4007 -0.53118,-0.70927 -0.92553,-0.92552 -0.38798,-0.22262 -0.82056,-0.33383 -1.29759,-0.33383 z m 5.90558,0 c -0.51519,0 -0.98271,0.11416 -1.4025,0.34313 -0.41343,0.22261 -0.74068,0.53758 -0.98237,0.94464 -0.23533,0.4007 -0.35295,0.85249 -0.35295,1.35496 0,0.50883 0.12056,0.96356 0.36225,1.36426 0.2417,0.4007 0.58521,0.71515 1.03043,0.94413 0.44523,0.22261 0.95754,0.33434 1.53634,0.33434 0.92861,0 1.63431,-0.27708 2.1177,-0.83044 l -0.79168,-0.85834 c -0.17809,0.17173 -0.37198,0.29869 -0.58188,0.38137 -0.20353,0.0763 -0.43928,0.11472 -0.70641,0.11472 -0.38799,0 -0.7123,-0.0925 -0.97307,-0.27699 -0.26077,-0.18444 -0.42613,-0.43542 -0.4961,-0.75344 h 3.88297 c 0.0191,-0.24807 0.0289,-0.38142 0.0289,-0.40049 0,-0.53427 -0.11762,-1.00179 -0.35295,-1.4025 -0.22897,-0.40706 -0.5474,-0.71909 -0.95446,-0.93534 -0.40707,-0.21625 -0.86179,-0.32401 -1.36426,-0.32401 z m 6.85023,0 c -0.39435,0 -0.74425,0.0635 -1.04955,0.19068 -0.29894,0.12721 -0.53712,0.31471 -0.7152,0.56276 v -0.67748 h -1.42162 v 5.13302 h 1.48828 V 263.256 c 0,-0.47703 0.12056,-0.83333 0.36225,-1.06867 0.24169,-0.24169 0.57586,-0.36276 1.00201,-0.36276 0.0572,0 0.16845,0.006 0.33383,0.0191 z m 2.92902,0 c -0.41343,0 -0.81747,0.0536 -1.21182,0.16174 -0.38797,0.10813 -0.72162,0.2612 -1.00148,0.45837 l 0.53433,1.03973 c 0.18445,-0.14628 0.40688,-0.26096 0.66766,-0.34364 0.26713,-0.0891 0.5373,-0.13333 0.8108,-0.13333 0.39434,0 0.69011,0.0891 0.88729,0.26717 0.19717,0.17172 0.2961,0.41976 0.2961,0.74414 h -1.18339 c -0.75052,0 -1.30712,0.13681 -1.66966,0.41031 -0.35618,0.27349 -0.53382,0.64848 -0.53382,1.12551 0,0.29894 0.0763,0.56617 0.22893,0.8015 0.15265,0.23534 0.37214,0.41989 0.65835,0.55346 0.29258,0.13356 0.63557,0.2005 1.02992,0.2005 0.76324,0 1.2849,-0.23869 1.56476,-0.71572 v 0.63924 h 1.39319 v -2.92902 c 0,-0.76324 -0.21309,-1.33264 -0.63923,-1.7079 -0.42615,-0.38162 -1.03689,-0.57206 -1.83193,-0.57206 z m 18.44177,0 c -0.41343,0 -0.81695,0.0536 -1.2113,0.16174 -0.38798,0.10813 -0.72215,0.2612 -1.00201,0.45837 l 0.53434,1.03973 c 0.18445,-0.14628 0.40688,-0.26096 0.66766,-0.34364 0.26713,-0.0891 0.53782,-0.13333 0.81132,-0.13333 0.39434,0 0.69011,0.0891 0.88728,0.26717 0.19718,0.17172 0.29559,0.41976 0.29559,0.74414 h -1.18287 c -0.75053,0 -1.30712,0.13681 -1.66967,0.41031 -0.35618,0.27349 -0.53433,0.64848 -0.53433,1.12551 0,0.29894 0.0763,0.56617 0.22892,0.8015 0.15266,0.23534 0.37215,0.41989 0.65836,0.55346 0.29258,0.13356 0.63608,0.2005 1.03043,0.2005 0.76325,0 1.2849,-0.23869 1.56476,-0.71572 v 0.63924 h 1.39268 v -2.92902 c 0,-0.76324 -0.21309,-1.33264 -0.63923,-1.7079 -0.42615,-0.38162 -1.03689,-0.57206 -1.83193,-0.57206 z m 15.47502,0 c -0.51519,0 -0.98271,0.11416 -1.4025,0.34313 -0.41342,0.22261 -0.74119,0.53758 -0.98288,0.94464 -0.23534,0.4007 -0.35295,0.85249 -0.35295,1.35496 0,0.50883 0.12107,0.96356 0.36276,1.36426 0.2417,0.4007 0.58521,0.71515 1.03043,0.94413 0.44524,0.22261 0.95703,0.33434 1.53583,0.33434 0.92862,0 1.63483,-0.27708 2.11821,-0.83044 l -0.7922,-0.85834 c -0.17809,0.17173 -0.37199,0.29869 -0.58187,0.38137 -0.20354,0.0763 -0.43876,0.11472 -0.7059,0.11472 -0.38798,0 -0.71229,-0.0925 -0.97307,-0.27699 -0.26077,-0.18444 -0.42613,-0.43542 -0.49609,-0.75344 h 3.88296 c 0.0191,-0.24807 0.0284,-0.38142 0.0284,-0.40049 0,-0.53427 -0.11761,-1.00179 -0.35295,-1.4025 -0.22897,-0.40706 -0.54688,-0.71909 -0.95394,-0.93534 -0.40707,-0.21625 -0.86179,-0.32401 -1.36426,-0.32401 z m 9.39736,0 c -0.70601,0 -1.24341,0.22243 -1.61231,0.66766 v -0.5917 h -1.42161 v 6.98407 h 1.48828 v -2.39468 c 0.37526,0.41342 0.89052,0.62011 1.54564,0.62011 0.47703,0 0.90961,-0.10827 1.29759,-0.32453 0.39434,-0.22261 0.70292,-0.53118 0.92553,-0.92552 0.22261,-0.40071 0.33383,-0.86477 0.33383,-1.39268 0,-0.52791 -0.11122,-0.98903 -0.33383,-1.38338 -0.22261,-0.4007 -0.53119,-0.70927 -0.92553,-0.92552 -0.38798,-0.22262 -0.82056,-0.33383 -1.29759,-0.33383 z m 6.73551,0 c -0.39435,0 -0.74425,0.0635 -1.04955,0.19068 -0.29894,0.12721 -0.53711,0.31471 -0.7152,0.56276 v -0.67748 h -1.42162 v 5.13302 h 1.48828 V 263.256 c 0,-0.47703 0.12107,-0.83333 0.36277,-1.06867 0.24169,-0.24169 0.57534,-0.36276 1.00149,-0.36276 0.0572,0 0.16845,0.006 0.33383,0.0191 z m 3.28197,0 c -0.54064,0 -1.02684,0.11416 -1.45935,0.34313 -0.42614,0.22261 -0.7603,0.53464 -1.002,0.93534 -0.2417,0.4007 -0.36225,0.85543 -0.36225,1.36426 0,0.50883 0.12055,0.96356 0.36225,1.36426 0.2417,0.4007 0.57586,0.71515 1.002,0.94413 0.43251,0.22261 0.91871,0.33434 1.45935,0.33434 0.54063,0 1.02441,-0.11173 1.45055,-0.33434 0.42614,-0.22898 0.75979,-0.54343 1.00149,-0.94413 0.2417,-0.4007 0.36277,-0.85543 0.36277,-1.36426 0,-0.50883 -0.12107,-0.96356 -0.36277,-1.36426 -0.2417,-0.4007 -0.57535,-0.71273 -1.00149,-0.93534 -0.42614,-0.22897 -0.90992,-0.34313 -1.45055,-0.34313 z m 14.24409,0 c -0.48976,0 -0.91594,0.0699 -1.27848,0.2098 -0.35618,0.13993 -0.62929,0.33676 -0.8201,0.59118 -0.18446,0.24805 -0.27699,0.53448 -0.27699,0.85886 0,0.38799 0.0989,0.6867 0.29611,0.89659 0.20353,0.20989 0.44171,0.35656 0.7152,0.43925 0.2735,0.0827 0.62046,0.15551 1.04025,0.21911 0.35618,0.0445 0.61995,0.0987 0.79168,0.16226 0.17173,0.0636 0.25735,0.16842 0.25735,0.31471 0,0.31165 -0.31445,0.46767 -0.94413,0.46767 -0.31165,0 -0.63008,-0.0443 -0.95446,-0.13332 -0.32438,-0.0954 -0.60095,-0.21648 -0.82993,-0.36277 l -0.49609,1.06867 c 0.2417,0.159 0.56601,0.29236 0.97307,0.40049 0.40706,0.10177 0.8239,0.15296 1.25005,0.15296 0.50247,0 0.93505,-0.0669 1.29759,-0.2005 0.36891,-0.13993 0.64842,-0.33383 0.83923,-0.58188 0.19081,-0.24806 0.28629,-0.53102 0.28629,-0.84904 0,-0.37526 -0.0984,-0.66809 -0.29559,-0.87798 -0.19718,-0.2099 -0.42947,-0.35311 -0.6966,-0.42944 -0.26713,-0.0827 -0.61064,-0.15896 -1.03043,-0.22892 -0.37527,-0.0573 -0.64838,-0.11779 -0.8201,-0.18139 -0.17174,-0.0636 -0.25787,-0.17482 -0.25787,-0.33383 0,-0.13993 0.0797,-0.25408 0.23875,-0.34313 0.15901,-0.089 0.39718,-0.13384 0.7152,-0.13384 0.53427,0 1.02739,0.12748 1.47898,0.38189 l 0.49609,-1.05937 c -0.23533,-0.13992 -0.53456,-0.24768 -0.8971,-0.32401 -0.35619,-0.0827 -0.71543,-0.12402 -1.07797,-0.12402 z m 8.37675,0 c -0.54064,0 -1.02736,0.11416 -1.45986,0.34313 -0.42615,0.22261 -0.7598,0.53464 -1.00149,0.93534 -0.24169,0.4007 -0.36277,0.85543 -0.36277,1.36426 0,0.50883 0.12108,0.96356 0.36277,1.36426 0.24169,0.4007 0.57534,0.71515 1.00149,0.94413 0.4325,0.22261 0.91922,0.33434 1.45986,0.33434 0.54063,0 1.02389,-0.11173 1.45004,-0.33434 0.42614,-0.22898 0.76031,-0.54343 1.002,-0.94413 0.2417,-0.4007 0.36226,-0.85543 0.36226,-1.36426 0,-0.50883 -0.12056,-0.96356 -0.36226,-1.36426 -0.24169,-0.4007 -0.57586,-0.71273 -1.002,-0.93534 -0.42615,-0.22897 -0.90941,-0.34313 -1.45004,-0.34313 z m 6.92619,0 c -0.34982,0 -0.67067,0.06 -0.96325,0.18086 -0.29258,0.11449 -0.53767,0.27985 -0.73484,0.4961 v -0.601 h -1.42162 v 5.13302 h 1.48828 v -2.53783 c 0,-0.45794 0.11174,-0.80145 0.33435,-1.03043 0.22261,-0.23533 0.52132,-0.35295 0.89659,-0.35295 0.3371,0 0.59499,0.10188 0.77308,0.30541 0.17809,0.19717 0.26665,0.49934 0.26665,0.90641 v 2.70939 h 1.48879 v -2.93832 c 0,-0.75053 -0.19735,-1.31698 -0.59169,-1.6986 -0.38799,-0.38162 -0.9003,-0.57206 -1.53634,-0.57206 z m 15.13189,0 c -0.51519,0 -0.98271,0.11416 -1.4025,0.34313 -0.41342,0.22261 -0.74118,0.53758 -0.98288,0.94464 -0.23534,0.4007 -0.35295,0.85249 -0.35295,1.35496 0,0.50883 0.12056,0.96356 0.36225,1.36426 0.2417,0.4007 0.5852,0.71515 1.03043,0.94413 0.44522,0.22261 0.95755,0.33434 1.53634,0.33434 0.92862,0 1.63431,-0.27708 2.1177,-0.83044 l -0.79168,-0.85834 c -0.1781,0.17173 -0.37199,0.29869 -0.58188,0.38137 -0.20353,0.0763 -0.43877,0.11472 -0.7059,0.11472 -0.38799,0 -0.71281,-0.0925 -0.97359,-0.27699 -0.26077,-0.18444 -0.42612,-0.43542 -0.49609,-0.75344 h 3.88348 c 0.0191,-0.24807 0.0284,-0.38142 0.0284,-0.40049 0,-0.53427 -0.11761,-1.00179 -0.35295,-1.4025 -0.22898,-0.40706 -0.54689,-0.71909 -0.95395,-0.93534 -0.40707,-0.21625 -0.86179,-0.32401 -1.36426,-0.32401 z m -90.04411,0.076 v 5.13302 h 1.48828 v -5.13302 z m 2.10839,0 2.15595,5.13302 h 1.53634 l 2.16575,-5.13302 h -1.43143 l -1.46916,3.49178 -1.42162,-3.49178 z m 46.15739,0 2.15594,5.13302 h 1.53634 l 2.16576,-5.13302 h -1.43143 l -1.46916,3.49178 -1.42162,-3.49178 z m 6.46834,0 v 5.13302 h 1.48828 v -5.13302 z m 7.93802,0 v 5.13302 h 1.48828 v -5.13302 z m -80.40801,1.04955 c 0.33074,0 0.61025,0.0984 0.83922,0.29559 0.22899,0.19081 0.36927,0.4487 0.42013,0.77308 h -2.52853 c 0.0509,-0.33074 0.19116,-0.59157 0.42013,-0.78238 0.22898,-0.19081 0.51195,-0.28629 0.84905,-0.28629 z m 43.69552,0 c 0.33074,0 0.61077,0.0984 0.83974,0.29559 0.229,0.19081 0.36875,0.4487 0.41962,0.77308 h -2.52801 c 0.0509,-0.33074 0.19063,-0.59157 0.41961,-0.78238 0.22897,-0.19081 0.51194,-0.28629 0.84904,-0.28629 z m 64.09376,0 c 0.33074,0 0.61077,0.0984 0.83975,0.29559 0.22899,0.19081 0.36874,0.4487 0.41961,0.77308 h -2.52853 c 0.0509,-0.33074 0.19116,-0.59157 0.42013,-0.78238 0.22897,-0.19081 0.51194,-0.28629 0.84904,-0.28629 z m -126.79432,0.0956 c 0.38162,0 0.69365,0.13041 0.93534,0.39119 0.24806,0.25441 0.37207,0.59792 0.37207,1.03043 0,0.43251 -0.12401,0.77896 -0.37207,1.03973 -0.24169,0.25442 -0.55372,0.38137 -0.93534,0.38137 -0.38163,0 -0.69608,-0.12695 -0.94413,-0.38137 -0.24806,-0.26077 -0.37259,-0.60722 -0.37259,-1.03973 0,-0.43251 0.12453,-0.77602 0.37259,-1.03043 0.24805,-0.26078 0.5625,-0.39119 0.94413,-0.39119 z m 6.24923,0 c 0.38162,0 0.69313,0.13041 0.93482,0.39119 0.24806,0.25441 0.37207,0.59792 0.37207,1.03043 0,0.43251 -0.12401,0.77896 -0.37207,1.03973 -0.24169,0.25442 -0.5532,0.38137 -0.93482,0.38137 -0.38162,0 -0.69659,-0.12695 -0.94465,-0.38137 -0.24805,-0.26077 -0.37207,-0.60722 -0.37207,-1.03973 0,-0.43251 0.12402,-0.77602 0.37207,-1.03043 0.24806,-0.26078 0.56303,-0.39119 0.94465,-0.39119 z m 6.58306,0 c 0.38162,0 0.69312,0.13041 0.93482,0.39119 0.24806,0.25441 0.37207,0.59792 0.37207,1.03043 0,0.43251 -0.12401,0.77896 -0.37207,1.03973 -0.2417,0.25442 -0.5532,0.38137 -0.93482,0.38137 -0.38163,0 -0.69659,-0.12695 -0.94465,-0.38137 -0.24169,-0.26077 -0.36225,-0.60722 -0.36225,-1.03973 0,-0.43251 0.12056,-0.77602 0.36225,-1.03043 0.24806,-0.26078 0.56302,-0.39119 0.94465,-0.39119 z m 43.36169,0 c 0.37527,0 0.68678,0.13041 0.93483,0.39119 0.24805,0.25441 0.37207,0.59792 0.37207,1.03043 0,0.43251 -0.12402,0.77896 -0.37207,1.03973 -0.24805,0.25442 -0.55956,0.38137 -0.93483,0.38137 -0.38162,0 -0.69658,-0.12695 -0.94464,-0.38137 -0.24806,-0.26077 -0.37207,-0.60722 -0.37207,-1.03973 0,-0.43251 0.12401,-0.77602 0.37207,-1.03043 0.24806,-0.26078 0.56302,-0.39119 0.94464,-0.39119 z m 15.63729,0 c 0.38163,0 0.69313,0.13041 0.93483,0.39119 0.24805,0.25441 0.37207,0.59792 0.37207,1.03043 0,0.43251 -0.12402,0.77896 -0.37207,1.03973 -0.2417,0.25442 -0.5532,0.38137 -0.93483,0.38137 -0.38162,0 -0.69658,-0.12695 -0.94464,-0.38137 -0.2417,-0.26077 -0.36277,-0.60722 -0.36277,-1.03973 0,-0.43251 0.12107,-0.77602 0.36277,-1.03043 0.24806,-0.26078 0.56302,-0.39119 0.94464,-0.39119 z m 10.27483,0 c 0.38162,0 0.69365,0.13041 0.93534,0.39119 0.24806,0.25441 0.37207,0.59792 0.37207,1.03043 0,0.43251 -0.12401,0.77896 -0.37207,1.03973 -0.24169,0.25442 -0.55372,0.38137 -0.93534,0.38137 -0.38163,0 -0.69608,-0.12695 -0.94413,-0.38137 -0.24806,-0.26077 -0.37207,-0.60722 -0.37207,-1.03973 0,-0.43251 0.12401,-0.77602 0.37207,-1.03043 0.24805,-0.26078 0.5625,-0.39119 0.94413,-0.39119 z m 22.62084,0 c 0.38162,0 0.69313,0.13041 0.93482,0.39119 0.24806,0.25441 0.37207,0.59792 0.37207,1.03043 0,0.43251 -0.12401,0.77896 -0.37207,1.03973 -0.24169,0.25442 -0.5532,0.38137 -0.93482,0.38137 -0.38162,0 -0.69659,-0.12695 -0.94465,-0.38137 -0.24805,-0.26077 -0.37207,-0.60722 -0.37207,-1.03973 0,-0.43251 0.12402,-0.77602 0.37207,-1.03043 0.24806,-0.26078 0.56303,-0.39119 0.94465,-0.39119 z m 15.5608,0 c 0.37526,0 0.68678,0.13041 0.93483,0.39119 0.24806,0.25441 0.37207,0.59792 0.37207,1.03043 0,0.43251 -0.12401,0.77896 -0.37207,1.03973 -0.24805,0.25442 -0.55957,0.38137 -0.93483,0.38137 -0.38162,0 -0.69659,-0.12695 -0.94464,-0.38137 -0.24806,-0.26077 -0.37207,-0.60722 -0.37207,-1.03973 0,-0.43251 0.12401,-0.77602 0.37207,-1.03043 0.24805,-0.26078 0.56302,-0.39119 0.94464,-0.39119 z m -91.55151,1.84123 h 1.02112 v 0.52452 c -0.0827,0.22897 -0.22295,0.40418 -0.42013,0.52503 -0.19716,0.11449 -0.42305,0.17157 -0.67747,0.17157 -0.26078,0 -0.46747,-0.0541 -0.62012,-0.16227 -0.14629,-0.11448 -0.21911,-0.26704 -0.21911,-0.45785 0,-0.4007 0.30511,-0.601 0.91571,-0.601 z m 18.44176,0 h 1.02113 v 0.52452 c -0.0827,0.22897 -0.22244,0.40418 -0.41961,0.52503 -0.19717,0.11449 -0.42306,0.17157 -0.67748,0.17157 -0.26077,0 -0.46746,-0.0541 -0.62012,-0.16227 -0.14628,-0.11448 -0.21962,-0.26704 -0.21962,-0.45785 0,-0.4007 0.30511,-0.601 0.9157,-0.601 z m -26.45574,6.62854 c -0.2735,0 -0.49594,0.0792 -0.66766,0.23823 -0.17174,0.15901 -0.25787,0.35636 -0.25787,0.59169 0,0.23534 0.0861,0.43268 0.25787,0.5917 0.17172,0.159 0.39416,0.23823 0.66766,0.23823 0.27349,0 0.49592,-0.0792 0.66765,-0.23823 0.17173,-0.16538 0.25787,-0.37207 0.25787,-0.62012 0,-0.22897 -0.0861,-0.41992 -0.25787,-0.57257 -0.17173,-0.15265 -0.39416,-0.22893 -0.66765,-0.22893 z m 8.51007,0 c -0.2735,0 -0.49593,0.0792 -0.66766,0.23823 -0.17173,0.15901 -0.25786,0.35636 -0.25786,0.59169 0,0.23534 0.0861,0.43268 0.25786,0.5917 0.17173,0.159 0.39416,0.23823 0.66766,0.23823 0.27349,0 0.49644,-0.0792 0.66818,-0.23823 0.17173,-0.16538 0.25735,-0.37207 0.25735,-0.62012 0,-0.22897 -0.0856,-0.41992 -0.25735,-0.57257 -0.17174,-0.15265 -0.39469,-0.22893 -0.66818,-0.22893 z m 49.28691,0 c -0.2735,0 -0.49644,0.0792 -0.66817,0.23823 -0.17173,0.15901 -0.25735,0.35636 -0.25735,0.59169 0,0.23534 0.0856,0.43268 0.25735,0.5917 0.17173,0.159 0.39467,0.23823 0.66817,0.23823 0.2735,0 0.49593,-0.0792 0.66766,-0.23823 0.17173,-0.16538 0.25735,-0.37207 0.25735,-0.62012 0,-0.22897 -0.0856,-0.41992 -0.25735,-0.57257 -0.17173,-0.15265 -0.39416,-0.22893 -0.66766,-0.22893 z m 8.51008,0 c -0.27349,0 -0.49644,0.0792 -0.66818,0.23823 -0.17173,0.15901 -0.25735,0.35636 -0.25735,0.59169 0,0.23534 0.0856,0.43268 0.25735,0.5917 0.17174,0.159 0.39469,0.23823 0.66818,0.23823 0.2735,0 0.49593,-0.0792 0.66766,-0.23823 0.17173,-0.16538 0.25786,-0.37207 0.25786,-0.62012 0,-0.22897 -0.0861,-0.41992 -0.25786,-0.57257 -0.17173,-0.15265 -0.39416,-0.22893 -0.66766,-0.22893 z m 39.87922,0 c -0.2735,0 -0.49593,0.0792 -0.66766,0.23823 -0.17173,0.15901 -0.25735,0.35636 -0.25735,0.59169 0,0.23534 0.0856,0.43268 0.25735,0.5917 0.17173,0.159 0.39416,0.23823 0.66766,0.23823 0.27349,0 0.49644,-0.0792 0.66818,-0.23823 0.17172,-0.16538 0.25734,-0.37207 0.25734,-0.62012 0,-0.22897 -0.0856,-0.41992 -0.25734,-0.57257 -0.17174,-0.15265 -0.39469,-0.22893 -0.66818,-0.22893 z m -13.7666,0.34313 -1.2883,1.37408 h 1.16427 l 1.72651,-1.37408 z m -115.99447,0.0863 v 7.07915 h 1.48828 v -7.07915 z m 37.9522,0 v 2.48977 c -0.3689,-0.41343 -0.8807,-0.62012 -1.53582,-0.62012 -0.48339,0 -0.92237,0.10828 -1.31672,0.32453 -0.38798,0.21625 -0.69308,0.52482 -0.9157,0.92553 -0.22262,0.4007 -0.33383,0.86476 -0.33383,1.39268 0,0.52791 0.11121,0.99249 0.33383,1.39319 0.22262,0.40071 0.52772,0.70927 0.9157,0.92553 0.39435,0.21625 0.83333,0.32401 1.31672,0.32401 0.69964,0 1.2341,-0.22243 1.603,-0.66766 v 0.59169 h 1.42162 v -7.07915 z m 12.54601,0 v 2.48977 c -0.3689,-0.41343 -0.88071,-0.62012 -1.53583,-0.62012 -0.48339,0 -0.92237,0.10828 -1.31671,0.32453 -0.38799,0.21625 -0.6931,0.52482 -0.91571,0.92553 -0.22261,0.4007 -0.33435,0.86476 -0.33435,1.39268 0,0.52791 0.11174,0.99249 0.33435,1.39319 0.22261,0.40071 0.52772,0.70927 0.91571,0.92553 0.39434,0.21625 0.83332,0.32401 1.31671,0.32401 0.69964,0 1.23358,-0.22243 1.60249,-0.66766 v 0.59169 h 1.42162 v -7.07915 z m 69.064,0 v 7.07915 h 1.42162 v -0.59169 c 0.3689,0.44523 0.9063,0.66766 1.6123,0.66766 0.47703,0 0.90961,-0.10776 1.2976,-0.32401 0.39434,-0.22262 0.7029,-0.53118 0.92552,-0.92553 0.22261,-0.4007 0.33383,-0.86528 0.33383,-1.39319 0,-0.52792 -0.11122,-0.98904 -0.33383,-1.38338 -0.22262,-0.40071 -0.53118,-0.70927 -0.92552,-0.92553 -0.38799,-0.22261 -0.82057,-0.33383 -1.2976,-0.33383 -0.65512,0 -1.16986,0.20669 -1.54512,0.62012 v -2.48977 z m 6.58306,0 v 7.07915 h 1.48828 v -7.07915 z m -65.05701,0.28577 c -0.61059,0 -1.1288,0.0925 -1.55495,0.27699 -0.41978,0.18445 -0.73475,0.43542 -0.94464,0.75344 -0.20989,0.31165 -0.31471,0.66156 -0.31471,1.04955 0,0.44522 0.11416,0.80153 0.34313,1.06867 0.23533,0.26713 0.51536,0.46103 0.83974,0.58187 0.32438,0.12085 0.74122,0.24192 1.25006,0.36277 0.33074,0.0763 0.59105,0.14621 0.78186,0.20981 0.19717,0.0636 0.35664,0.14922 0.47749,0.25735 0.12721,0.10176 0.19069,0.23217 0.19069,0.39119 0,0.21625 -0.10482,0.39146 -0.31471,0.52503 -0.2099,0.12721 -0.53472,0.19068 -0.97359,0.19068 -0.39434,0 -0.78853,-0.0635 -1.18287,-0.19068 -0.39435,-0.12721 -0.73439,-0.29602 -1.02061,-0.50591 l -0.52503,1.16427 c 0.29894,0.22897 0.69364,0.41646 1.18339,0.56275 0.49611,0.13993 1.00791,0.20981 1.53582,0.20981 0.6106,0 1.1288,-0.092 1.55495,-0.27647 0.42614,-0.18445 0.74457,-0.43249 0.95446,-0.74414 0.21625,-0.31802 0.32401,-0.66792 0.32401,-1.04955 0,-0.44523 -0.11762,-0.79859 -0.35295,-1.05937 -0.22897,-0.26078 -0.50554,-0.45121 -0.82992,-0.57205 -0.32438,-0.12085 -0.74122,-0.24193 -1.25006,-0.36277 -0.48974,-0.10813 -0.85539,-0.2164 -1.09709,-0.32453 -0.23534,-0.11449 -0.35295,-0.28572 -0.35295,-0.5147 0,-0.22898 0.10188,-0.41353 0.30541,-0.55345 0.20989,-0.13993 0.53126,-0.20981 0.96377,-0.20981 0.61696,0 1.23357,0.1747 1.85053,0.52452 l 0.47697,-1.17357 c -0.3053,-0.19082 -0.66108,-0.33697 -1.06815,-0.43874 -0.40707,-0.10176 -0.82391,-0.15296 -1.25005,-0.15296 z m -67.38504,0.11472 v 6.67866 h 5.17126 v -1.24075 h -3.63543 v -1.54512 h 3.1011 v -1.20251 h -3.1011 v -1.45004 h 3.51141 v -1.24024 z m 112.42622,0 v 6.67866 h 1.54564 v -1.84174 h 1.34514 c 0.59152,0 1.10331,-0.0955 1.53582,-0.28629 0.43887,-0.19717 0.77597,-0.47669 1.01131,-0.83923 0.23533,-0.3689 0.35295,-0.79854 0.35295,-1.28829 0,-0.49611 -0.11762,-0.92524 -0.35295,-1.28778 -0.23534,-0.36254 -0.57244,-0.64257 -1.01131,-0.83974 -0.43251,-0.19717 -0.9443,-0.29559 -1.53582,-0.29559 z m -91.34172,0.41031 v 1.24954 h -0.79168 v 1.14515 h 0.79168 v 2.1084 c 0,0.60424 0.16536,1.06241 0.4961,1.37407 0.3371,0.31166 0.81102,0.46716 1.42162,0.46716 0.23534,0 0.45828,-0.0251 0.66817,-0.076 0.21626,-0.0572 0.39735,-0.13992 0.54364,-0.24804 l -0.40049,-1.04955 c -0.16538,0.12721 -0.36618,0.19068 -0.60152,0.19068 -0.20353,0 -0.36248,-0.0571 -0.47697,-0.17156 -0.10813,-0.12085 -0.16226,-0.28966 -0.16226,-0.50591 v -2.08928 h 1.27847 v -1.14515 h -1.27847 v -1.24954 z m 92.88736,0.84905 h 1.25935 c 0.46431,0 0.81715,0.10187 1.05885,0.3054 0.2417,0.19717 0.36225,0.48308 0.36225,0.85835 0,0.3689 -0.12055,0.65533 -0.36225,0.85886 -0.2417,0.19718 -0.59454,0.29559 -1.05885,0.29559 h -1.25935 z m -102.44698,0.2098 c -0.51519,0 -0.98271,0.11468 -1.4025,0.34365 -0.41342,0.22261 -0.74067,0.53758 -0.98237,0.94465 -0.23533,0.4007 -0.35295,0.85197 -0.35295,1.35444 0,0.50883 0.12056,0.96355 0.36226,1.36425 0.24169,0.4007 0.58519,0.71567 1.03042,0.94465 0.44523,0.22261 0.95755,0.33383 1.53634,0.33383 0.92862,0 1.63432,-0.27657 2.1177,-0.82993 l -0.79168,-0.85886 c -0.17808,0.17174 -0.37198,0.2992 -0.58187,0.38189 -0.20354,0.0763 -0.43928,0.11421 -0.70642,0.11421 -0.38798,0 -0.71229,-0.092 -0.97307,-0.27647 -0.26077,-0.18446 -0.42613,-0.43543 -0.49609,-0.75344 h 3.88296 c 0.0191,-0.24808 0.0289,-0.38195 0.0289,-0.40101 0,-0.53428 -0.11761,-1.0018 -0.35295,-1.4025 -0.22897,-0.40707 -0.54739,-0.71858 -0.95446,-0.93483 -0.40706,-0.21625 -0.86179,-0.32453 -1.36426,-0.32453 z m 6.14433,0 c -0.54699,0 -1.04011,0.11468 -1.47898,0.34365 -0.43251,0.22261 -0.77256,0.53412 -1.02061,0.93483 -0.24169,0.4007 -0.36277,0.85543 -0.36277,1.36426 0,0.50883 0.12108,0.96355 0.36277,1.36425 0.24805,0.4007 0.5881,0.71567 1.02061,0.94465 0.43887,0.22261 0.93199,0.33383 1.47898,0.33383 0.54063,0 1.01109,-0.11416 1.4118,-0.34313 0.40707,-0.22898 0.70283,-0.54741 0.88728,-0.95447 l -1.15445,-0.62942 c -0.26078,0.47067 -0.64562,0.7059 -1.15445,0.7059 -0.38798,0 -0.70883,-0.12695 -0.96325,-0.38137 -0.25441,-0.25442 -0.38189,-0.60138 -0.38189,-1.04024 0,-0.43887 0.12748,-0.78532 0.38189,-1.03973 0.25442,-0.25442 0.57527,-0.38189 0.96325,-0.38189 0.50247,0 0.88731,0.23575 1.15445,0.70641 l 1.15445,-0.62011 c -0.18445,-0.41979 -0.48021,-0.74116 -0.88728,-0.96377 -0.40071,-0.22897 -0.87117,-0.34365 -1.4118,-0.34365 z m 10.57093,0 c -0.39434,0 -0.74425,0.0635 -1.04955,0.19069 -0.29894,0.12721 -0.53763,0.31521 -0.71572,0.56327 v -0.67748 h -1.4211 v 5.13251 h 1.48828 v -2.42311 c 0,-0.47703 0.12056,-0.83334 0.36225,-1.06867 0.2417,-0.2417 0.57586,-0.36225 1.00201,-0.36225 0.0573,0 0.16846,0.006 0.33383,0.0191 z m 6.23941,0 c -0.54699,0 -1.03959,0.11468 -1.47846,0.34365 -0.43251,0.22261 -0.77307,0.53412 -1.02113,0.93483 -0.2417,0.4007 -0.36225,0.85543 -0.36225,1.36426 0,0.50883 0.12055,0.96355 0.36225,1.36425 0.24806,0.4007 0.58862,0.71567 1.02113,0.94465 0.43887,0.22261 0.93147,0.33383 1.47846,0.33383 0.54064,0 1.01161,-0.11416 1.41232,-0.34313 0.40707,-0.22898 0.70284,-0.54741 0.88728,-0.95447 l -1.15445,-0.62942 c -0.26077,0.47067 -0.64562,0.7059 -1.15445,0.7059 -0.38799,0 -0.70935,-0.12695 -0.96376,-0.38137 -0.25442,-0.25442 -0.38138,-0.60138 -0.38138,-1.04024 0,-0.43887 0.12696,-0.78532 0.38138,-1.03973 0.25441,-0.25442 0.57577,-0.38189 0.96376,-0.38189 0.50247,0 0.88732,0.23575 1.15445,0.70641 l 1.15445,-0.62011 c -0.18444,-0.41979 -0.48021,-0.74116 -0.88728,-0.96377 -0.40071,-0.22897 -0.87168,-0.34365 -1.41232,-0.34365 z m 14.70195,0 c -0.41343,0 -0.81695,0.0541 -1.2113,0.16227 -0.38798,0.10812 -0.72214,0.26068 -1.002,0.45785 l 0.53433,1.04025 c 0.18445,-0.14629 0.40688,-0.26096 0.66766,-0.34365 0.26713,-0.089 0.53782,-0.13384 0.81132,-0.13384 0.39434,0 0.69011,0.0891 0.88728,0.26716 0.19718,0.17174 0.29559,0.41976 0.29559,0.74414 h -1.18287 c -0.75053,0 -1.30712,0.13682 -1.66967,0.41032 -0.35618,0.27349 -0.53433,0.649 -0.53433,1.12602 0,0.29894 0.0763,0.56617 0.22893,0.80151 0.15264,0.23533 0.37213,0.41988 0.65835,0.55345 0.29258,0.13357 0.63609,0.19999 1.03043,0.19999 0.76325,0 1.28491,-0.23817 1.56477,-0.7152 v 0.63923 h 1.39267 v -2.92902 c 0,-0.76324 -0.21309,-1.33264 -0.63923,-1.7079 -0.42615,-0.38162 -1.03689,-0.57258 -1.83193,-0.57258 z m 24.11894,0 c -0.51519,0 -0.98271,0.11468 -1.4025,0.34365 -0.41343,0.22261 -0.74119,0.53758 -0.98288,0.94465 -0.23534,0.4007 -0.35295,0.85197 -0.35295,1.35444 0,0.50883 0.12107,0.96355 0.36276,1.36425 0.2417,0.4007 0.58469,0.71567 1.02991,0.94465 0.44523,0.22261 0.95755,0.33383 1.53635,0.33383 0.92861,0 1.6343,-0.27657 2.1177,-0.82993 l -0.79169,-0.85886 c -0.17809,0.17174 -0.37198,0.2992 -0.58187,0.38189 -0.20353,0.0763 -0.43876,0.11421 -0.7059,0.11421 -0.38799,0 -0.7123,-0.092 -0.97307,-0.27647 -0.26077,-0.18446 -0.42613,-0.43543 -0.4961,-0.75344 h 3.88297 c 0.0191,-0.24808 0.0284,-0.38195 0.0284,-0.40101 0,-0.53428 -0.11761,-1.0018 -0.35295,-1.4025 -0.22897,-0.40707 -0.54688,-0.71858 -0.95394,-0.93483 -0.40707,-0.21625 -0.86179,-0.32453 -1.36426,-0.32453 z m 6.84971,0 c -0.39435,0 -0.74374,0.0635 -1.04903,0.19069 -0.29894,0.12721 -0.53763,0.31521 -0.71572,0.56327 v -0.67748 h -1.42162 v 5.13251 h 1.48828 v -2.42311 c 0,-0.47703 0.12108,-0.83334 0.36277,-1.06867 0.24169,-0.2417 0.57534,-0.36225 1.00149,-0.36225 0.0573,0 0.16846,0.006 0.33383,0.0191 z m 12.12639,0 c -0.54699,0 -1.04011,0.11468 -1.47898,0.34365 -0.4325,0.22261 -0.77255,0.53412 -1.02061,0.93483 -0.24169,0.4007 -0.36277,0.85543 -0.36277,1.36426 0,0.50883 0.12108,0.96355 0.36277,1.36425 0.24806,0.4007 0.58811,0.71567 1.02061,0.94465 0.43887,0.22261 0.93199,0.33383 1.47898,0.33383 0.54063,0 1.0111,-0.11416 1.4118,-0.34313 0.40707,-0.22898 0.70283,-0.54741 0.88729,-0.95447 l -1.15446,-0.62942 c -0.26077,0.47067 -0.64562,0.7059 -1.15445,0.7059 -0.38798,0 -0.70883,-0.12695 -0.96325,-0.38137 -0.25442,-0.25442 -0.38188,-0.60138 -0.38188,-1.04024 0,-0.43887 0.12746,-0.78532 0.38188,-1.03973 0.25442,-0.25442 0.57527,-0.38189 0.96325,-0.38189 0.50247,0 0.88732,0.23575 1.15445,0.70641 l 1.15446,-0.62011 c -0.18446,-0.41979 -0.48022,-0.74116 -0.88729,-0.96377 -0.4007,-0.22897 -0.87117,-0.34365 -1.4118,-0.34365 z m 8.47184,0 c -0.54064,0 -1.02736,0.11468 -1.45986,0.34365 -0.42615,0.22261 -0.7598,0.53412 -1.00149,0.93483 -0.2417,0.4007 -0.36277,0.85543 -0.36277,1.36426 0,0.50883 0.12107,0.96355 0.36277,1.36425 0.24169,0.4007 0.57534,0.71567 1.00149,0.94465 0.4325,0.22261 0.91922,0.33383 1.45986,0.33383 0.54063,0 1.02389,-0.11122 1.45004,-0.33383 0.42614,-0.22898 0.76031,-0.54395 1.002,-0.94465 0.2417,-0.4007 0.36225,-0.85542 0.36225,-1.36425 0,-0.50883 -0.12055,-0.96356 -0.36225,-1.36426 -0.24169,-0.40071 -0.57586,-0.71222 -1.002,-0.93483 -0.42615,-0.22897 -0.90941,-0.34365 -1.45004,-0.34365 z m 5.81049,0 c -0.48975,0 -0.91593,0.0699 -1.27847,0.20981 -0.35618,0.13993 -0.62981,0.33728 -0.82062,0.59169 -0.18446,0.24806 -0.27699,0.53449 -0.27699,0.85887 0,0.38798 0.0989,0.68669 0.29611,0.89658 0.20353,0.2099 0.44222,0.35606 0.71572,0.43874 0.27349,0.0827 0.61994,0.15602 1.03973,0.21962 0.35618,0.0445 0.61995,0.0987 0.79168,0.16226 0.17173,0.0636 0.25786,0.16842 0.25786,0.31471 0,0.31166 -0.31497,0.46768 -0.94464,0.46768 -0.31166,0 -0.62957,-0.0448 -0.95395,-0.13385 -0.32438,-0.0954 -0.60095,-0.21596 -0.82992,-0.36225 l -0.49661,1.06815 c 0.2417,0.15902 0.56652,0.29289 0.97358,0.40101 0.40706,0.10177 0.82339,0.15245 1.24954,0.15245 0.50247,0 0.93505,-0.0664 1.29759,-0.19999 0.36891,-0.13993 0.64894,-0.33434 0.83975,-0.58239 0.19081,-0.24806 0.28628,-0.53103 0.28628,-0.84905 0,-0.37526 -0.0989,-0.66757 -0.2961,-0.87746 -0.19717,-0.2099 -0.42894,-0.35311 -0.69608,-0.42943 -0.26714,-0.0827 -0.61065,-0.15896 -1.03043,-0.22893 -0.37527,-0.0573 -0.6489,-0.11778 -0.82062,-0.18138 -0.17174,-0.0636 -0.25787,-0.17483 -0.25787,-0.33383 0,-0.13993 0.0797,-0.25461 0.23875,-0.34365 0.159,-0.0891 0.39769,-0.13333 0.71571,-0.13333 0.53428,0 1.02688,0.12696 1.47847,0.38137 l 0.49609,-1.05885 c -0.23533,-0.13993 -0.53405,-0.2482 -0.89659,-0.32452 -0.35618,-0.0827 -0.71543,-0.12403 -1.07797,-0.12403 z m 34.10748,0 c -0.54699,0 -1.04011,0.11468 -1.47898,0.34365 -0.4325,0.22261 -0.77255,0.53412 -1.02061,0.93483 -0.24169,0.4007 -0.36276,0.85543 -0.36276,1.36426 0,0.50883 0.12107,0.96355 0.36276,1.36425 0.24806,0.4007 0.58811,0.71567 1.02061,0.94465 0.43887,0.22261 0.93199,0.33383 1.47898,0.33383 0.54064,0 1.0111,-0.11416 1.4118,-0.34313 0.40707,-0.22898 0.70284,-0.54741 0.88729,-0.95447 l -1.15445,-0.62942 c -0.26078,0.47067 -0.64562,0.7059 -1.15446,0.7059 -0.38798,0 -0.70882,-0.12695 -0.96324,-0.38137 -0.25442,-0.25442 -0.38189,-0.60138 -0.38189,-1.04024 0,-0.43887 0.12747,-0.78532 0.38189,-1.03973 0.25442,-0.25442 0.57526,-0.38189 0.96324,-0.38189 0.50248,0 0.88732,0.23575 1.15446,0.70641 l 1.15445,-0.62011 c -0.18445,-0.41979 -0.48022,-0.74116 -0.88729,-0.96377 -0.4007,-0.22897 -0.87116,-0.34365 -1.4118,-0.34365 z m 5.53352,0 c -0.54064,0 -1.02736,0.11468 -1.45986,0.34365 -0.42615,0.22261 -0.76032,0.53412 -1.00201,0.93483 -0.24169,0.4007 -0.36225,0.85543 -0.36225,1.36426 0,0.50883 0.12056,0.96355 0.36225,1.36425 0.24169,0.4007 0.57586,0.71567 1.00201,0.94465 0.4325,0.22261 0.91922,0.33383 1.45986,0.33383 0.54063,0 1.02389,-0.11122 1.45004,-0.33383 0.42614,-0.22898 0.75979,-0.54395 1.00149,-0.94465 0.24169,-0.4007 0.36276,-0.85542 0.36276,-1.36425 0,-0.50883 -0.12107,-0.96356 -0.36276,-1.36426 -0.2417,-0.40071 -0.57535,-0.71222 -1.00149,-0.93483 -0.42615,-0.22897 -0.90941,-0.34365 -1.45004,-0.34365 z m 5.80998,0 c -0.48976,0 -0.91594,0.0699 -1.27848,0.20981 -0.35618,0.13993 -0.62981,0.33728 -0.82062,0.59169 -0.18445,0.24806 -0.27647,0.53449 -0.27647,0.85887 0,0.38798 0.0984,0.68669 0.29559,0.89658 0.20353,0.2099 0.44223,0.35606 0.71572,0.43874 0.2735,0.0827 0.61994,0.15602 1.03973,0.21962 0.35618,0.0445 0.62047,0.0987 0.7922,0.16226 0.17172,0.0636 0.25735,0.16842 0.25735,0.31471 0,0.31166 -0.31497,0.46768 -0.94465,0.46768 -0.31165,0 -0.62957,-0.0448 -0.95395,-0.13385 -0.32438,-0.0954 -0.60095,-0.21596 -0.82992,-0.36225 l -0.49609,1.06815 c 0.2417,0.15902 0.56601,0.29289 0.97306,0.40101 0.40707,0.10177 0.82391,0.15245 1.25006,0.15245 0.50247,0 0.93505,-0.0664 1.29759,-0.19999 0.36891,-0.13993 0.64842,-0.33434 0.83923,-0.58239 0.19081,-0.24806 0.28629,-0.53103 0.28629,-0.84905 0,-0.37526 -0.0984,-0.66757 -0.29559,-0.87746 -0.19718,-0.2099 -0.42947,-0.35311 -0.6966,-0.42943 -0.26714,-0.0827 -0.61065,-0.15896 -1.03043,-0.22893 -0.37527,-0.0573 -0.64889,-0.11778 -0.82062,-0.18138 -0.17173,-0.0636 -0.25735,-0.17483 -0.25735,-0.33383 0,-0.13993 0.0792,-0.25461 0.23823,-0.34365 0.15901,-0.0891 0.3977,-0.13333 0.71572,-0.13333 0.53427,0 1.02739,0.12696 1.47898,0.38137 l 0.49609,-1.05885 c -0.23533,-0.13993 -0.53456,-0.2482 -0.8971,-0.32452 -0.35618,-0.0827 -0.71543,-0.12403 -1.07797,-0.12403 z m -122.88243,0.0765 v 5.13302 h 1.48829 v -5.13302 z m 8.51008,0 v 5.13302 h 1.48828 v -5.13302 z m 42.81806,0 2.15646,5.13302 h 1.53582 l 2.16576,-5.13302 h -1.43092 l -1.46968,3.49178 -1.4211,-3.49178 z m 6.46885,0 v 5.13302 h 1.48829 v -5.13302 z m 8.51008,0 v 5.13302 h 1.48828 v -5.13302 z m 23.84195,0 v 2.90009 c 0,0.76324 0.19684,1.33904 0.59118,1.72702 0.39435,0.38799 0.92881,0.58188 1.60301,0.58188 0.31802,0 0.61379,-0.0571 0.88728,-0.17157 0.2735,-0.12085 0.50873,-0.2926 0.7059,-0.51521 v 0.61081 h 1.4118 v -5.13302 h -1.48828 v 2.53783 c 0,0.45795 -0.10776,0.80439 -0.32401,1.03973 -0.21626,0.22898 -0.50269,0.34365 -0.85886,0.34365 -0.69328,0 -1.03973,-0.41338 -1.03973,-1.24023 v -2.68098 z m 16.03727,0 v 5.13302 h 1.48828 v -5.13302 z m 21.69531,0 2.22312,5.17075 -0.0191,0.0481 c -0.10176,0.22897 -0.21644,0.39087 -0.34364,0.48627 -0.12721,0.10177 -0.29256,0.15296 -0.4961,0.15296 -0.14629,0 -0.29539,-0.029 -0.44803,-0.0863 -0.14629,-0.0572 -0.27671,-0.13646 -0.39119,-0.23822 l -0.54416,1.05885 c 0.16538,0.14629 0.37847,0.26096 0.63924,0.34364 0.26078,0.0827 0.52507,0.12403 0.7922,0.12403 0.48975,0 0.90608,-0.12108 1.24954,-0.36277 0.34982,-0.24169 0.64265,-0.65802 0.87798,-1.24954 l 2.31821,-5.44773 h -1.43093 l -1.45055,3.48248 -1.44022,-3.48248 z m -145.47432,1.04955 c 0.33074,0 0.61025,0.0984 0.83923,0.29559 0.22899,0.19081 0.36926,0.44818 0.42012,0.77256 h -2.52852 c 0.0509,-0.33074 0.19115,-0.59105 0.42013,-0.78186 0.22897,-0.19081 0.51194,-0.28629 0.84904,-0.28629 z m 61.77504,0 c 0.33074,0 0.61077,0.0984 0.83974,0.29559 0.22899,0.19081 0.36875,0.44818 0.41962,0.77256 h -2.52802 c 0.0509,-0.33074 0.19064,-0.59105 0.41962,-0.78186 0.22898,-0.19081 0.51194,-0.28629 0.84904,-0.28629 z m -30.33923,0.0951 c 0.37526,0 0.68728,0.13041 0.93534,0.39119 0.24805,0.25441 0.37207,0.59792 0.37207,1.03043 0,0.4325 -0.12402,0.77946 -0.37207,1.04024 -0.24806,0.25442 -0.56008,0.38137 -0.93534,0.38137 -0.38163,0 -0.69608,-0.12695 -0.94413,-0.38137 -0.24805,-0.26078 -0.37207,-0.60774 -0.37207,-1.04024 0,-0.43251 0.12402,-0.77602 0.37207,-1.03043 0.24805,-0.26078 0.5625,-0.39119 0.94413,-0.39119 z m 12.546,0 c 0.37527,0 0.68678,0.13041 0.93483,0.39119 0.24805,0.25441 0.37207,0.59792 0.37207,1.03043 0,0.4325 -0.12402,0.77946 -0.37207,1.04024 -0.24805,0.25442 -0.55956,0.38137 -0.93483,0.38137 -0.38162,0 -0.69659,-0.12695 -0.94464,-0.38137 -0.24806,-0.26078 -0.37207,-0.60774 -0.37207,-1.04024 0,-0.43251 0.12401,-0.77602 0.37207,-1.03043 0.24805,-0.26078 0.56302,-0.39119 0.94464,-0.39119 z m 45.23187,0 c 0.38162,0 0.69313,0.13041 0.93482,0.39119 0.24806,0.25441 0.37207,0.59792 0.37207,1.03043 0,0.4325 -0.12401,0.77946 -0.37207,1.04024 -0.24169,0.25442 -0.5532,0.38137 -0.93482,0.38137 -0.38163,0 -0.6966,-0.12695 -0.94465,-0.38137 -0.24805,-0.26078 -0.37207,-0.60774 -0.37207,-1.04024 0,-0.43251 0.12402,-0.77602 0.37207,-1.03043 0.24805,-0.26078 0.56302,-0.39119 0.94465,-0.39119 z m 27.88718,0 c 0.38163,0 0.69314,0.13041 0.93483,0.39119 0.24805,0.25441 0.37207,0.59792 0.37207,1.03043 0,0.4325 -0.12402,0.77946 -0.37207,1.04024 -0.24169,0.25442 -0.5532,0.38137 -0.93483,0.38137 -0.38162,0 -0.69658,-0.12695 -0.94464,-0.38137 -0.2417,-0.26078 -0.36225,-0.60774 -0.36225,-1.04024 0,-0.43251 0.12055,-0.77602 0.36225,-1.03043 0.24806,-0.26078 0.56302,-0.39119 0.94464,-0.39119 z m 17.56431,0 c 0.38162,0 0.69313,0.13041 0.93482,0.39119 0.24806,0.25441 0.37207,0.59792 0.37207,1.03043 0,0.4325 -0.12401,0.77946 -0.37207,1.04024 -0.24169,0.25442 -0.5532,0.38137 -0.93482,0.38137 -0.38163,0 -0.6966,-0.12695 -0.94465,-0.38137 -0.24805,-0.26078 -0.37207,-0.60774 -0.37207,-1.04024 0,-0.43251 0.12402,-0.77602 0.37207,-1.03043 0.24805,-0.26078 0.56302,-0.39119 0.94465,-0.39119 z m -97.0561,1.84175 h 1.02061 v 0.52451 c -0.0827,0.22897 -0.22244,0.40367 -0.41961,0.52452 -0.19717,0.11448 -0.42306,0.17208 -0.67748,0.17208 -0.26077,0 -0.46746,-0.0541 -0.62011,-0.16226 -0.14629,-0.11449 -0.21963,-0.26705 -0.21963,-0.45786 0,-0.4007 0.30562,-0.60099 0.91622,-0.60099 z m 11.06083,0.37207 c -0.25609,0.005 -0.47033,0.091 -0.64286,0.25734 -0.17173,0.16537 -0.25735,0.38486 -0.25735,0.65836 0,0.19081 0.0443,0.35911 0.13333,0.5054 0.0954,0.13993 0.22288,0.24181 0.38189,0.30541 l -0.42013,1.51722 h 0.94464 l 0.54364,-1.37408 c 0.10813,-0.25442 0.17852,-0.44537 0.21032,-0.57258 0.0318,-0.1272 0.0476,-0.25416 0.0476,-0.38137 0,-0.2735 -0.0861,-0.49299 -0.25787,-0.65836 -0.17173,-0.17173 -0.39122,-0.25734 -0.65836,-0.25734 -0.008,0 -0.0165,-1.7e-4 -0.0248,0 z m -52.49602,6.25594 c -0.2735,0 -0.49593,0.0797 -0.66766,0.23875 -0.17173,0.15901 -0.25735,0.35636 -0.25735,0.59169 0,0.23534 0.0856,0.43217 0.25735,0.59118 0.17173,0.15901 0.39416,0.23875 0.66766,0.23875 0.2735,0 0.49644,-0.0797 0.66817,-0.23875 0.17173,-0.16537 0.25735,-0.37206 0.25735,-0.62011 0,-0.22898 -0.0856,-0.41993 -0.25735,-0.57258 -0.17173,-0.15265 -0.39467,-0.22893 -0.66817,-0.22893 z m 8.57725,0 c -0.2735,0 -0.49593,0.0797 -0.66766,0.23875 -0.17173,0.15901 -0.25786,0.35636 -0.25786,0.59169 0,0.23534 0.0861,0.43217 0.25786,0.59118 0.17173,0.15901 0.39416,0.23875 0.66766,0.23875 0.27349,0 0.49593,-0.0797 0.66766,-0.23875 0.17173,-0.16537 0.25787,-0.37206 0.25787,-0.62011 0,-0.22898 -0.0861,-0.41993 -0.25787,-0.57258 -0.17173,-0.15265 -0.39417,-0.22893 -0.66766,-0.22893 z m 117.40627,0 c -0.2735,0 -0.49593,0.0797 -0.66766,0.23875 -0.17173,0.15901 -0.25786,0.35636 -0.25786,0.59169 0,0.23534 0.0861,0.43217 0.25786,0.59118 0.17173,0.15901 0.39416,0.23875 0.66766,0.23875 0.27349,0 0.49593,-0.0797 0.66766,-0.23875 0.17173,-0.16537 0.25787,-0.37206 0.25787,-0.62011 0,-0.22898 -0.0861,-0.41993 -0.25787,-0.57258 -0.17173,-0.15265 -0.39417,-0.22893 -0.66766,-0.22893 z m 12.87984,0 c -0.2735,0 -0.49645,0.0797 -0.66818,0.23875 -0.17173,0.15901 -0.25735,0.35636 -0.25735,0.59169 0,0.23534 0.0856,0.43217 0.25735,0.59118 0.17173,0.15901 0.39468,0.23875 0.66818,0.23875 0.2735,0 0.49593,-0.0797 0.66766,-0.23875 0.17173,-0.16537 0.25786,-0.37206 0.25786,-0.62011 0,-0.22898 -0.0861,-0.41993 -0.25786,-0.57258 -0.17173,-0.15265 -0.39416,-0.22893 -0.66766,-0.22893 z m -111.74874,0.42944 v 2.49028 c -0.36891,-0.41342 -0.88122,-0.62011 -1.53634,-0.62011 -0.48339,0 -0.92185,0.10775 -1.3162,0.32401 -0.38798,0.21625 -0.69361,0.52482 -0.91622,0.92552 -0.22261,0.40071 -0.33383,0.86529 -0.33383,1.3932 0,0.5279 0.11122,0.99197 0.33383,1.39268 0.22261,0.4007 0.52824,0.70927 0.91622,0.92552 0.39435,0.21626 0.83281,0.32453 1.3162,0.32453 0.69965,0 1.2341,-0.22295 1.603,-0.66818 v 0.5917 h 1.42162 v -7.07915 z m 15.18874,0 v 2.49028 c -0.36891,-0.41342 -0.88122,-0.62011 -1.53634,-0.62011 -0.48339,0 -0.92237,0.10775 -1.31672,0.32401 -0.38798,0.21625 -0.69309,0.52482 -0.9157,0.92552 -0.22262,0.40071 -0.33383,0.86529 -0.33383,1.3932 0,0.5279 0.11121,0.99197 0.33383,1.39268 0.22261,0.4007 0.52772,0.70927 0.9157,0.92552 0.39435,0.21626 0.83333,0.32453 1.31672,0.32453 0.69964,0 1.2341,-0.22295 1.603,-0.66818 v 0.5917 h 1.42162 v -7.07915 z m 37.13158,0 v 2.49028 c -0.3689,-0.41342 -0.8807,-0.62011 -1.53582,-0.62011 -0.48339,0 -0.92237,0.10775 -1.31672,0.32401 -0.38798,0.21625 -0.69309,0.52482 -0.9157,0.92552 -0.22262,0.40071 -0.33435,0.86529 -0.33435,1.3932 0,0.5279 0.11173,0.99197 0.33435,1.39268 0.22261,0.4007 0.52772,0.70927 0.9157,0.92552 0.39435,0.21626 0.83333,0.32453 1.31672,0.32453 0.69964,0 1.23358,-0.22295 1.60248,-0.66818 v 0.5917 h 1.42162 v -7.07915 z m 8.88215,0 v 7.07915 h 1.4888 v -7.07915 z m 12.55582,0 v 7.07915 h 1.48828 v -7.07915 z m 21.49481,0 v 7.07915 h 1.48828 v -7.07915 z m 32.45694,0 v 2.49028 c -0.3689,-0.41342 -0.88071,-0.62011 -1.53583,-0.62011 -0.48339,0 -0.92237,0.10775 -1.31671,0.32401 -0.38798,0.21625 -0.69361,0.52482 -0.91623,0.92552 -0.22261,0.40071 -0.33383,0.86529 -0.33383,1.3932 0,0.5279 0.11122,0.99197 0.33383,1.39268 0.22262,0.4007 0.52825,0.70927 0.91623,0.92552 0.39434,0.21626 0.83332,0.32453 1.31671,0.32453 0.69964,0 1.23359,-0.22295 1.60249,-0.66818 v 0.5917 h 1.42162 v -7.07915 z m -163.4107,0.401 2.88096,6.67815 h 1.52652 l 2.89078,-6.67815 h -1.53582 l -2.06086,4.77026 -2.03243,-4.77026 z m 62.57602,0 v 6.67815 h 1.45004 v -3.92121 l 1.95596,3.21531 h 0.69608 l 1.96577,-3.30109 0.01,4.00699 h 1.44952 l -0.0191,-6.67815 h -1.26865 l -2.46135,4.15014 -2.49959,-4.15014 z m 40.00376,0 v 6.67815 h 1.54565 v -1.84123 h 1.34513 c 0.59152,0 1.10384,-0.0955 1.53634,-0.28629 0.43887,-0.19717 0.77598,-0.4772 1.01131,-0.83974 0.23533,-0.3689 0.35295,-0.79802 0.35295,-1.28778 0,-0.4961 -0.11762,-0.92523 -0.35295,-1.28777 -0.23533,-0.36254 -0.57244,-0.64257 -1.01131,-0.83975 -0.4325,-0.19717 -0.94482,-0.29559 -1.53634,-0.29559 z m 15.81868,0.4098 v 1.24997 h -0.7922 v 1.14463 h 0.7922 v 2.10892 c 0,0.60423 0.16534,1.0619 0.49609,1.37356 0.3371,0.31166 0.81051,0.46767 1.4211,0.46767 0.23534,0 0.45829,-0.0256 0.66818,-0.0765 0.21625,-0.0572 0.39734,-0.13992 0.54363,-0.24805 l -0.40049,-1.04955 c -0.16537,0.12722 -0.36566,0.19121 -0.601,0.19121 -0.20353,0 -0.36248,-0.0576 -0.47697,-0.17209 -0.10813,-0.12085 -0.16226,-0.28914 -0.16226,-0.50539 v -2.0898 h 1.27847 v -1.14461 h -1.27847 v -1.25005 z m 31.35984,0 v 1.24997 h -0.7922 v 1.14463 h 0.7922 v 2.10892 c 0,0.60423 0.16535,1.0619 0.49609,1.37356 0.3371,0.31166 0.8105,0.46767 1.4211,0.46767 0.23534,0 0.45829,-0.0256 0.66818,-0.0765 0.21625,-0.0572 0.39734,-0.13992 0.54364,-0.24805 l -0.4005,-1.04955 c -0.16536,0.12722 -0.36565,0.19121 -0.60099,0.19121 -0.20353,0 -0.36248,-0.0576 -0.47698,-0.17209 -0.10812,-0.12085 -0.16226,-0.28914 -0.16226,-0.50539 v -2.0898 h 1.27847 v -1.14461 h -1.27847 v -1.25005 z m -45.63287,0.84956 h 1.25935 c 0.46431,0 0.81716,0.10136 1.05885,0.30489 0.2417,0.19717 0.36277,0.4836 0.36277,0.85886 0,0.36891 -0.12107,0.65534 -0.36277,0.85886 -0.24169,0.19718 -0.59454,0.29559 -1.05885,0.29559 h -1.25935 z m -82.47817,0.20981 c -0.5152,0 -0.98272,0.11415 -1.4025,0.34313 -0.41343,0.22261 -0.74067,0.53758 -0.98237,0.94464 -0.23534,0.40071 -0.35347,0.85249 -0.35347,1.35496 0,0.50882 0.12107,0.96355 0.36277,1.36426 0.24169,0.4007 0.5852,0.71567 1.03043,0.94464 0.44522,0.22261 0.95703,0.33383 1.53582,0.33383 0.92862,0 1.63483,-0.27657 2.11822,-0.82992 l -0.79168,-0.85886 c -0.1781,0.17173 -0.3725,0.29868 -0.5824,0.38137 -0.20353,0.0763 -0.43876,0.11472 -0.7059,0.11472 -0.38798,0 -0.71229,-0.092 -0.97307,-0.27647 -0.26077,-0.18445 -0.42613,-0.43594 -0.49609,-0.75396 h 3.88297 c 0.0191,-0.24807 0.0289,-0.38142 0.0289,-0.40049 0,-0.53427 -0.11814,-1.00179 -0.35347,-1.4025 -0.22898,-0.40707 -0.54689,-0.71909 -0.95395,-0.93534 -0.40706,-0.21626 -0.86178,-0.32401 -1.36425,-0.32401 z m 6.78356,0 c -0.34982,0 -0.67119,0.0605 -0.96376,0.18138 -0.29258,0.11449 -0.53767,0.27984 -0.73484,0.49609 v -0.60151 h -1.42111 v 5.13302 h 1.48829 v -2.53783 c 0,-0.45795 0.11121,-0.80145 0.33383,-1.03043 0.22261,-0.23533 0.52132,-0.35295 0.89658,-0.35295 0.33711,0 0.59499,0.10188 0.77308,0.30541 0.17809,0.19717 0.26717,0.49934 0.26717,0.9064 v 2.7094 h 1.48828 v -2.93832 c 0,-0.75053 -0.19735,-1.31699 -0.5917,-1.69861 -0.38798,-0.38162 -0.89978,-0.57205 -1.53582,-0.57205 z m 12.20236,0 c -0.41343,0 -0.81747,0.0541 -1.21182,0.16226 -0.38798,0.10813 -0.72163,0.26068 -1.00148,0.45785 l 0.53381,1.03973 c 0.18446,-0.14628 0.40741,-0.26044 0.66818,-0.34313 0.26714,-0.089 0.53731,-0.13384 0.8108,-0.13384 0.39435,0 0.69011,0.0891 0.88729,0.26717 0.19717,0.17173 0.29559,0.41976 0.29559,0.74414 h -1.18288 c -0.75052,0 -1.30712,0.13681 -1.66966,0.41031 -0.35618,0.2735 -0.53434,0.64848 -0.53434,1.12551 0,0.29894 0.0763,0.56617 0.22893,0.8015 0.15265,0.23533 0.37214,0.41988 0.65836,0.55346 0.29258,0.13356 0.63608,0.2005 1.03042,0.2005 0.76325,0 1.28491,-0.23869 1.56477,-0.71572 v 0.63924 h 1.39268 v -2.92902 c 0,-0.76325 -0.21309,-1.33265 -0.63924,-1.70791 -0.42615,-0.38162 -1.03637,-0.57205 -1.83141,-0.57205 z m 15.4745,0 c -0.51518,0 -0.98271,0.11415 -1.40249,0.34313 -0.41343,0.22261 -0.74068,0.53758 -0.98237,0.94464 -0.23534,0.40071 -0.35295,0.85249 -0.35295,1.35496 0,0.50882 0.12056,0.96355 0.36225,1.36426 0.24169,0.4007 0.5852,0.71567 1.03043,0.94464 0.44522,0.22261 0.95754,0.33383 1.53634,0.33383 0.92861,0 1.6343,-0.27657 2.1177,-0.82992 l -0.79169,-0.85886 c -0.17809,0.17173 -0.37198,0.29868 -0.58187,0.38137 -0.20354,0.0763 -0.43929,0.11472 -0.70642,0.11472 -0.38799,0 -0.71229,-0.092 -0.97307,-0.27647 -0.26078,-0.18445 -0.42613,-0.43594 -0.49609,-0.75396 h 3.88297 c 0.0191,-0.24807 0.0289,-0.38142 0.0289,-0.40049 0,-0.53427 -0.11762,-1.00179 -0.35295,-1.4025 -0.22898,-0.40707 -0.5474,-0.71909 -0.95447,-0.93534 -0.40706,-0.21626 -0.86178,-0.32401 -1.36426,-0.32401 z m 17.54519,0 c -0.41343,0 -0.81696,0.0541 -1.2113,0.16226 -0.38799,0.10813 -0.72215,0.26068 -1.002,0.45785 l 0.53433,1.03973 c 0.18445,-0.14628 0.40688,-0.26044 0.66766,-0.34313 0.26713,-0.089 0.53782,-0.13384 0.81132,-0.13384 0.39435,0 0.6896,0.0891 0.88677,0.26717 0.19717,0.17173 0.2961,0.41976 0.2961,0.74414 h -1.18287 c -0.75053,0 -1.30713,0.13681 -1.66967,0.41031 -0.35618,0.2735 -0.53433,0.64848 -0.53433,1.12551 0,0.29894 0.0763,0.56617 0.22893,0.8015 0.15264,0.23533 0.37213,0.41988 0.65835,0.55346 0.29258,0.13356 0.63609,0.2005 1.03043,0.2005 0.76325,0 1.28439,-0.23869 1.56425,-0.71572 v 0.63924 h 1.39319 v -2.92902 c 0,-0.76325 -0.21309,-1.33265 -0.63923,-1.70791 -0.42614,-0.38162 -1.03688,-0.57205 -1.83193,-0.57205 z m 7.00267,0 c -0.39435,0 -0.74373,0.0635 -1.04903,0.19068 -0.29893,0.12721 -0.53763,0.3147 -0.71572,0.56276 v -0.67748 h -1.42162 v 5.13302 h 1.48828 v -2.42311 c 0,-0.47702 0.12107,-0.83333 0.36277,-1.06867 0.24169,-0.24169 0.57534,-0.36277 1.00149,-0.36277 0.0572,0 0.16846,0.006 0.33383,0.0191 z m 12.58424,0 c -0.51519,0 -0.98271,0.11415 -1.40249,0.34313 -0.41343,0.22261 -0.74119,0.53758 -0.98289,0.94464 -0.23533,0.40071 -0.35295,0.85249 -0.35295,1.35496 0,0.50882 0.12107,0.96355 0.36277,1.36426 0.24169,0.4007 0.5852,0.71567 1.03043,0.94464 0.44522,0.22261 0.95703,0.33383 1.53582,0.33383 0.92862,0 1.63483,-0.27657 2.11822,-0.82992 l -0.79169,-0.85886 c -0.17809,0.17173 -0.3725,0.29868 -0.58239,0.38137 -0.20353,0.0763 -0.43877,0.11472 -0.7059,0.11472 -0.38798,0 -0.71229,-0.092 -0.97307,-0.27647 -0.26078,-0.18445 -0.42613,-0.43594 -0.49609,-0.75396 h 3.88297 c 0.0191,-0.24807 0.0284,-0.38142 0.0284,-0.40049 0,-0.53427 -0.11762,-1.00179 -0.35295,-1.4025 -0.22898,-0.40707 -0.54689,-0.71909 -0.95395,-0.93534 -0.40706,-0.21626 -0.86178,-0.32401 -1.36426,-0.32401 z m 21.16099,0 c -0.41343,0 -0.81747,0.0541 -1.21182,0.16226 -0.38797,0.10813 -0.72162,0.26068 -1.00148,0.45785 l 0.53433,1.03973 c 0.18445,-0.14628 0.40689,-0.26044 0.66766,-0.34313 0.26714,-0.089 0.53731,-0.13384 0.8108,-0.13384 0.39435,0 0.69011,0.0891 0.88729,0.26717 0.19717,0.17173 0.2961,0.41976 0.2961,0.74414 h -1.18339 c -0.75052,0 -1.30712,0.13681 -1.66966,0.41031 -0.35618,0.2735 -0.53434,0.64848 -0.53434,1.12551 0,0.29894 0.0768,0.56617 0.22945,0.8015 0.15265,0.23533 0.37162,0.41988 0.65784,0.55346 0.29258,0.13356 0.63608,0.2005 1.03042,0.2005 0.76325,0 1.28491,-0.23869 1.56477,-0.71572 v 0.63924 h 1.39319 v -2.92902 c 0,-0.76325 -0.21309,-1.33265 -0.63923,-1.70791 -0.42615,-0.38162 -1.03689,-0.57205 -1.83193,-0.57205 z m 10.03659,0 c -0.41342,0 -0.81746,0.0541 -1.21181,0.16226 -0.38798,0.10813 -0.72163,0.26068 -1.00149,0.45785 l 0.53434,1.03973 c 0.18445,-0.14628 0.40688,-0.26044 0.66766,-0.34313 0.26713,-0.089 0.5373,-0.13384 0.8108,-0.13384 0.39434,0 0.69011,0.0891 0.88728,0.26717 0.19718,0.17173 0.29611,0.41976 0.29611,0.74414 h -1.18339 c -0.75053,0 -1.3066,0.13681 -1.66915,0.41031 -0.35618,0.2735 -0.53433,0.64848 -0.53433,1.12551 0,0.29894 0.0763,0.56617 0.22892,0.8015 0.15266,0.23533 0.37215,0.41988 0.65836,0.55346 0.29258,0.13356 0.63608,0.2005 1.03043,0.2005 0.76324,0 1.28439,-0.23869 1.56424,-0.71572 v 0.63924 h 1.3932 v -2.92902 c 0,-0.76325 -0.21309,-1.33265 -0.63924,-1.70791 -0.42614,-0.38162 -1.03688,-0.57205 -1.83193,-0.57205 z m 15.29364,0 c -0.33074,0 -0.63585,0.0571 -0.9157,0.17156 -0.2735,0.11449 -0.50579,0.27984 -0.6966,0.4961 v -0.5917 h -1.42162 v 5.13302 h 1.48828 v -2.57607 c 0,-0.44523 0.10188,-0.77888 0.30541,-1.00149 0.20353,-0.22897 0.47716,-0.34365 0.82062,-0.34365 0.64876,0 0.97307,0.40404 0.97307,1.21181 v 2.7094 h 1.48828 v -2.57607 c 0,-0.44523 0.10187,-0.77888 0.30541,-1.00149 0.20353,-0.22897 0.4801,-0.34365 0.82992,-0.34365 0.31166,0 0.54984,0.10188 0.7152,0.30541 0.17174,0.19717 0.25787,0.49934 0.25787,0.9064 v 2.7094 h 1.48828 v -2.93832 c 0,-0.75689 -0.19096,-1.32335 -0.57258,-1.69861 -0.37526,-0.38162 -0.88412,-0.57205 -1.52652,-0.57205 -0.38162,0 -0.73447,0.0728 -1.05885,0.2191 -0.31802,0.14629 -0.58179,0.35299 -0.79168,0.62012 -0.17809,-0.27349 -0.41384,-0.48019 -0.70642,-0.62012 -0.29257,-0.14629 -0.61982,-0.2191 -0.98237,-0.2191 z m 16.06621,0 c -0.41343,0 -0.81748,0.0541 -1.21182,0.16226 -0.38798,0.10813 -0.72163,0.26068 -1.00148,0.45785 l 0.53433,1.03973 c 0.18445,-0.14628 0.40688,-0.26044 0.66766,-0.34313 0.26713,-0.089 0.5373,-0.13384 0.8108,-0.13384 0.39435,0 0.69012,0.0891 0.88729,0.26717 0.19717,0.17173 0.2961,0.41976 0.2961,0.74414 h -1.18339 c -0.75052,0 -1.30661,0.13681 -1.66915,0.41031 -0.35618,0.2735 -0.53433,0.64848 -0.53433,1.12551 0,0.29894 0.0763,0.56617 0.22893,0.8015 0.15264,0.23533 0.37213,0.41988 0.65835,0.55346 0.29258,0.13356 0.63609,0.2005 1.03043,0.2005 0.76325,0 1.28439,-0.23869 1.56425,-0.71572 v 0.63924 h 1.39319 v -2.92902 c 0,-0.76325 -0.21309,-1.33265 -0.63923,-1.70791 -0.42614,-0.38162 -1.03688,-0.57205 -1.83193,-0.57205 z m 12.546,0 c -0.41343,0 -0.81747,0.0541 -1.21181,0.16226 -0.38798,0.10813 -0.72163,0.26068 -1.00149,0.45785 l 0.53382,1.03973 c 0.18445,-0.14628 0.40739,-0.26044 0.66817,-0.34313 0.26714,-0.089 0.53731,-0.13384 0.81081,-0.13384 0.39434,0 0.69011,0.0891 0.88728,0.26717 0.19717,0.17173 0.29559,0.41976 0.29559,0.74414 h -1.18287 c -0.75053,0 -1.30712,0.13681 -1.66967,0.41031 -0.35618,0.2735 -0.53433,0.64848 -0.53433,1.12551 0,0.29894 0.0763,0.56617 0.22892,0.8015 0.15266,0.23533 0.37215,0.41988 0.65836,0.55346 0.29258,0.13356 0.63608,0.2005 1.03043,0.2005 0.76324,0 1.2849,-0.23869 1.56476,-0.71572 v 0.63924 h 1.3932 v -2.92902 c 0,-0.76325 -0.21309,-1.33265 -0.63924,-1.70791 -0.42615,-0.38162 -1.03688,-0.57205 -1.83193,-0.57205 z m -160.50131,0.076 v 5.13302 h 1.48828 v -5.13302 z m 2.10891,0 2.15594,5.13302 h 1.53583 l 2.16576,-5.13302 h -1.43093 l -1.46916,3.49229 -1.42161,-3.49229 z m 6.46834,0 v 5.13302 h 1.48828 v -5.13302 z m 117.40627,0 v 5.13302 h 1.48828 v -5.13302 z m 12.87984,0 v 5.13302 h 1.48828 v -5.13302 z m -125.04819,1.04955 c 0.33074,0 0.61026,0.0989 0.83923,0.2961 0.22899,0.19082 0.36926,0.44819 0.42013,0.77257 h -2.52853 c 0.0509,-0.33074 0.19064,-0.59157 0.41961,-0.78238 0.22898,-0.19082 0.51246,-0.28629 0.84956,-0.28629 z m 34.46043,0 c 0.33074,0 0.61025,0.0989 0.83923,0.2961 0.22898,0.19082 0.36926,0.44819 0.42013,0.77257 H 163.008 c 0.0509,-0.33074 0.19116,-0.59157 0.42013,-0.78238 0.22897,-0.19082 0.51194,-0.28629 0.84904,-0.28629 z m 37.13159,0 c 0.33074,0 0.61077,0.0989 0.83974,0.2961 0.22899,0.19082 0.36874,0.44819 0.41961,0.77257 h -2.52801 c 0.0509,-0.33074 0.19064,-0.59157 0.41961,-0.78238 0.22898,-0.19082 0.51195,-0.28629 0.84905,-0.28629 z m -58.8269,0.0956 c 0.37526,0 0.68677,0.13042 0.93482,0.39119 0.24806,0.25442 0.37207,0.59792 0.37207,1.03043 0,0.4325 -0.12401,0.77896 -0.37207,1.03973 -0.24805,0.25441 -0.55956,0.38189 -0.93482,0.38189 -0.38163,0 -0.6966,-0.12748 -0.94465,-0.38189 -0.24805,-0.26077 -0.37207,-0.60723 -0.37207,-1.03973 0,-0.43251 0.12402,-0.77601 0.37207,-1.03043 0.24805,-0.26077 0.56302,-0.39119 0.94465,-0.39119 z m 15.18873,0 c 0.37526,0 0.68677,0.13042 0.93483,0.39119 0.24805,0.25442 0.37207,0.59792 0.37207,1.03043 0,0.4325 -0.12402,0.77896 -0.37207,1.03973 -0.24806,0.25441 -0.55957,0.38189 -0.93483,0.38189 -0.38162,0 -0.69659,-0.12748 -0.94464,-0.38189 -0.24806,-0.26077 -0.37207,-0.60723 -0.37207,-1.03973 0,-0.43251 0.12401,-0.77601 0.37207,-1.03043 0.24805,-0.26077 0.56302,-0.39119 0.94464,-0.39119 z m 37.13159,0 c 0.37526,0 0.68728,0.13042 0.93534,0.39119 0.24805,0.25442 0.37207,0.59792 0.37207,1.03043 0,0.4325 -0.12402,0.77896 -0.37207,1.03973 -0.24806,0.25441 -0.56008,0.38189 -0.93534,0.38189 -0.38163,0 -0.6966,-0.12748 -0.94465,-0.38189 -0.24805,-0.26077 -0.37207,-0.60723 -0.37207,-1.03973 0,-0.43251 0.12402,-0.77601 0.37207,-1.03043 0.24805,-0.26077 0.56302,-0.39119 0.94465,-0.39119 z m 75.38971,0 c 0.37527,0 0.68677,0.13042 0.93483,0.39119 0.24805,0.25442 0.37207,0.59792 0.37207,1.03043 0,0.4325 -0.12402,0.77896 -0.37207,1.03973 -0.24806,0.25441 -0.55956,0.38189 -0.93483,0.38189 -0.38162,0 -0.69658,-0.12748 -0.94464,-0.38189 -0.24806,-0.26077 -0.37208,-0.60723 -0.37208,-1.03973 0,-0.43251 0.12402,-0.77601 0.37208,-1.03043 0.24806,-0.26077 0.56302,-0.39119 0.94464,-0.39119 z m -121.53728,1.84123 h 1.02061 v 0.52503 c -0.0827,0.22898 -0.22244,0.40367 -0.41962,0.52452 -0.19717,0.11449 -0.42306,0.17156 -0.67748,0.17156 -0.26077,0 -0.46747,-0.0541 -0.62011,-0.16226 -0.14629,-0.11449 -0.21911,-0.26704 -0.21911,-0.45785 0,-0.40071 0.30511,-0.601 0.91571,-0.601 z m 33.01969,0 h 1.02112 v 0.52503 c -0.0827,0.22898 -0.22296,0.40367 -0.42013,0.52452 -0.19717,0.11449 -0.42254,0.17156 -0.67696,0.17156 -0.26077,0 -0.46747,-0.0541 -0.62012,-0.16226 -0.14629,-0.11449 -0.21962,-0.26704 -0.21962,-0.45785 0,-0.40071 0.30511,-0.601 0.91571,-0.601 z m 40.7479,0 h 1.02112 v 0.52503 c -0.0827,0.22898 -0.22295,0.40367 -0.42013,0.52452 -0.19717,0.11449 -0.42306,0.17156 -0.67747,0.17156 -0.26078,0 -0.46748,-0.0541 -0.62012,-0.16226 -0.14629,-0.11449 -0.21911,-0.26704 -0.21911,-0.45785 0,-0.40071 0.30511,-0.601 0.91571,-0.601 z m 10.03659,0 h 1.02113 v 0.52503 c -0.0827,0.22898 -0.22296,0.40367 -0.42013,0.52452 -0.19717,0.11449 -0.42255,0.17156 -0.67696,0.17156 -0.26077,0 -0.46747,-0.0541 -0.62012,-0.16226 -0.14628,-0.11449 -0.21962,-0.26704 -0.21962,-0.45785 0,-0.40071 0.3051,-0.601 0.9157,-0.601 z m 31.35985,0 h 1.02112 v 0.52503 c -0.0827,0.22898 -0.22296,0.40367 -0.42013,0.52452 -0.19717,0.11449 -0.42254,0.17156 -0.67696,0.17156 -0.26077,0 -0.46747,-0.0541 -0.62012,-0.16226 -0.14629,-0.11449 -0.21962,-0.26704 -0.21962,-0.45785 0,-0.40071 0.30511,-0.601 0.91571,-0.601 z m 12.546,0 h 1.02061 v 0.52503 c -0.0827,0.22898 -0.22244,0.40367 -0.41961,0.52452 -0.19717,0.11449 -0.42306,0.17156 -0.67748,0.17156 -0.26077,0 -0.46746,-0.0541 -0.62012,-0.16226 -0.14628,-0.11449 -0.21911,-0.26704 -0.21911,-0.45785 0,-0.40071 0.30511,-0.601 0.91571,-0.601 z m 4.4173,0.37207 c -0.26077,0 -0.48026,0.0861 -0.65836,0.25787 -0.17809,0.16537 -0.26716,0.38486 -0.26716,0.65835 0,0.26714 0.0891,0.48958 0.26716,0.66766 0.1781,0.1781 0.39759,0.26717 0.65836,0.26717 0.26078,0 0.48027,-0.0891 0.65836,-0.26717 0.17809,-0.17808 0.26717,-0.40052 0.26717,-0.66766 0,-0.27349 -0.0891,-0.49298 -0.26717,-0.65835 -0.17809,-0.17174 -0.39758,-0.25787 -0.65836,-0.25787 z" /></g></g></svg>
