<?xml version="1.0" encoding="UTF-8" standalone="no"?>
<!-- Created with Inkscape (http://www.inkscape.org/) -->

<svg
   width="45.168686mm"
   height="88.925537mm"
   viewBox="0 0 45.168686 88.925537"
   version="1.1"
   id="svg4094"
   xml:space="preserve"
   xmlns:inkscape="http://www.inkscape.org/namespaces/inkscape"
   xmlns:sodipodi="http://sodipodi.sourceforge.net/DTD/sodipodi-0.dtd"
   xmlns="http://www.w3.org/2000/svg"
   xmlns:svg="http://www.w3.org/2000/svg"><sodipodi:namedview
     id="namedview4096"
     pagecolor="#ffffff"
     bordercolor="#666666"
     borderopacity="1.0"
     inkscape:showpageshadow="2"
     inkscape:pageopacity="0.0"
     inkscape:pagecheckerboard="0"
     inkscape:deskcolor="#d1d1d1"
     inkscape:document-units="mm"
     showgrid="false" /><defs
     id="defs4091" /><g
     inkscape:label="Capa 1"
     inkscape:groupmode="layer"
     id="layer1"
     transform="translate(-59.256303,-152.0359)"><path
       id="path4596"
       style="fill:#03876c;fill-opacity:1;stroke-width:0.253504"
       d="m 59.256303,152.03591 v 88.92553 h 45.168687 v -88.92553 z m 2.177184,1.62054 h 20.407164 20.407159 v 42.84223 42.84222 H 81.840651 61.433487 v -42.84222 z m 2.154904,2.1549 -0.06462,23.25871 -0.06462,23.25907 h 1.916874 1.916873 l -0.394738,-0.56332 c -0.582913,-0.83223 -0.490096,-1.89914 0.227633,-2.61686 1.738058,-1.73807 4.452712,0.59914 3.039444,2.61686 l -0.394738,0.56332 h 3.222516 c 3.105802,0 3.20726,-0.0166 2.802901,-0.46343 -0.627734,-0.69364 -0.531522,-1.98248 0.20275,-2.71675 1.738054,-1.73807 4.452344,0.59914 3.039073,2.61686 l -0.394737,0.56332 h 3.056527 c 1.681025,0 3.05652,-0.0394 3.05652,-0.0876 0,-0.0483 -0.173116,-0.43514 -0.384713,-0.85929 -0.679473,-1.36204 0.246377,-2.83137 1.794333,-2.84746 1.539772,-0.016 2.496966,1.60709 1.773164,3.00677 l -0.407363,0.78761 h 3.055039 3.05504 l -0.407363,-0.78761 c -0.479704,-0.92766 -0.327872,-1.78073 0.44524,-2.501 1.567625,-1.46046 4.102065,0.46544 3.114827,2.36694 -0.207343,0.39936 -0.377283,0.77026 -0.377283,0.82401 0,0.0538 0.798658,0.0977 1.774644,0.0977 h 1.774651 v -23.06894 -23.2587 c 0,-0.10457 -8.185268,-0.19014 -18.189128,-0.19014 z m 18.056932,4.65182 c 4.052167,-0.0295 7.337544,1.27945 10.317397,4.11003 4.827262,4.58542 6.00357,11.37922 3.0257,17.47577 -1.762874,3.60913 -5.618109,6.71612 -9.588449,7.72728 -2.017363,0.51378 -5.685823,0.46806 -7.615503,-0.0951 -5.129672,-1.49692 -9.101089,-5.51682 -10.545774,-10.67426 -0.533367,-1.90409 -0.423997,-5.92873 0.216865,-7.98536 1.966288,-6.31006 7.611558,-10.51061 14.189764,-10.5584 z m -0.124029,2.36657 c -0.275832,0 -0.534697,0.0119 -0.768312,0.0368 -1.46465,0.15569 -3.707429,0.74965 -4.312405,1.14225 -0.255294,0.16568 0.270673,1.81569 2.323865,7.28947 3.260543,8.69256 2.987499,8.00872 3.139338,7.85688 0.06992,-0.0699 1.244566,-3.50651 2.610539,-7.63705 l 2.483543,-7.51041 -0.803961,-0.33458 c -1.197284,-0.49856 -3.183136,-0.84329 -4.672607,-0.84332 z m 6.449859,1.75051 c -0.01818,1.4e-4 -0.03219,0.005 -0.04125,0.0137 -0.13991,0.13991 5.285595,14.64884 5.481397,14.6584 0.08965,0.004 0.24578,-0.19159 0.346829,-0.43559 0.101048,-0.24399 0.241605,-1.53465 0.3123,-2.86825 0.181258,-3.41924 -0.643363,-5.97638 -2.786926,-8.64376 -0.76395,-0.95063 -2.942465,-2.72742 -3.312382,-2.72454 z m -12.989211,0.31639 c -0.273568,0.0229 -1.073923,0.65372 -2.09252,1.6885 -2.25034,2.28611 -3.597201,5.56057 -3.597201,8.74587 0,1.53931 0.571786,4.43643 0.875628,4.43643 0.05253,0 1.135644,-3.19417 2.406674,-7.09822 1.271038,-3.90407 2.381506,-7.28257 2.467946,-7.50782 0.07269,-0.18942 0.04649,-0.27367 -0.06051,-0.26476 z m 2.422268,15.12406 v 3.53964 3.53927 l 0.950641,0.2462 c 0.522848,0.13553 1.235951,0.30257 1.584519,0.37134 0.901719,0.1778 4.009618,-0.0361 5.133447,-0.35352 l 0.950641,-0.26848 v -3.53704 -3.53741 h -4.309437 z m -5.069945,3.7e-4 c -1.115412,0 -2.027905,0.0614 -2.027905,0.13665 0,0.52897 1.306903,2.48975 2.478344,3.71789 0.770624,0.80792 1.440969,1.46866 1.48946,1.46866 0.04851,0 0.08801,-1.19743 0.08801,-2.66141 v -2.66179 z m 16.763915,0 -0.07984,2.66216 c -0.04383,1.46427 -0.0079,2.66208 0.07984,2.66178 0.08775,-2.6e-4 0.633231,-0.4602 1.212064,-1.02193 1.059917,-1.02862 2.811437,-3.54323 2.811437,-4.0365 0,-0.16292 -0.778322,-0.26551 -2.011938,-0.26551 z m 7.826057,24.81909 v 3.05133 3.05132 l 1.452319,2.91801 c 0.798896,1.60494 1.511998,2.91797 1.584519,2.91802 0.07257,6e-5 0.106485,-2.65224 0.07544,-5.89396 l -0.05686,-5.89396 -1.527707,-0.0754 z m -12.675431,0.006 -2.429325,0.0728 -2.429325,0.0724 0.0065,3.08177 0.0065,3.08141 1.186814,2.3636 1.186813,2.36323 1.223203,-2.40297 1.222837,-2.40296 0.01337,-3.11445 z m -20.787042,0.0182 v 5.95746 c 0,3.27653 0.05582,5.95709 0.124399,5.95709 0.06855,0 0.753013,-1.25296 1.521022,-2.78433 l 1.396621,-2.78433 v -3.17276 -3.17313 h -1.521022 z m 7.097852,0 v 3.12374 3.12375 l 1.132596,2.32645 c 0.622781,1.27958 1.200164,2.32684 1.283362,2.32684 0.08319,0 0.657357,-1.06854 1.275933,-2.37436 l 1.124799,-2.37437 v -3.07584 -3.07621 h -2.408159 z m 17.491373,0 v 2.89908 2.89908 l 1.182732,2.55112 c 0.650506,1.40315 1.256639,2.5515 1.346858,2.5515 0.09022,0 0.699672,-1.11225 1.354289,-2.47165 h 3.73e-4 l 1.190155,-2.47167 -0.0022,-2.97891 -0.0022,-2.97855 h -2.53516 z m -19.516679,8.87271 c -0.144041,0 -1.178625,2.11394 -1.954007,3.99268 -0.09831,0.2382 0.379436,0.31713 1.9243,0.31713 1.13033,0 2.055013,-0.0615 2.055013,-0.13665 0,-0.3333 -1.863515,-4.17316 -2.025306,-4.17316 z m 8.859502,0 c -0.156258,0 -2.017506,3.84996 -2.017506,4.17316 0,0.0751 0.92204,0.13665 2.049074,0.13665 1.127034,0 2.011248,-0.0927 1.964776,-0.20572 -0.728221,-1.77073 -1.863253,-4.10409 -1.996344,-4.10409 z m 17.564161,0.12032 c -0.02026,7.2e-4 -0.03816,0.009 -0.05382,0.0249 -0.128613,0.12923 -0.636457,1.11927 -1.128514,2.19984 l -0.894935,1.96477 h 2.154902 2.154908 l -0.370233,-0.71632 c -0.203714,-0.39394 -0.665589,-1.38399 -1.026388,-2.19983 -0.357586,-0.80857 -0.670605,-1.28125 -0.835895,-1.27334 z m -8.870647,0.006 c -0.01595,-5e-4 -0.02961,0.005 -0.04082,0.0171 -0.121536,0.12984 -0.625398,1.12038 -1.119603,2.20095 l -0.898277,1.96477 h 2.159364 c 1.187668,0 2.120567,-0.0856 2.073205,-0.19012 -1.168245,-2.57974 -1.934467,-3.98535 -2.173844,-3.99268 z m -14.613464,5.73836 c -7.631736,-0.001 -8.012098,0.0917 -8.012098,0.42854 0,0.25653 0.07658,0.54298 0.170446,0.63685 0.09387,0.0939 8.336046,0.14162 18.315756,0.10583 17.954249,-0.0644 18.144944,-0.0706 18.144944,-0.57223 0,-0.50174 -0.190846,-0.50749 -18.315761,-0.57187 -4.409738,-0.0157 -7.759374,-0.0267 -10.303287,-0.0271 z m 0,2.78879 c -7.631736,-10e-4 -8.012098,0.0913 -8.012098,0.42816 0,0.25654 0.07658,0.54336 0.170446,0.63723 0.09387,0.0939 8.336046,0.14124 18.315756,0.10546 17.954249,-0.0644 18.144944,-0.0701 18.144944,-0.57187 0,-0.50174 -0.190846,-0.50786 -18.315761,-0.57224 -4.409738,-0.0157 -7.759374,-0.0264 -10.303287,-0.0267 z m 10.240159,2.75351 c -18.083214,0 -18.252257,0.005 -18.252257,0.50726 0,0.50257 0.169043,0.50688 18.252257,0.50688 18.083222,0 18.252256,-0.005 18.252256,-0.50688 0,-0.50223 -0.169034,-0.50726 -18.252256,-0.50726 z m -18.12563,2.66179 -0.08132,0.57224 -0.08095,0.57187 18.333207,-0.065 c 18.142757,-0.0644 18.333592,-0.0701 18.333592,-0.57187 0,-0.50223 -0.16904,-0.50726 -18.252262,-0.50726 z m -0.126627,2.65844 v 0.63723 0.63723 l 18.315385,-0.0653 c 18.124915,-0.0644 18.315761,-0.0702 18.315761,-0.57187 0,-0.50175 -0.190846,-0.50785 -18.315761,-0.57223 z m 8.012098,2.82667 c -7.631736,-0.001 -8.012098,0.0916 -8.012098,0.42853 0,0.25653 0.07658,0.54298 0.170446,0.63685 0.09387,0.0939 8.336046,0.14162 18.315756,0.10584 17.954249,-0.0644 18.144944,-0.0706 18.144944,-0.57224 0,-0.50174 -0.190846,-0.50749 -18.315761,-0.57187 -4.409738,-0.0157 -7.759374,-0.0267 -10.303287,-0.0271 z m 10.197826,2.75388 c -18.040969,0 -18.209924,0.005 -18.209924,0.50688 0,0.50223 0.169054,0.50726 18.225151,0.50726 15.401484,0 18.246163,-0.0554 18.361425,-0.35575 0.075,-0.19551 0.0681,-0.42353 -0.0152,-0.50688 -0.08334,-0.0833 -8.345956,-0.15151 -18.361436,-0.15151 z"
       inkscape:export-filename="new-logo-new.svg"
       inkscape:export-xdpi="96"
       inkscape:export-ydpi="96" /></g></svg>
